<?xml version="1.0" encoding="UTF-8" standalone="no"?>
<!DOCTYPE svg PUBLIC "-//W3C//DTD SVG 1.1//EN"
 "http://www.w3.org/Graphics/SVG/1.1/DTD/svg11.dtd">
<!-- Generated by graphviz version 2.40.1 (20161225.0304)
 -->
<!-- Title: %0 Pages: 1 -->
<svg width="989pt" height="507pt"
 viewBox="0.00 0.00 989.00 506.99" xmlns="http://www.w3.org/2000/svg" xmlns:xlink="http://www.w3.org/1999/xlink">
<g id="graph0" class="graph" transform="scale(1 1) rotate(0) translate(4 502.9944)">
<title>%0</title>
<g id="a_graph0"><a xlink:title="Data Model">
<polygon fill="#ffffff" stroke="transparent" points="-4,4 -4,-502.9944 985,-502.9944 985,4 -4,4"/>
</a>
</g>
<!-- AssayMethod -->
<g id="node1" class="node">
<title>AssayMethod</title>
<polygon fill="#efebdd" stroke="transparent" points="184.5,-116.9944 184.5,-136.9944 347.5,-136.9944 347.5,-116.9944 184.5,-116.9944"/>
<text text-anchor="start" x="223.5996" y="-122.3944" font-family="Arial" font-size="14.00" fill="#000000">AssayMethod</text>
<polygon fill="#ffffff" stroke="transparent" points="184.5,-96.9944 184.5,-116.9944 285.5,-116.9944 285.5,-96.9944 184.5,-96.9944"/>
<text text-anchor="start" x="186.378" y="-103.3944" font-family="Arial" text-decoration="underline" font-size="14.00" fill="#444444">assayMethodID</text>
<polygon fill="#ffffff" stroke="transparent" points="285.5,-96.9944 285.5,-116.9944 347.5,-116.9944 347.5,-96.9944 285.5,-96.9944"/>
<text text-anchor="start" x="287.3289" y="-102.3944" font-family="Arial" font-size="14.00" fill="#444444">character</text>
<polygon fill="#ffffff" stroke="transparent" points="184.5,-76.9944 184.5,-96.9944 285.5,-96.9944 285.5,-76.9944 184.5,-76.9944"/>
<text text-anchor="start" x="186.5" y="-82.3944" font-family="Arial" font-size="14.00" fill="#444444">instrumentID</text>
<polygon fill="#ffffff" stroke="transparent" points="285.5,-76.9944 285.5,-96.9944 347.5,-96.9944 347.5,-76.9944 285.5,-76.9944"/>
<text text-anchor="start" x="287.3289" y="-82.3944" font-family="Arial" font-size="14.00" fill="#444444">character</text>
<polygon fill="none" stroke="#555555" points="183,-75.9944 183,-137.9944 348,-137.9944 348,-75.9944 183,-75.9944"/>
</g>
<!-- Instrument -->
<g id="node3" class="node">
<title>Instrument</title>
<polygon fill="#efebdd" stroke="transparent" points="1.5,-96.9944 1.5,-116.9944 146.5,-116.9944 146.5,-96.9944 1.5,-96.9944"/>
<text text-anchor="start" x="40.9383" y="-102.3944" font-family="Arial" font-size="14.00" fill="#000000">Instrument</text>
<polygon fill="#ffffff" stroke="transparent" points="1.5,-76.9944 1.5,-96.9944 84.5,-96.9944 84.5,-76.9944 1.5,-76.9944"/>
<text text-anchor="start" x="3.3317" y="-83.3944" font-family="Arial" text-decoration="underline" font-size="14.00" fill="#444444">instrumentID</text>
<polygon fill="#ffffff" stroke="transparent" points="84.5,-76.9944 84.5,-96.9944 146.5,-96.9944 146.5,-76.9944 84.5,-76.9944"/>
<text text-anchor="start" x="86.3289" y="-82.3944" font-family="Arial" font-size="14.00" fill="#444444">character</text>
<polygon fill="none" stroke="#555555" points="0,-75.9944 0,-117.9944 147,-117.9944 147,-75.9944 0,-75.9944"/>
</g>
<!-- AssayMethod&#45;&gt;Instrument -->
<g id="edge14" class="edge">
<title>AssayMethod:instrumentID&#45;&gt;Instrument:instrumentID</title>
<path fill="none" stroke="#555555" d="M174.3343,-85.8867C165.0087,-83.6605 160.0944,-78.7103 147,-76.9944 105.8062,-71.5962 54.6912,-38.6915 44.3674,-65.0552"/>
<polygon fill="#555555" stroke="#555555" points="174.5588,-85.9111 184.0125,-91.4679 179.5294,-86.4527 184.5,-86.9944 184.5,-86.9944 184.5,-86.9944 179.5294,-86.4527 184.9875,-82.5208 174.5588,-85.9111 174.5588,-85.9111"/>
<polygon fill="none" stroke="#555555" points="44.3544,-65.1385 47.3792,-71.6846 42.5,-76.9944 39.4753,-70.4483 44.3544,-65.1385"/>
</g>
<!-- CovidPublicHealthData -->
<g id="node2" class="node">
<title>CovidPublicHealthData</title>
<polygon fill="#efebdd" stroke="transparent" points="824,-303.9944 824,-323.9944 971,-323.9944 971,-303.9944 824,-303.9944"/>
<text text-anchor="start" x="825.5463" y="-309.3944" font-family="Arial" font-size="14.00" fill="#000000">CovidPublicHealthData</text>
<polygon fill="#ffffff" stroke="transparent" points="824,-283.9944 824,-303.9944 900,-303.9944 900,-283.9944 824,-283.9944"/>
<text text-anchor="start" x="826" y="-290.3944" font-family="Arial" text-decoration="underline" font-size="14.00" fill="#444444">cphdID</text>
<polygon fill="#ffffff" stroke="transparent" points="900,-283.9944 900,-303.9944 971,-303.9944 971,-283.9944 900,-283.9944"/>
<text text-anchor="start" x="902" y="-289.3944" font-family="Arial" font-size="14.00" fill="#444444">character</text>
<polygon fill="#ffffff" stroke="transparent" points="824,-263.9944 824,-283.9944 900,-283.9944 900,-263.9944 824,-263.9944"/>
<text text-anchor="start" x="826" y="-269.3944" font-family="Arial" font-size="14.00" fill="#444444">reporterID</text>
<polygon fill="#ffffff" stroke="transparent" points="900,-263.9944 900,-283.9944 971,-283.9944 971,-263.9944 900,-263.9944"/>
<text text-anchor="start" x="902" y="-269.3944" font-family="Arial" font-size="14.00" fill="#444444">character</text>
<polygon fill="#ffffff" stroke="transparent" points="824,-243.9944 824,-263.9944 900,-263.9944 900,-243.9944 824,-243.9944"/>
<text text-anchor="start" x="826" y="-249.3944" font-family="Arial" font-size="14.00" fill="#444444">polygonID</text>
<polygon fill="#ffffff" stroke="transparent" points="900,-243.9944 900,-263.9944 971,-263.9944 971,-243.9944 900,-243.9944"/>
<text text-anchor="start" x="902" y="-249.3944" font-family="Arial" font-size="14.00" fill="#444444">character</text>
<polygon fill="none" stroke="#555555" points="822.5,-242.9944 822.5,-324.9944 971.5,-324.9944 971.5,-242.9944 822.5,-242.9944"/>
</g>
<!-- Polygon -->
<g id="node6" class="node">
<title>Polygon</title>
<polygon fill="#efebdd" stroke="transparent" points="201.5,-292.9944 201.5,-312.9944 330.5,-312.9944 330.5,-292.9944 201.5,-292.9944"/>
<text text-anchor="start" x="240.7132" y="-298.3944" font-family="Arial" font-size="14.00" fill="#000000">Polygon</text>
<polygon fill="#ffffff" stroke="transparent" points="201.5,-272.9944 201.5,-292.9944 268.5,-292.9944 268.5,-272.9944 201.5,-272.9944"/>
<text text-anchor="start" x="203.4916" y="-279.3944" font-family="Arial" text-decoration="underline" font-size="14.00" fill="#444444">polygonID</text>
<polygon fill="#ffffff" stroke="transparent" points="268.5,-272.9944 268.5,-292.9944 330.5,-292.9944 330.5,-272.9944 268.5,-272.9944"/>
<text text-anchor="start" x="270.3289" y="-278.3944" font-family="Arial" font-size="14.00" fill="#444444">character</text>
<polygon fill="none" stroke="#555555" points="200,-271.9944 200,-313.9944 331,-313.9944 331,-271.9944 200,-271.9944"/>
</g>
<!-- CovidPublicHealthData&#45;&gt;Polygon -->
<g id="edge16" class="edge">
<title>CovidPublicHealthData:polygonID&#45;&gt;Polygon:polygonID</title>
<path fill="none" stroke="#555555" d="M814.0413,-255.7338C793.5312,-264.1644 803.8863,-300.9022 777,-313.9944 738.5065,-332.7386 435.3291,-319.0337 384,-303.9944 357.8119,-296.3213 357.3391,-280.1317 331,-272.9944 294.2934,-263.0477 246.8086,-237.0186 236.5214,-261.1511"/>
<polygon fill="#555555" stroke="#555555" points="814.1491,-255.715 824.7743,-258.4272 819.0746,-254.8547 824,-253.9944 824,-253.9944 824,-253.9944 819.0746,-254.8547 823.2257,-249.5615 814.1491,-255.715 814.1491,-255.715"/>
<polygon fill="none" stroke="#555555" points="236.519,-261.1654 239.4525,-267.7529 234.5,-272.9944 231.5665,-266.4069 236.519,-261.1654"/>
</g>
<!-- Reporter -->
<g id="node7" class="node">
<title>Reporter</title>
<polygon fill="#efebdd" stroke="transparent" points="630,-283.9944 630,-303.9944 776,-303.9944 776,-283.9944 630,-283.9944"/>
<text text-anchor="start" x="675.7756" y="-289.3944" font-family="Arial" font-size="14.00" fill="#000000">Reporter</text>
<polygon fill="#ffffff" stroke="transparent" points="630,-263.9944 630,-283.9944 714,-283.9944 714,-263.9944 630,-263.9944"/>
<text text-anchor="start" x="632" y="-270.3944" font-family="Arial" text-decoration="underline" font-size="14.00" fill="#444444">reporterID</text>
<polygon fill="#ffffff" stroke="transparent" points="714,-263.9944 714,-283.9944 776,-283.9944 776,-263.9944 714,-263.9944"/>
<text text-anchor="start" x="715.8289" y="-269.3944" font-family="Arial" font-size="14.00" fill="#444444">character</text>
<polygon fill="#ffffff" stroke="transparent" points="630,-243.9944 630,-263.9944 714,-263.9944 714,-243.9944 630,-243.9944"/>
<text text-anchor="start" x="631.9404" y="-249.3944" font-family="Arial" font-size="14.00" fill="#444444">siteIDDefault</text>
<polygon fill="#ffffff" stroke="transparent" points="714,-243.9944 714,-263.9944 776,-263.9944 776,-243.9944 714,-243.9944"/>
<text text-anchor="start" x="715.8289" y="-249.3944" font-family="Arial" font-size="14.00" fill="#444444">character</text>
<polygon fill="#ffffff" stroke="transparent" points="630,-223.9944 630,-243.9944 714,-243.9944 714,-223.9944 630,-223.9944"/>
<text text-anchor="start" x="632" y="-229.3944" font-family="Arial" font-size="14.00" fill="#444444">labIDDefault</text>
<polygon fill="#ffffff" stroke="transparent" points="714,-223.9944 714,-243.9944 776,-243.9944 776,-223.9944 714,-223.9944"/>
<text text-anchor="start" x="715.8289" y="-229.3944" font-family="Arial" font-size="14.00" fill="#444444">character</text>
<polygon fill="none" stroke="#555555" points="629,-222.9944 629,-304.9944 777,-304.9944 777,-222.9944 629,-222.9944"/>
</g>
<!-- CovidPublicHealthData&#45;&gt;Reporter -->
<g id="edge15" class="edge">
<title>CovidPublicHealthData:reporterID&#45;&gt;Reporter:reporterID</title>
<path fill="none" stroke="#555555" d="M814.0468,-275.5839C798.965,-281.0286 797.2226,-298.9258 777,-304.9944 777,-304.9944 676.6637,-283.835 641.7811,-276.4788"/>
<polygon fill="#555555" stroke="#555555" points="814.1251,-275.5714 824.7097,-278.438 819.0626,-274.7829 824,-273.9944 824,-273.9944 824,-273.9944 819.0626,-274.7829 823.2903,-269.5507 814.1251,-275.5714 814.1251,-275.5714"/>
<polygon fill="none" stroke="#555555" points="641.7418,-276.4706 635.0455,-279.1464 630,-273.9944 636.6963,-271.3186 641.7418,-276.4706"/>
</g>
<!-- Lab -->
<g id="node4" class="node">
<title>Lab</title>
<polygon fill="#efebdd" stroke="transparent" points="385.5,-145.9944 385.5,-165.9944 592.5,-165.9944 592.5,-145.9944 385.5,-145.9944"/>
<text text-anchor="start" x="477.3261" y="-151.3944" font-family="Arial" font-size="14.00" fill="#000000">Lab</text>
<polygon fill="#ffffff" stroke="transparent" points="385.5,-125.9944 385.5,-145.9944 530.5,-145.9944 530.5,-125.9944 385.5,-125.9944"/>
<text text-anchor="start" x="387.5" y="-132.3944" font-family="Arial" text-decoration="underline" font-size="14.00" fill="#444444">labID</text>
<polygon fill="#ffffff" stroke="transparent" points="530.5,-125.9944 530.5,-145.9944 592.5,-145.9944 592.5,-125.9944 530.5,-125.9944"/>
<text text-anchor="start" x="532.3289" y="-131.3944" font-family="Arial" font-size="14.00" fill="#444444">character</text>
<polygon fill="#ffffff" stroke="transparent" points="385.5,-105.9944 385.5,-125.9944 530.5,-125.9944 530.5,-105.9944 385.5,-105.9944"/>
<text text-anchor="start" x="387.2069" y="-111.3944" font-family="Arial" font-size="14.00" fill="#444444">assayMethodIDDefault</text>
<polygon fill="#ffffff" stroke="transparent" points="530.5,-105.9944 530.5,-125.9944 592.5,-125.9944 592.5,-105.9944 530.5,-105.9944"/>
<text text-anchor="start" x="532.3289" y="-111.3944" font-family="Arial" font-size="14.00" fill="#444444">character</text>
<polygon fill="none" stroke="#555555" points="384,-104.9944 384,-166.9944 593,-166.9944 593,-104.9944 384,-104.9944"/>
</g>
<!-- Lab&#45;&gt;AssayMethod -->
<g id="edge13" class="edge">
<title>Lab:assayMethodIDDefault&#45;&gt;AssayMethod:assayMethodID</title>
<path fill="none" stroke="#555555" d="M375.549,-117.9844C365.5247,-122.6103 362.7138,-133.9969 348,-137.9944 277.8753,-157.046 235.8831,-189.3774 184.5,-137.9944 178.7155,-132.2098 174.9429,-122.3657 175.7163,-115.322"/>
<polygon fill="#555555" stroke="#555555" points="375.6942,-117.9555 386.3825,-120.407 380.5971,-116.9749 385.5,-115.9944 385.5,-115.9944 385.5,-115.9944 380.5971,-116.9749 384.6175,-111.5817 375.6942,-117.9555 375.6942,-117.9555"/>
<polygon fill="none" stroke="#555555" points="175.7916,-115.2506 177.3937,-108.2197 184.5,-106.9944 182.8979,-114.0253 175.7916,-115.2506"/>
</g>
<!-- Lookup -->
<g id="node5" class="node">
<title>Lookup</title>
<polygon fill="#efebdd" stroke="transparent" points="872,-470.9944 872,-490.9944 922,-490.9944 922,-470.9944 872,-470.9944"/>
<text text-anchor="start" x="874.0435" y="-476.3944" font-family="Arial" font-size="14.00" fill="#000000">Lookup</text>
<polygon fill="none" stroke="#555555" points="871,-469.9944 871,-491.9944 923,-491.9944 923,-469.9944 871,-469.9944"/>
</g>
<!-- Reporter&#45;&gt;Lab -->
<g id="edge12" class="edge">
<title>Reporter:labIDDefault&#45;&gt;Lab:labID</title>
<path fill="none" stroke="#555555" d="M620.1306,-231.629C574.5763,-220.0135 387.3895,-169.4712 385.5,-166.9944 380.7342,-160.747 376.9231,-151.5425 377.0836,-144.786"/>
<polygon fill="#555555" stroke="#555555" points="620.2754,-231.6636 628.9512,-238.3704 625.1377,-232.829 630,-233.9944 630,-233.9944 630,-233.9944 625.1377,-232.829 631.0488,-229.6183 620.2754,-231.6636 620.2754,-231.6636"/>
<polygon fill="none" stroke="#555555" points="377.2017,-144.6626 378.4614,-137.5624 385.5,-135.9944 384.2403,-143.0946 377.2017,-144.6626"/>
</g>
<!-- Site -->
<g id="node9" class="node">
<title>Site</title>
<polygon fill="#efebdd" stroke="transparent" points="424.5,-273.9944 424.5,-293.9944 553.5,-293.9944 553.5,-273.9944 424.5,-273.9944"/>
<text text-anchor="start" x="476.9418" y="-279.3944" font-family="Arial" font-size="14.00" fill="#000000">Site</text>
<polygon fill="#ffffff" stroke="transparent" points="424.5,-253.9944 424.5,-273.9944 491.5,-273.9944 491.5,-253.9944 424.5,-253.9944"/>
<text text-anchor="start" x="426.5" y="-260.3944" font-family="Arial" text-decoration="underline" font-size="14.00" fill="#444444">siteID</text>
<polygon fill="#ffffff" stroke="transparent" points="491.5,-253.9944 491.5,-273.9944 553.5,-273.9944 553.5,-253.9944 491.5,-253.9944"/>
<text text-anchor="start" x="493.3289" y="-259.3944" font-family="Arial" font-size="14.00" fill="#444444">character</text>
<polygon fill="#ffffff" stroke="transparent" points="424.5,-233.9944 424.5,-253.9944 491.5,-253.9944 491.5,-233.9944 424.5,-233.9944"/>
<text text-anchor="start" x="426.4916" y="-239.3944" font-family="Arial" font-size="14.00" fill="#444444">polygonID</text>
<polygon fill="#ffffff" stroke="transparent" points="491.5,-233.9944 491.5,-253.9944 553.5,-253.9944 553.5,-233.9944 491.5,-233.9944"/>
<text text-anchor="start" x="493.3289" y="-239.3944" font-family="Arial" font-size="14.00" fill="#444444">character</text>
<polygon fill="none" stroke="#555555" points="423,-232.9944 423,-294.9944 554,-294.9944 554,-232.9944 423,-232.9944"/>
</g>
<!-- Reporter&#45;&gt;Site -->
<g id="edge11" class="edge">
<title>Reporter:siteIDDefault&#45;&gt;Site:siteID</title>
<path fill="none" stroke="#555555" d="M619.7727,-254.8484C591.1896,-259.955 587.5774,-286.5149 554,-294.9944 554,-294.9944 468.5098,-274.5295 436.4509,-266.8552"/>
<polygon fill="#555555" stroke="#555555" points="620.0347,-254.8266 630.3745,-258.4787 625.0173,-254.4105 630,-253.9944 630,-253.9944 630,-253.9944 625.0173,-254.4105 629.6255,-249.51 620.0347,-254.8266 620.0347,-254.8266"/>
<polygon fill="none" stroke="#555555" points="436.1703,-266.7881 429.4039,-269.2813 424.5,-263.9944 431.2664,-261.5011 436.1703,-266.7881"/>
</g>
<!-- Sample -->
<g id="node8" class="node">
<title>Sample</title>
<polygon fill="#efebdd" stroke="transparent" points="641,-183.9944 641,-203.9944 766,-203.9944 766,-183.9944 641,-183.9944"/>
<text text-anchor="start" x="679.7742" y="-189.3944" font-family="Arial" font-size="14.00" fill="#000000">Sample</text>
<polygon fill="#ffffff" stroke="transparent" points="641,-163.9944 641,-183.9944 704,-183.9944 704,-163.9944 641,-163.9944"/>
<text text-anchor="start" x="642.9439" y="-170.3944" font-family="Arial" text-decoration="underline" font-size="14.00" fill="#444444">sampleID</text>
<polygon fill="#ffffff" stroke="transparent" points="704,-163.9944 704,-183.9944 766,-183.9944 766,-163.9944 704,-163.9944"/>
<text text-anchor="start" x="705.8289" y="-169.3944" font-family="Arial" font-size="14.00" fill="#444444">character</text>
<polygon fill="#ffffff" stroke="transparent" points="641,-143.9944 641,-163.9944 704,-163.9944 704,-143.9944 641,-143.9944"/>
<text text-anchor="start" x="643" y="-149.3944" font-family="Arial" font-size="14.00" fill="#444444">siteID</text>
<polygon fill="#ffffff" stroke="transparent" points="704,-143.9944 704,-163.9944 766,-163.9944 766,-143.9944 704,-143.9944"/>
<text text-anchor="start" x="705.8289" y="-149.3944" font-family="Arial" font-size="14.00" fill="#444444">character</text>
<polygon fill="none" stroke="#555555" points="639.5,-142.9944 639.5,-204.9944 766.5,-204.9944 766.5,-142.9944 639.5,-142.9944"/>
</g>
<!-- Sample&#45;&gt;Site -->
<g id="edge1" class="edge">
<title>Sample:siteID&#45;&gt;Site:siteID</title>
<path fill="none" stroke="#555555" d="M630.7144,-154.7847C572.2404,-164.4919 615.0366,-260.9349 554,-294.9944 554,-294.9944 468.5098,-274.5295 436.4509,-266.8552"/>
<polygon fill="#555555" stroke="#555555" points="631.0294,-154.7606 641.3448,-158.4811 636.0147,-154.3775 641,-153.9944 641,-153.9944 641,-153.9944 636.0147,-154.3775 640.6552,-149.5076 631.0294,-154.7606 631.0294,-154.7606"/>
<polygon fill="none" stroke="#555555" points="436.1703,-266.7881 429.4039,-269.2813 424.5,-263.9944 431.2664,-261.5011 436.1703,-266.7881"/>
</g>
<!-- Site&#45;&gt;Polygon -->
<g id="edge7" class="edge">
<title>Site:polygonID&#45;&gt;Polygon:polygonID</title>
<path fill="none" stroke="#555555" d="M414.4093,-243.7479C335.6248,-240.0185 245.0225,-196.1221 235.3485,-260.6736"/>
<polygon fill="#555555" stroke="#555555" points="414.503,-243.7501 424.3901,-248.493 419.5015,-243.8722 424.5,-243.9944 424.5,-243.9944 424.5,-243.9944 419.5015,-243.8722 424.6099,-239.4957 414.503,-243.7501 414.503,-243.7501"/>
<polygon fill="none" stroke="#555555" points="235.3245,-261.0227 238.9028,-267.2834 234.5,-272.9944 230.9217,-266.7337 235.3245,-261.0227"/>
</g>
<!-- SiteMeasure -->
<g id="node10" class="node">
<title>SiteMeasure</title>
<polygon fill="#efebdd" stroke="transparent" points="814,-423.9944 814,-443.9944 980,-443.9944 980,-423.9944 814,-423.9944"/>
<text text-anchor="start" x="857.716" y="-429.3944" font-family="Arial" font-size="14.00" fill="#000000">SiteMeasure</text>
<polygon fill="#ffffff" stroke="transparent" points="814,-403.9944 814,-423.9944 918,-423.9944 918,-403.9944 814,-403.9944"/>
<text text-anchor="start" x="815.8261" y="-410.3944" font-family="Arial" text-decoration="underline" font-size="14.00" fill="#444444">uSiteMeasureID</text>
<polygon fill="#ffffff" stroke="transparent" points="918,-403.9944 918,-423.9944 980,-423.9944 980,-403.9944 918,-403.9944"/>
<text text-anchor="start" x="919.8289" y="-409.3944" font-family="Arial" font-size="14.00" fill="#444444">character</text>
<polygon fill="#ffffff" stroke="transparent" points="814,-383.9944 814,-403.9944 918,-403.9944 918,-383.9944 814,-383.9944"/>
<text text-anchor="start" x="816" y="-389.3944" font-family="Arial" font-size="14.00" fill="#444444">siteID</text>
<polygon fill="#ffffff" stroke="transparent" points="918,-383.9944 918,-403.9944 980,-403.9944 980,-383.9944 918,-383.9944"/>
<text text-anchor="start" x="919.8289" y="-389.3944" font-family="Arial" font-size="14.00" fill="#444444">character</text>
<polygon fill="#ffffff" stroke="transparent" points="814,-363.9944 814,-383.9944 918,-383.9944 918,-363.9944 814,-363.9944"/>
<text text-anchor="start" x="816" y="-369.3944" font-family="Arial" font-size="14.00" fill="#444444">instrumentID</text>
<polygon fill="#ffffff" stroke="transparent" points="918,-363.9944 918,-383.9944 980,-383.9944 980,-363.9944 918,-363.9944"/>
<text text-anchor="start" x="919.8289" y="-369.3944" font-family="Arial" font-size="14.00" fill="#444444">character</text>
<polygon fill="#ffffff" stroke="transparent" points="814,-343.9944 814,-363.9944 918,-363.9944 918,-343.9944 814,-343.9944"/>
<text text-anchor="start" x="816" y="-349.3944" font-family="Arial" font-size="14.00" fill="#444444">reporterID</text>
<polygon fill="#ffffff" stroke="transparent" points="918,-343.9944 918,-363.9944 980,-363.9944 980,-343.9944 918,-343.9944"/>
<text text-anchor="start" x="919.8289" y="-349.3944" font-family="Arial" font-size="14.00" fill="#444444">character</text>
<polygon fill="none" stroke="#555555" points="813,-342.9944 813,-444.9944 981,-444.9944 981,-342.9944 813,-342.9944"/>
</g>
<!-- SiteMeasure&#45;&gt;Instrument -->
<g id="edge9" class="edge">
<title>SiteMeasure:instrumentID&#45;&gt;Instrument:instrumentID</title>
<path fill="none" stroke="#555555" d="M803.7572,-374.0567C529.1075,-377.3971 385.7721,-513.0613 183,-322.9944 102.3814,-247.4271 230.5995,-149.2502 147,-76.9944 115.293,-49.5897 55.7208,-33.8257 44.388,-65.1313"/>
<polygon fill="#555555" stroke="#555555" points="804.0002,-374.0553 814.0274,-378.4943 809.0001,-374.0248 814,-373.9944 814,-373.9944 814,-373.9944 809.0001,-374.0248 813.9726,-369.4944 804.0002,-374.0553 804.0002,-374.0553"/>
<polygon fill="none" stroke="#555555" points="44.3861,-65.1435 47.3933,-71.6976 42.5,-76.9944 39.4928,-70.4402 44.3861,-65.1435"/>
</g>
<!-- SiteMeasure&#45;&gt;Reporter -->
<g id="edge10" class="edge">
<title>SiteMeasure:reporterID&#45;&gt;Reporter:reporterID</title>
<path fill="none" stroke="#555555" d="M803.7699,-354.0786C725.4445,-355.3358 679.4545,-369.3424 630,-304.9944 625.2118,-298.7641 621.4038,-289.5573 621.5711,-282.7955"/>
<polygon fill="#555555" stroke="#555555" points="804.0003,-354.0768 814.0371,-358.4942 809.0002,-354.0356 814,-353.9944 814,-353.9944 814,-353.9944 809.0002,-354.0356 813.9629,-349.4945 804.0003,-354.0768 804.0003,-354.0768"/>
<polygon fill="none" stroke="#555555" points="621.7,-282.661 622.9611,-275.561 630,-273.9944 628.7389,-281.0943 621.7,-282.661"/>
</g>
<!-- SiteMeasure&#45;&gt;Site -->
<g id="edge8" class="edge">
<title>SiteMeasure:siteID&#45;&gt;Site:siteID</title>
<path fill="none" stroke="#555555" d="M803.8795,-394.0385C631.5258,-395.5276 532.0578,-433.3102 424.5,-294.9944 419.6104,-288.7065 415.7695,-279.3279 416.0612,-272.5338"/>
<polygon fill="#555555" stroke="#555555" points="804.0001,-394.0381 814.0197,-398.4943 809,-394.0162 814,-393.9944 814,-393.9944 814,-393.9944 809,-394.0162 813.9803,-389.4944 804.0001,-394.0381 804.0001,-394.0381"/>
<polygon fill="none" stroke="#555555" points="416.0651,-272.5298 417.4374,-265.4504 424.5,-263.9944 423.1277,-271.0737 416.0651,-272.5298"/>
</g>
<!-- WWMeasure -->
<g id="node11" class="node">
<title>WWMeasure</title>
<polygon fill="#efebdd" stroke="transparent" points="815,-164.9944 815,-184.9944 980,-184.9944 980,-164.9944 815,-164.9944"/>
<text text-anchor="start" x="857.0596" y="-170.3944" font-family="Arial" font-size="14.00" fill="#000000">WWMeasure</text>
<polygon fill="#ffffff" stroke="transparent" points="815,-144.9944 815,-164.9944 918,-164.9944 918,-144.9944 815,-144.9944"/>
<text text-anchor="start" x="816.7237" y="-151.3944" font-family="Arial" text-decoration="underline" font-size="14.00" fill="#444444">uWwMeasureID</text>
<polygon fill="#ffffff" stroke="transparent" points="918,-144.9944 918,-164.9944 980,-164.9944 980,-144.9944 918,-144.9944"/>
<text text-anchor="start" x="919.8289" y="-150.3944" font-family="Arial" font-size="14.00" fill="#444444">character</text>
<polygon fill="#ffffff" stroke="transparent" points="815,-124.9944 815,-144.9944 918,-144.9944 918,-124.9944 815,-124.9944"/>
<text text-anchor="start" x="817" y="-130.3944" font-family="Arial" font-size="14.00" fill="#444444">sampleID</text>
<polygon fill="#ffffff" stroke="transparent" points="918,-124.9944 918,-144.9944 980,-144.9944 980,-124.9944 918,-124.9944"/>
<text text-anchor="start" x="919.8289" y="-130.3944" font-family="Arial" font-size="14.00" fill="#444444">character</text>
<polygon fill="#ffffff" stroke="transparent" points="815,-104.9944 815,-124.9944 918,-124.9944 918,-104.9944 815,-104.9944"/>
<text text-anchor="start" x="817" y="-110.3944" font-family="Arial" font-size="14.00" fill="#444444">labID</text>
<polygon fill="#ffffff" stroke="transparent" points="918,-104.9944 918,-124.9944 980,-124.9944 980,-104.9944 918,-104.9944"/>
<text text-anchor="start" x="919.8289" y="-110.3944" font-family="Arial" font-size="14.00" fill="#444444">character</text>
<polygon fill="#ffffff" stroke="transparent" points="815,-84.9944 815,-104.9944 918,-104.9944 918,-84.9944 815,-84.9944"/>
<text text-anchor="start" x="817" y="-90.3944" font-family="Arial" font-size="14.00" fill="#444444">assayID</text>
<polygon fill="#ffffff" stroke="transparent" points="918,-84.9944 918,-104.9944 980,-104.9944 980,-84.9944 918,-84.9944"/>
<text text-anchor="start" x="919.8289" y="-90.3944" font-family="Arial" font-size="14.00" fill="#444444">character</text>
<polygon fill="#ffffff" stroke="transparent" points="815,-64.9944 815,-84.9944 918,-84.9944 918,-64.9944 815,-64.9944"/>
<text text-anchor="start" x="817" y="-70.3944" font-family="Arial" font-size="14.00" fill="#444444">instrumentID</text>
<polygon fill="#ffffff" stroke="transparent" points="918,-64.9944 918,-84.9944 980,-84.9944 980,-64.9944 918,-64.9944"/>
<text text-anchor="start" x="919.8289" y="-70.3944" font-family="Arial" font-size="14.00" fill="#444444">character</text>
<polygon fill="#ffffff" stroke="transparent" points="815,-44.9944 815,-64.9944 918,-64.9944 918,-44.9944 815,-44.9944"/>
<text text-anchor="start" x="817" y="-50.3944" font-family="Arial" font-size="14.00" fill="#444444">reporterID</text>
<polygon fill="#ffffff" stroke="transparent" points="918,-44.9944 918,-64.9944 980,-64.9944 980,-44.9944 918,-44.9944"/>
<text text-anchor="start" x="919.8289" y="-50.3944" font-family="Arial" font-size="14.00" fill="#444444">character</text>
<polygon fill="none" stroke="#555555" points="813.5,-43.9944 813.5,-185.9944 980.5,-185.9944 980.5,-43.9944 813.5,-43.9944"/>
</g>
<!-- WWMeasure&#45;&gt;AssayMethod -->
<g id="edge4" class="edge">
<title>WWMeasure:assayID&#45;&gt;AssayMethod:assayID</title>
<path fill="none" stroke="#555555" d="M804.7566,-94.9866C621.6591,-94.7079 571.8837,-87.0743 384,-95.9944 376.3252,-96.3587 368.3796,-96.8494 360.4038,-97.4219"/>
<polygon fill="#555555" stroke="#555555" points="805,-94.9867 814.9965,-99.4944 810,-94.9905 815,-94.9944 815,-94.9944 815,-94.9944 810,-94.9905 815.0035,-90.4944 805,-94.9867 805,-94.9867"/>
<polygon fill="none" stroke="#555555" points="360.2724,-97.4318 354.5953,-101.8782 348.3074,-98.3479 353.9846,-93.9015 360.2724,-97.4318"/>
</g>
<!-- WWMeasure&#45;&gt;Instrument -->
<g id="edge5" class="edge">
<title>WWMeasure:instrumentID&#45;&gt;Instrument:instrumentID</title>
<path fill="none" stroke="#555555" d="M804.7331,-74.8133C625.3409,-68.8125 71.606,83.375 43.6023,-64.7945"/>
<polygon fill="#555555" stroke="#555555" points="805.0016,-74.8179 814.9206,-79.4937 810.0008,-74.9061 815,-74.9944 815,-74.9944 815,-74.9944 810.0008,-74.9061 815.0794,-70.4951 805.0016,-74.8179 805.0016,-74.8179"/>
<polygon fill="none" stroke="#555555" points="43.5799,-65.043 47.0237,-71.3787 42.5,-76.9944 39.0562,-70.6587 43.5799,-65.043"/>
</g>
<!-- WWMeasure&#45;&gt;Lab -->
<g id="edge3" class="edge">
<title>WWMeasure:labID&#45;&gt;Lab:labID</title>
<path fill="none" stroke="#555555" d="M804.5902,-114.9162C729.485,-113.7937 701.5537,-101.4308 629,-133.9944 609.1979,-142.8819 613.2286,-159.1258 593,-166.9944 593,-166.9944 441.8385,-144.4112 397.553,-137.795"/>
<polygon fill="#555555" stroke="#555555" points="805.0003,-114.9192 814.9662,-119.4942 810.0001,-114.9568 815,-114.9944 815,-114.9944 815,-114.9944 810.0001,-114.9568 815.0338,-110.4945 805.0003,-114.9192 805.0003,-114.9192"/>
<polygon fill="none" stroke="#555555" points="397.3683,-137.7675 390.8431,-140.837 385.5,-135.9944 392.0252,-132.9248 397.3683,-137.7675"/>
</g>
<!-- WWMeasure&#45;&gt;Reporter -->
<g id="edge6" class="edge">
<title>WWMeasure:reporterID&#45;&gt;Reporter:reporterID</title>
<path fill="none" stroke="#555555" d="M805.2885,-57.7029C766.4265,-82.5534 816.7861,-270.7988 777,-304.9944 777,-304.9944 676.6637,-283.835 641.7811,-276.4788"/>
<polygon fill="#555555" stroke="#555555" points="805.3676,-57.6809 816.2089,-59.3289 810.1838,-56.3376 815,-54.9944 815,-54.9944 815,-54.9944 810.1838,-56.3376 813.7911,-50.6598 805.3676,-57.6809 805.3676,-57.6809"/>
<polygon fill="none" stroke="#555555" points="641.7418,-276.4706 635.0455,-279.1464 630,-273.9944 636.6963,-271.3186 641.7418,-276.4706"/>
</g>
<!-- WWMeasure&#45;&gt;Sample -->
<g id="edge2" class="edge">
<title>WWMeasure:sampleID&#45;&gt;Sample:sampleID</title>
<path fill="none" stroke="#555555" d="M804.9135,-136.6419C781.3494,-145.668 796.4928,-189.2866 766.5,-204.9944 766.5,-204.9944 684.4451,-184.7258 653.0335,-176.9668"/>
<polygon fill="#555555" stroke="#555555" points="805.1308,-136.6065 815.7255,-139.4355 810.0654,-135.8004 815,-134.9944 815,-134.9944 815,-134.9944 810.0654,-135.8004 814.2745,-130.5532 805.1308,-136.6065 805.1308,-136.6065"/>
<polygon fill="none" stroke="#555555" points="652.6499,-176.8721 645.8657,-179.3165 641,-173.9944 647.7842,-171.5499 652.6499,-176.8721"/>
</g>
</g>
</svg>

