<svg xmlns="http://www.w3.org/2000/svg" xmlns:xlink="http://www.w3.org/1999/xlink" xmlns:lucid="lucid" width="1065" height="1221"><g transform="translate(-471 0)" lucid:page-tab-id="0_0"><path d="M917.85 516H928c6.63 0 12 5.37 12 12v8c0 6.63 5.37 12 12 12h56.7" stroke="#333" fill="none"/><path d="M907.85 526v-20M897.85 516h20M917.85 526v-20M1028.47 558l-20-10 20-10M1028.47 548h-20M1008.47 538v20" stroke="#333" fill="#fff"/><path d="M559.5 253.25h-18c-6.63 0-12 5.37-12 12V600c0 6.63 5.37 12 12 12h8" stroke="#333" fill="none"/><path d="M579.28 263.25l-20-10 20-10M579.28 253.25h-20M559.28 243.25v20M569.28 622l-20-10 20-10M569.28 612h-20M549.28 602v20" stroke="#333" fill="#fff"/><path d="M570 465c0-2.76 2.24-5 5-5h317.35c2.76 0 5 2.24 5 5v638c0 2.76-2.24 5-5 5H575c-2.76 0-5-2.24-5-5z" fill="#fff"/><path d="M570 460h327.35v40H570z" fill="#ccc"/><path d="M570 465c0-2.76 2.24-5 5-5h317.35c2.76 0 5 2.24 5 5v638c0 2.76-2.24 5-5 5H575c-2.76 0-5-2.24-5-5zM570 500h327.35M773.02 500v608" stroke="#333" fill="none"/><use xlink:href="#a" transform="matrix(1,0,0,1,580,460) translate(14 25.15555555555556)"/><use xlink:href="#b" transform="matrix(1,0,0,1,575,502.5) translate(0 17.1)"/><use xlink:href="#c" transform="matrix(1,0,0,1,778.0150854109925,502.5) translate(0 17.1)"/><use xlink:href="#d" transform="matrix(1,0,0,1,575,534.5) translate(0 17.1)"/><use xlink:href="#e" transform="matrix(1,0,0,1,778.0150854109925,534.5) translate(0 17.1)"/><use xlink:href="#f" transform="matrix(1,0,0,1,575,566.5) translate(0 17.1)"/><use xlink:href="#e" transform="matrix(1,0,0,1,778.0150854109925,566.5) translate(0 17.1)"/><use xlink:href="#g" transform="matrix(1,0,0,1,575,598.5) translate(0 17.1)"/><use xlink:href="#e" transform="matrix(1,0,0,1,778.0150854109925,598.5) translate(0 17.1)"/><use xlink:href="#h" transform="matrix(1,0,0,1,575,630.5) translate(0 17.1)"/><use xlink:href="#i" transform="matrix(1,0,0,1,778.0150854109925,630.5) translate(0 17.1)"/><use xlink:href="#j" transform="matrix(1,0,0,1,575,662.5) translate(0 17.1)"/><use xlink:href="#e" transform="matrix(1,0,0,1,778.0150854109925,662.5) translate(0 17.1)"/><use xlink:href="#k" transform="matrix(1,0,0,1,575,694.5) translate(0 17.1)"/><use xlink:href="#i" transform="matrix(1,0,0,1,778.0150854109925,694.5) translate(0 17.1)"/><use xlink:href="#l" transform="matrix(1,0,0,1,575,726.5) translate(0 17.1)"/><use xlink:href="#e" transform="matrix(1,0,0,1,778.0150854109925,726.5) translate(0 17.1)"/><use xlink:href="#m" transform="matrix(1,0,0,1,575,758.5) translate(0 17.1)"/><use xlink:href="#i" transform="matrix(1,0,0,1,778.0150854109925,758.5) translate(0 17.1)"/><use xlink:href="#n" transform="matrix(1,0,0,1,575,790.5) translate(0 17.1)"/><use xlink:href="#e" transform="matrix(1,0,0,1,778.0150854109925,790.5) translate(0 17.1)"/><use xlink:href="#o" transform="matrix(1,0,0,1,575,822.5) translate(0 17.1)"/><use xlink:href="#i" transform="matrix(1,0,0,1,778.0150854109925,822.5) translate(0 17.1)"/><use xlink:href="#p" transform="matrix(1,0,0,1,575,854.5) translate(0 17.1)"/><use xlink:href="#q" transform="matrix(1,0,0,1,778.0150854109925,854.5) translate(0 17.1)"/><use xlink:href="#r" transform="matrix(1,0,0,1,575,886.5) translate(0 17.1)"/><use xlink:href="#q" transform="matrix(1,0,0,1,778.0150854109925,886.5) translate(0 17.1)"/><use xlink:href="#s" transform="matrix(1,0,0,1,575,918.5) translate(0 17.1)"/><use xlink:href="#q" transform="matrix(1,0,0,1,778.0150854109925,918.5) translate(0 17.1)"/><use xlink:href="#t" transform="matrix(1,0,0,1,575,950.5) translate(0 17.1)"/><use xlink:href="#e" transform="matrix(1,0,0,1,778.0150854109925,950.5) translate(0 17.1)"/><use xlink:href="#u" transform="matrix(1,0,0,1,575,982.5) translate(0 17.1)"/><use xlink:href="#v" transform="matrix(1,0,0,1,778.0150854109925,982.5) translate(0 17.1)"/><use xlink:href="#w" transform="matrix(1,0,0,1,575,1014.5) translate(0 17.1)"/><use xlink:href="#x" transform="matrix(1,0,0,1,778.0150854109925,1014.5) translate(0 17.1)"/><use xlink:href="#y" transform="matrix(1,0,0,1,575,1046.5) translate(0 17.1)"/><use xlink:href="#z" transform="matrix(1,0,0,1,778.0150854109925,1046.5) translate(0 17.1)"/><use xlink:href="#A" transform="matrix(1,0,0,1,575,1078.5) translate(0 17.1)"/><use xlink:href="#e" transform="matrix(1,0,0,1,778.0150854109925,1078.5) translate(0 17.1)"/><path d="M1029.2 433c0-2.76 2.23-5 5-5h366.32c2.76 0 5 2.24 5 5v178c0 2.76-2.24 5-5 5H1034.2c-2.77 0-5-2.24-5-5z" fill="#fff"/><path d="M1029.2 428h376.32v40H1029.2z" fill="#ccc"/><path d="M1029.2 433c0-2.76 2.23-5 5-5h366.32c2.76 0 5 2.24 5 5v178c0 2.76-2.24 5-5 5H1034.2c-2.77 0-5-2.24-5-5zM1029.2 468h376.32M1221.7 468v148" stroke="#333" fill="none"/><use xlink:href="#B" transform="matrix(1,0,0,1,1039.1918090183208,428) translate(14 25.15555555555556)"/><use xlink:href="#C" transform="matrix(1,0,0,1,1034.1918090183208,470.5) translate(0 17.1)"/><use xlink:href="#e" transform="matrix(1,0,0,1,1226.6918090183208,470.5) translate(0 17.1)"/><use xlink:href="#D" transform="matrix(1,0,0,1,1034.1918090183208,502.5) translate(0 17.1)"/><use xlink:href="#E" transform="matrix(1,0,0,1,1226.6918090183208,502.5) translate(0 17.1)"/><use xlink:href="#F" transform="matrix(1,0,0,1,1034.1918090183208,534.5) translate(0 17.1)"/><use xlink:href="#e" transform="matrix(1,0,0,1,1226.6918090183208,534.5) translate(0 17.1)"/><use xlink:href="#G" transform="matrix(1,0,0,1,1034.1918090183208,566.5) translate(0 17.1)"/><use xlink:href="#E" transform="matrix(1,0,0,1,1226.6918090183208,566.5) translate(0 17.1)"/><use xlink:href="#H" transform="matrix(1,0,0,1,1034.1918090183208,598.5) translate(0 14.4)"/><use xlink:href="#I" transform="matrix(1,0,0,1,1226.6918090183208,598.5) translate(0 14.4)"/><path d="M1029.2 199.5c0-2.76 2.23-5 5-5h366.32c2.76 0 5 2.24 5 5v158c0 2.76-2.24 5-5 5H1034.2c-2.77 0-5-2.24-5-5z" fill="#fff"/><path d="M1029.2 194.5h376.32v40H1029.2z" fill="#ccc"/><path d="M1029.2 199.5c0-2.76 2.23-5 5-5h366.32c2.76 0 5 2.24 5 5v158c0 2.76-2.24 5-5 5H1034.2c-2.77 0-5-2.24-5-5zM1029.2 234.5h376.32M1207.7 234.5v128" stroke="#333" fill="none"/><use xlink:href="#J" transform="matrix(1,0,0,1,1039.1918090183208,194.50000000009103) translate(14 25.15555555555556)"/><use xlink:href="#K" transform="matrix(1,0,0,1,1034.1918090183208,237.00000000009103) translate(0 17.1)"/><use xlink:href="#c" transform="matrix(1,0,0,1,1212.6918090183208,237.00000000009103) translate(0 17.1)"/><use xlink:href="#L" transform="matrix(1,0,0,1,1034.1918090183208,269.00000000009106) translate(0 17.1)"/><use xlink:href="#e" transform="matrix(1,0,0,1,1212.6918090183208,269.00000000009106) translate(0 17.1)"/><use xlink:href="#M" transform="matrix(1,0,0,1,1034.1918090183208,301.00000000009106) translate(0 17.1)"/><use xlink:href="#e" transform="matrix(1,0,0,1,1212.6918090183208,301.00000000009106) translate(0 17.1)"/><use xlink:href="#N" transform="matrix(1,0,0,1,1034.1918090183208,333.00000000009106) translate(0 17.1)"/><use xlink:href="#e" transform="matrix(1,0,0,1,1212.6918090183208,333.00000000009106) translate(0 17.1)"/><path d="M580 202.25c0-2.76 2.24-5 5-5h307.35c2.76 0 5 2.24 5 5v222c0 2.76-2.24 5-5 5H585c-2.76 0-5-2.24-5-5z" fill="#fff"/><path d="M580 197.25h317.35v40H580z" fill="#ccc"/><path d="M580 202.25c0-2.76 2.24-5 5-5h307.35c2.76 0 5 2.24 5 5v222c0 2.76-2.24 5-5 5H585c-2.76 0-5-2.24-5-5zM580 237.25h317.35M758.5 237.25v192" stroke="#333" fill="none"/><use xlink:href="#O" transform="matrix(1,0,0,1,590,197.25000000009095) translate(0 23.6)"/><use xlink:href="#P" transform="matrix(1,0,0,1,585,239.75000000009095) translate(0 17.1)"/><use xlink:href="#c" transform="matrix(1,0,0,1,763.5,239.75000000009095) translate(0 17.1)"/><use xlink:href="#Q" transform="matrix(1,0,0,1,585,271.75000000009095) translate(0 17.1)"/><use xlink:href="#c" transform="matrix(1,0,0,1,763.5,271.75000000009095) translate(0 17.1)"/><use xlink:href="#R" transform="matrix(1,0,0,1,585,303.75000000009095) translate(0 17.1)"/><use xlink:href="#c" transform="matrix(1,0,0,1,763.5,303.75000000009095) translate(0 17.1)"/><use xlink:href="#S" transform="matrix(1,0,0,1,585,335.75000000009095) translate(0 17.1)"/><use xlink:href="#T" transform="matrix(1,0,0,1,763.5,335.75000000009095) translate(0 17.1)"/><use xlink:href="#w" transform="matrix(1,0,0,1,585,367.75000000009095) translate(0 17.1)"/><use xlink:href="#x" transform="matrix(1,0,0,1,763.5,367.75000000009095) translate(0 17.1)"/><use xlink:href="#U" transform="matrix(1,0,0,1,585,399.75000000009095) translate(0 17.1)"/><use xlink:href="#V" transform="matrix(1,0,0,1,763.5,399.75000000009095) translate(0 17.1)"/><path d="M453.65 77c0-4.42 3.58-8 8-8h836.75c4.4 0 8 3.58 8 8v25.16c0 4.4-3.6 8-8 8H461.65c-4.42 0-8-3.6-8-8z" stroke="#000" stroke-opacity="0" stroke-width="2" fill="#fff" fill-opacity="0"/><use xlink:href="#W" transform="matrix(1,0,0,1,457.6465527853429,72.99999999994924) translate(94.13530864197531 25.782777777777778)"/><use xlink:href="#X" transform="matrix(1,0,0,1,457.6465527853429,72.99999999994924) translate(256.8587654320988 25.782777777777778)"/><use xlink:href="#Y" transform="matrix(1,0,0,1,457.6465527853429,72.99999999994924) translate(408.65629629629626 25.782777777777778)"/><use xlink:href="#Z" transform="matrix(1,0,0,1,457.6465527853429,72.99999999994924) translate(488.5612345679012 25.782777777777778)"/><use xlink:href="#aa" transform="matrix(1,0,0,1,457.6465527853429,72.99999999994924) translate(652.7414814814815 25.782777777777778)"/><path d="M576.13 108.8H1190M576.16 108.8h-1.03M1189.98 108.8h1.02" stroke="#a9afb8" stroke-width="2" fill="none"/><path d="M453.65 118.16c0-4.42 3.58-8 8-8h837.7c4.42 0 8 3.58 8 8V121c0 4.42-3.58 8-8 8h-837.7c-4.42 0-8-3.58-8-8z" stroke="#000" stroke-opacity="0" stroke-width="2" fill="#fff" fill-opacity="0"/><use xlink:href="#ab" transform="matrix(1,0,0,1,457.6465527853434,114.15522395684805) translate(330.92059670781896 14.917037037037037)"/><use xlink:href="#ac" transform="matrix(1,0,0,1,457.6465527853434,114.15522395684805) translate(383.60783950617287 14.917037037037037)"/><use xlink:href="#ad" transform="matrix(1,0,0,1,457.6465527853434,114.15522395684805) translate(396.05732510288067 14.917037037037037)"/><use xlink:href="#ae" transform="matrix(1,0,0,1,457.6465527853434,114.15522395684805) translate(470.71174897119346 14.917037037037037)"/><use xlink:href="#af" transform="matrix(1,0,0,1,457.6465527853434,114.15522395684805) translate(487.707633744856 14.917037037037037)"/><path d="M1029.2 679c0-2.76 2.23-5 5-5h366.32c2.76 0 5 2.24 5 5v210c0 2.76-2.24 5-5 5H1034.2c-2.77 0-5-2.24-5-5z" fill="#fff"/><path d="M1029.2 674h376.32v40H1029.2z" fill="#ccc"/><path d="M1029.2 679c0-2.76 2.23-5 5-5h366.32c2.76 0 5 2.24 5 5v210c0 2.76-2.24 5-5 5H1034.2c-2.77 0-5-2.24-5-5zM1029.2 714h376.32M1303.18 714v180" stroke="#333" fill="none"/><use xlink:href="#ag" transform="matrix(1,0,0,1,1039.1918090183208,674) translate(14 25.15555555555556)"/><use xlink:href="#ah" transform="matrix(1,0,0,1,1034.1918090183208,716.5) translate(0 17.1)"/><use xlink:href="#c" transform="matrix(1,0,0,1,1308.1767236073283,716.5) translate(0 17.1)"/><use xlink:href="#ai" transform="matrix(1,0,0,1,1034.1918090183208,748.5) translate(0 17.1)"/><use xlink:href="#E" transform="matrix(1,0,0,1,1308.1767236073283,748.5) translate(0 17.1)"/><use xlink:href="#aj" transform="matrix(1,0,0,1,1034.1918090183208,780.5) translate(0 17.1)"/><use xlink:href="#ak" transform="matrix(1,0,0,1,1308.1767236073283,780.5) translate(0 17.1)"/><use xlink:href="#al" transform="matrix(1,0,0,1,1034.1918090183208,812.5) translate(0 17.1)"/><use xlink:href="#am" transform="matrix(1,0,0,1,1308.1767236073283,812.5) translate(0 17.1)"/><use xlink:href="#an" transform="matrix(1,0,0,1,1034.1918090183208,844.5) translate(0 17.1)"/><use xlink:href="#ao" transform="matrix(1,0,0,1,1308.1767236073283,844.5) translate(0 17.1)"/><use xlink:href="#ap" transform="matrix(1,0,0,1,1034.1918090183208,876.5) translate(0 14.4)"/><use xlink:href="#aq" transform="matrix(1,0,0,1,1308.1767236073283,876.5) translate(0 14.4)"/><path d="M989.2 484H972c-6.63 0-12 5.37-12 12v222c0 6.63 5.37 12 12 12h17.2" stroke="#333" fill="none"/><path d="M1028.47 494l-20-10 20-10M1028.47 484h-20M1008.47 484c0 5.52-4.48 10-10 10s-10-4.48-10-10 4.48-10 10-10 10 4.48 10 10M1028.47 740l-20-10 20-10M1028.47 730h-20M1008.47 730c0 5.52-4.48 10-10 10s-10-4.48-10-10 4.48-10 10-10 10 4.48 10 10" stroke="#333" fill="#fff"/><path d="M1426.02 250.5h8c6.62 0 12 5.37 12 12V568c0 6.63-5.38 12-12 12h-8.6" stroke="#333" fill="none"/><path d="M1416.02 260.5v-20M1406.02 250.5h20M1426.02 260.5v-20M1406.24 570l20 10-20 10M1406.24 580h20" stroke="#333" fill="#fff"/><path d="M1082.07 994.2h119.25M1082.1 994.2h-.78" stroke="#333" stroke-width="1.5" fill="none"/><path d="M1201.32 984.2v20M1221.32 994.2h-20" stroke="#333" stroke-width="1.5" fill="#fff"/><path d="M1082.07 1028.2h120.14M1082.1 1028.2h-.78" stroke="#333" stroke-width="1.5" fill="none"/><path d="M1221 1038.2l-20-10 20-10M1221 1028.2h-20" stroke="#333" stroke-width="1.5" fill="#fff"/><path d="M1082.07 1062.2h119.25M1082.1 1062.2h-.78" stroke="#333" stroke-width="1.5" fill="none"/><path d="M1211.32 1052.2v20M1221.32 1062.2h-20M1201.32 1052.2v20" stroke="#333" stroke-width="1.5" fill="#fff"/><path d="M1082.07 1096.2h100M1082.1 1096.2h-.78" stroke="#333" stroke-width="1.5" fill="none"/><path d="M1211.32 1086.2v20M1221.32 1096.2h-20M1201.32 1096.2c0 5.5-4.47 10-10 10-5.52 0-10-4.5-10-10 0-5.54 4.48-10 10-10 5.53 0 10 4.46 10 10" stroke="#333" stroke-width="1.5" fill="#fff"/><path d="M1082.07 1130.2h119.25M1082.1 1130.2h-.78" stroke="#333" stroke-width="1.5" fill="none"/><path d="M1221 1140.2l-20-10 20-10M1221 1130.2h-20M1201 1120.2v20" stroke="#333" stroke-width="1.5" fill="#fff"/><path d="M1082.07 1164.2h100M1082.1 1164.2h-.78" stroke="#333" stroke-width="1.5" fill="none"/><path d="M1221 1174.2l-20-10 20-10M1221 1164.2h-20M1201 1164.2c0 5.5-4.5 10-10 10-5.53 0-10-4.5-10-10 0-5.54 4.47-10 10-10 5.5 0 10 4.46 10 10" stroke="#333" stroke-width="1.5" fill="#fff"/><path d="M1080 938.2c0-4.43 3.58-8 8-8h164c4.42 0 8 3.57 8 8v24c0 4.4-3.58 8-8 8h-164c-4.42 0-8-3.6-8-8z" fill="#fff" fill-opacity="0"/><use xlink:href="#ar" transform="matrix(1,0,0,1,1085,935.1860140114804) translate(36.934259259259264 18.344444444444445)"/><use xlink:href="#as" transform="matrix(1,0,0,1,1085,935.1860140114804) translate(69.24166666666667 18.344444444444445)"/><path d="M1221.32 1162.2c0-4.43 3.58-8 8-8h104c4.42 0 8 3.57 8 8v4c0 4.4-3.58 8-8 8h-104c-4.42 0-8-3.6-8-8z" fill="#fff" fill-opacity="0"/><use xlink:href="#at" transform="matrix(1,0,0,1,1226.3232763926717,1159.1860140114804) translate(0 9.066666666666668)"/><use xlink:href="#au" transform="matrix(1,0,0,1,1226.3232763926717,1159.1860140114804) translate(9.444444444444445 9.066666666666668)"/><use xlink:href="#av" transform="matrix(1,0,0,1,1226.3232763926717,1159.1860140114804) translate(35.82592592592593 9.066666666666668)"/><use xlink:href="#aw" transform="matrix(1,0,0,1,1226.3232763926717,1159.1860140114804) translate(49.01666666666667 9.066666666666668)"/><path d="M1221.32 1128.2c0-4.43 3.58-8 8-8h104c4.42 0 8 3.57 8 8v4c0 4.4-3.58 8-8 8h-104c-4.42 0-8-3.6-8-8z" fill="#fff" fill-opacity="0"/><use xlink:href="#at" transform="matrix(1,0,0,1,1226.3232763926717,1125.1860140114804) translate(0 9.066666666666668)"/><use xlink:href="#ax" transform="matrix(1,0,0,1,1226.3232763926717,1125.1860140114804) translate(9.444444444444445 9.066666666666668)"/><use xlink:href="#av" transform="matrix(1,0,0,1,1226.3232763926717,1125.1860140114804) translate(34.00000000000001 9.066666666666668)"/><use xlink:href="#aw" transform="matrix(1,0,0,1,1226.3232763926717,1125.1860140114804) translate(47.19074074074075 9.066666666666668)"/><path d="M1221.32 1094.2c0-4.43 3.58-8 8-8h104c4.42 0 8 3.57 8 8v4c0 4.4-3.58 8-8 8h-104c-4.42 0-8-3.6-8-8z" fill="#fff" fill-opacity="0"/><use xlink:href="#at" transform="matrix(1,0,0,1,1226.3232763926717,1091.1860140114804) translate(0 9.066666666666668)"/><use xlink:href="#au" transform="matrix(1,0,0,1,1226.3232763926717,1091.1860140114804) translate(9.444444444444445 9.066666666666668)"/><use xlink:href="#av" transform="matrix(1,0,0,1,1226.3232763926717,1091.1860140114804) translate(35.82592592592593 9.066666666666668)"/><use xlink:href="#ay" transform="matrix(1,0,0,1,1226.3232763926717,1091.1860140114804) translate(49.01666666666667 9.066666666666668)"/><path d="M1221.32 1060.2c0-4.43 3.58-8 8-8h104c4.42 0 8 3.57 8 8v4c0 4.4-3.58 8-8 8h-104c-4.42 0-8-3.6-8-8z" fill="#fff" fill-opacity="0"/><use xlink:href="#at" transform="matrix(1,0,0,1,1226.3232763926717,1057.1860140114804) translate(0 9.066666666666668)"/><use xlink:href="#ax" transform="matrix(1,0,0,1,1226.3232763926717,1057.1860140114804) translate(9.444444444444445 9.066666666666668)"/><use xlink:href="#az" transform="matrix(1,0,0,1,1226.3232763926717,1057.1860140114804) translate(34.00000000000001 9.066666666666668)"/><use xlink:href="#aA" transform="matrix(1,0,0,1,1226.3232763926717,1057.1860140114804) translate(59.783333333333346 9.066666666666668)"/><use xlink:href="#aB" transform="matrix(1,0,0,1,1226.3232763926717,1057.1860140114804) translate(83.67777777777779 9.066666666666668)"/><path d="M1221.32 1026.2c0-4.43 3.58-8 8-8h104c4.42 0 8 3.57 8 8v4c0 4.4-3.58 8-8 8h-104c-4.42 0-8-3.6-8-8z" fill="#fff" fill-opacity="0"/><g><use xlink:href="#at" transform="matrix(1,0,0,1,1226.3232763926717,1023.1860140114804) translate(0 9.066666666666668)"/><use xlink:href="#aC" transform="matrix(1,0,0,1,1226.3232763926717,1023.1860140114804) translate(9.444444444444445 9.066666666666668)"/></g><path d="M1221.32 992.2c0-4.43 3.58-8 8-8h104c4.42 0 8 3.57 8 8v4c0 4.4-3.58 8-8 8h-104c-4.42 0-8-3.6-8-8z" fill="#fff" fill-opacity="0"/><g><use xlink:href="#at" transform="matrix(1,0,0,1,1226.3232763926717,989.1860140114804) translate(0 9.066666666666668)"/><use xlink:href="#aD" transform="matrix(1,0,0,1,1226.3232763926717,989.1860140114804) translate(9.444444444444445 9.066666666666668)"/></g><path d="M917.85 253.25H968c6.63 0 12 5.37 12 12V504c0 6.63 5.37 12 12 12h16.7" stroke="#333" fill="none"/><path d="M898.08 243.25l20 10-20 10M898.08 253.25h20M918.08 263.25v-20M1028.47 526l-20-10 20-10M1028.47 516h-20M1008.47 506v20" stroke="#333" fill="#fff"/><path d="M917.85 253.25H968c6.63 0 12 5.37 12 12V750c0 6.63 5.37 12 12 12h16.7" stroke="#333" fill="none"/><path d="M898.08 243.25l20 10-20 10M898.08 253.25h20M918.08 263.25v-20M1028.47 772l-20-10 20-10M1028.47 762h-20M1008.47 752v20" stroke="#333" fill="#fff"/><defs><path fill="#333" d="M185-189c-5-48-123-54-124 2 14 75 158 14 163 119 3 78-121 87-175 55-17-10-28-26-33-46l33-7c5 56 141 63 141-1 0-78-155-14-162-118-5-82 145-84 179-34 5 7 8 16 11 25" id="aE"/><path fill="#333" d="M24-231v-30h32v30H24zM24 0v-190h32V0H24" id="aF"/><path fill="#333" d="M59-47c-2 24 18 29 38 22v24C64 9 27 4 27-40v-127H5v-23h24l9-43h21v43h35v23H59v120" id="aG"/><path fill="#333" d="M100-194c63 0 86 42 84 106H49c0 40 14 67 53 68 26 1 43-12 49-29l28 8c-11 28-37 45-77 45C44 4 14-33 15-96c1-61 26-98 85-98zm52 81c6-60-76-77-97-28-3 7-6 17-6 28h103" id="aH"/><g id="a"><use transform="matrix(0.04938271604938272,0,0,0.04938271604938272,0,0)" xlink:href="#aE"/><use transform="matrix(0.04938271604938272,0,0,0.04938271604938272,11.851851851851853,0)" xlink:href="#aF"/><use transform="matrix(0.04938271604938272,0,0,0.04938271604938272,15.753086419753087,0)" xlink:href="#aG"/><use transform="matrix(0.04938271604938272,0,0,0.04938271604938272,20.69135802469136,0)" xlink:href="#aH"/></g><path fill="#333" d="M135-143c-3-34-86-38-87 0 15 53 115 12 119 90S17 21 10-45l28-5c4 36 97 45 98 0-10-56-113-15-118-90-4-57 82-63 122-42 12 7 21 19 24 35" id="aI"/><path fill="#333" d="M33 0v-248h34V0H33" id="aJ"/><path fill="#333" d="M30-248c118-7 216 8 213 122C240-48 200 0 122 0H30v-248zM63-27c89 8 146-16 146-99s-60-101-146-95v194" id="aK"/><g id="b"><use transform="matrix(0.05,0,0,0.05,0,0)" xlink:href="#aI"/><use transform="matrix(0.05,0,0,0.05,9,0)" xlink:href="#aF"/><use transform="matrix(0.05,0,0,0.05,12.949999999999998,0)" xlink:href="#aG"/><use transform="matrix(0.05,0,0,0.05,17.95,0)" xlink:href="#aH"/><use transform="matrix(0.05,0,0,0.05,27.950000000000003,0)" xlink:href="#aJ"/><use transform="matrix(0.05,0,0,0.05,32.95,0)" xlink:href="#aK"/></g><path fill="#333" d="M96-169c-40 0-48 33-48 73s9 75 48 75c24 0 41-14 43-38l32 2c-6 37-31 61-74 61-59 0-76-41-82-99-10-93 101-131 147-64 4 7 5 14 7 22l-32 3c-4-21-16-35-41-35" id="aL"/><path fill="#333" d="M106-169C34-169 62-67 57 0H25v-261h32l-1 103c12-21 28-36 61-36 89 0 53 116 60 194h-32v-121c2-32-8-49-39-48" id="aM"/><path fill="#333" d="M141-36C126-15 110 5 73 4 37 3 15-17 15-53c-1-64 63-63 125-63 3-35-9-54-41-54-24 1-41 7-42 31l-33-3c5-37 33-52 76-52 45 0 72 20 72 64v82c-1 20 7 32 28 27v20c-31 9-61-2-59-35zM48-53c0 20 12 33 32 33 41-3 63-29 60-74-43 2-92-5-92 41" id="aN"/><path fill="#333" d="M114-163C36-179 61-72 57 0H25l-1-190h30c1 12-1 29 2 39 6-27 23-49 58-41v29" id="aO"/><g id="c"><use transform="matrix(0.05,0,0,0.05,0,0)" xlink:href="#aL"/><use transform="matrix(0.05,0,0,0.05,9,0)" xlink:href="#aM"/><use transform="matrix(0.05,0,0,0.05,19,0)" xlink:href="#aN"/><use transform="matrix(0.05,0,0,0.05,29,0)" xlink:href="#aO"/></g><path d="M135-143c-3-34-86-38-87 0 15 53 115 12 119 90S17 21 10-45l28-5c4 36 97 45 98 0-10-56-113-15-118-90-4-57 82-63 122-42 12 7 21 19 24 35" id="aP"/><path d="M24-231v-30h32v30H24zM24 0v-190h32V0H24" id="aQ"/><path d="M59-47c-2 24 18 29 38 22v24C64 9 27 4 27-40v-127H5v-23h24l9-43h21v43h35v23H59v120" id="aR"/><path d="M100-194c63 0 86 42 84 106H49c0 40 14 67 53 68 26 1 43-12 49-29l28 8c-11 28-37 45-77 45C44 4 14-33 15-96c1-61 26-98 85-98zm52 81c6-60-76-77-97-28-3 7-6 17-6 28h103" id="aS"/><path d="M190 0L58-211 59 0H30v-248h39L202-35l-2-213h31V0h-41" id="aT"/><path d="M141-36C126-15 110 5 73 4 37 3 15-17 15-53c-1-64 63-63 125-63 3-35-9-54-41-54-24 1-41 7-42 31l-33-3c5-37 33-52 76-52 45 0 72 20 72 64v82c-1 20 7 32 28 27v20c-31 9-61-2-59-35zM48-53c0 20 12 33 32 33 41-3 63-29 60-74-43 2-92-5-92 41" id="aU"/><path d="M210-169c-67 3-38 105-44 169h-31v-121c0-29-5-50-35-48C34-165 62-65 56 0H25l-1-190h30c1 10-1 24 2 32 10-44 99-50 107 0 11-21 27-35 58-36 85-2 47 119 55 194h-31v-121c0-29-5-49-35-48" id="aV"/><g id="d"><use transform="matrix(0.05,0,0,0.05,0,0)" xlink:href="#aP"/><use transform="matrix(0.05,0,0,0.05,9,0)" xlink:href="#aQ"/><use transform="matrix(0.05,0,0,0.05,12.949999999999998,0)" xlink:href="#aR"/><use transform="matrix(0.05,0,0,0.05,17.95,0)" xlink:href="#aS"/><use transform="matrix(0.05,0,0,0.05,27.950000000000003,0)" xlink:href="#aT"/><use transform="matrix(0.05,0,0,0.05,40.9,0)" xlink:href="#aU"/><use transform="matrix(0.05,0,0,0.05,50.9,0)" xlink:href="#aV"/><use transform="matrix(0.05,0,0,0.05,65.85,0)" xlink:href="#aS"/></g><path d="M96-169c-40 0-48 33-48 73s9 75 48 75c24 0 41-14 43-38l32 2c-6 37-31 61-74 61-59 0-76-41-82-99-10-93 101-131 147-64 4 7 5 14 7 22l-32 3c-4-21-16-35-41-35" id="aW"/><path d="M106-169C34-169 62-67 57 0H25v-261h32l-1 103c12-21 28-36 61-36 89 0 53 116 60 194h-32v-121c2-32-8-49-39-48" id="aX"/><path d="M114-163C36-179 61-72 57 0H25l-1-190h30c1 12-1 29 2 39 6-27 23-49 58-41v29" id="aY"/><g id="e"><use transform="matrix(0.05,0,0,0.05,0,0)" xlink:href="#aW"/><use transform="matrix(0.05,0,0,0.05,9,0)" xlink:href="#aX"/><use transform="matrix(0.05,0,0,0.05,19,0)" xlink:href="#aU"/><use transform="matrix(0.05,0,0,0.05,29,0)" xlink:href="#aY"/></g><path d="M30-248c118-7 216 8 213 122C240-48 200 0 122 0H30v-248zM63-27c89 8 146-16 146-99s-60-101-146-95v194" id="aZ"/><path d="M115-194c55 1 70 41 70 98S169 2 115 4C84 4 66-9 55-30l1 105H24l-1-265h31l2 30c10-21 28-34 59-34zm-8 174c40 0 45-34 45-75s-6-73-45-74c-42 0-51 32-51 76 0 43 10 73 51 73" id="ba"/><path d="M100-194c62-1 85 37 85 99 1 63-27 99-86 99S16-35 15-95c0-66 28-99 85-99zM99-20c44 1 53-31 53-75 0-43-8-75-51-75s-53 32-53 75 10 74 51 75" id="bb"/><path d="M117-194c89-4 53 116 60 194h-32v-121c0-31-8-49-39-48C34-167 62-67 57 0H25l-1-190h30c1 10-1 24 2 32 11-22 29-35 61-36" id="bc"/><g id="f"><use transform="matrix(0.05,0,0,0.05,0,0)" xlink:href="#aP"/><use transform="matrix(0.05,0,0,0.05,9,0)" xlink:href="#aQ"/><use transform="matrix(0.05,0,0,0.05,12.949999999999998,0)" xlink:href="#aR"/><use transform="matrix(0.05,0,0,0.05,17.95,0)" xlink:href="#aS"/><use transform="matrix(0.05,0,0,0.05,27.950000000000003,0)" xlink:href="#aZ"/><use transform="matrix(0.05,0,0,0.05,40.9,0)" xlink:href="#aS"/><use transform="matrix(0.05,0,0,0.05,50.9,0)" xlink:href="#aP"/><use transform="matrix(0.05,0,0,0.05,59.900000000000006,0)" xlink:href="#aW"/><use transform="matrix(0.05,0,0,0.05,68.9,0)" xlink:href="#aY"/><use transform="matrix(0.05,0,0,0.05,74.85000000000001,0)" xlink:href="#aQ"/><use transform="matrix(0.05,0,0,0.05,78.80000000000001,0)" xlink:href="#ba"/><use transform="matrix(0.05,0,0,0.05,88.80000000000001,0)" xlink:href="#aR"/><use transform="matrix(0.05,0,0,0.05,93.80000000000001,0)" xlink:href="#aQ"/><use transform="matrix(0.05,0,0,0.05,97.75000000000001,0)" xlink:href="#bb"/><use transform="matrix(0.05,0,0,0.05,107.75,0)" xlink:href="#bc"/></g><path d="M24 0v-261h32V0H24" id="bd"/><path d="M115-194c53 0 69 39 70 98 0 66-23 100-70 100C84 3 66-7 56-30L54 0H23l1-261h32v101c10-23 28-34 59-34zm-8 174c40 0 45-34 45-75 0-40-5-75-45-74-42 0-51 32-51 76 0 43 10 73 51 73" id="be"/><path d="M179-190L93 31C79 59 56 82 12 73V49c39 6 53-20 64-50L1-190h34L92-34l54-156h33" id="bf"/><path d="M33 0v-248h34V0H33" id="bg"/><g id="g"><use transform="matrix(0.05,0,0,0.05,0,0)" xlink:href="#bd"/><use transform="matrix(0.05,0,0,0.05,3.95,0)" xlink:href="#aU"/><use transform="matrix(0.05,0,0,0.05,13.949999999999998,0)" xlink:href="#be"/><use transform="matrix(0.05,0,0,0.05,23.95,0)" xlink:href="#bb"/><use transform="matrix(0.05,0,0,0.05,33.95,0)" xlink:href="#aY"/><use transform="matrix(0.05,0,0,0.05,39.900000000000006,0)" xlink:href="#aU"/><use transform="matrix(0.05,0,0,0.05,49.900000000000006,0)" xlink:href="#aR"/><use transform="matrix(0.05,0,0,0.05,54.900000000000006,0)" xlink:href="#bb"/><use transform="matrix(0.05,0,0,0.05,64.9,0)" xlink:href="#aY"/><use transform="matrix(0.05,0,0,0.05,70.85000000000001,0)" xlink:href="#bf"/><use transform="matrix(0.05,0,0,0.05,79.85000000000001,0)" xlink:href="#bg"/><use transform="matrix(0.05,0,0,0.05,84.85000000000001,0)" xlink:href="#aZ"/></g><path d="M127-220V0H93v-220H8v-28h204v28h-85" id="bh"/><g id="h"><use transform="matrix(0.05,0,0,0.05,0,0)" xlink:href="#aP"/><use transform="matrix(0.05,0,0,0.05,9,0)" xlink:href="#aQ"/><use transform="matrix(0.05,0,0,0.05,12.949999999999998,0)" xlink:href="#aR"/><use transform="matrix(0.05,0,0,0.05,17.95,0)" xlink:href="#aS"/><use transform="matrix(0.05,0,0,0.05,27.950000000000003,0)" xlink:href="#bh"/><use transform="matrix(0.05,0,0,0.05,37.9,0)" xlink:href="#bf"/><use transform="matrix(0.05,0,0,0.05,46.9,0)" xlink:href="#ba"/><use transform="matrix(0.05,0,0,0.05,56.900000000000006,0)" xlink:href="#aS"/></g><g id="i"><use transform="matrix(0.05,0,0,0.05,0,0)" xlink:href="#aW"/><use transform="matrix(0.05,0,0,0.05,9,0)" xlink:href="#aU"/><use transform="matrix(0.05,0,0,0.05,19,0)" xlink:href="#aR"/></g><path d="M140-251c81 0 123 46 123 126C263-46 219 4 140 4 59 4 17-45 17-125s42-126 123-126zm0 227c63 0 89-41 89-101s-29-99-89-99c-61 0-89 39-89 99S79-25 140-24" id="bi"/><g id="j"><use transform="matrix(0.05,0,0,0.05,0,0)" xlink:href="#aP"/><use transform="matrix(0.05,0,0,0.05,9,0)" xlink:href="#aQ"/><use transform="matrix(0.05,0,0,0.05,12.949999999999998,0)" xlink:href="#aR"/><use transform="matrix(0.05,0,0,0.05,17.95,0)" xlink:href="#aS"/><use transform="matrix(0.05,0,0,0.05,27.950000000000003,0)" xlink:href="#bh"/><use transform="matrix(0.05,0,0,0.05,37.9,0)" xlink:href="#bf"/><use transform="matrix(0.05,0,0,0.05,46.9,0)" xlink:href="#ba"/><use transform="matrix(0.05,0,0,0.05,56.900000000000006,0)" xlink:href="#aS"/><use transform="matrix(0.05,0,0,0.05,66.9,0)" xlink:href="#bi"/><use transform="matrix(0.05,0,0,0.05,80.9,0)" xlink:href="#aR"/><use transform="matrix(0.05,0,0,0.05,85.9,0)" xlink:href="#aX"/><use transform="matrix(0.05,0,0,0.05,95.9,0)" xlink:href="#aS"/><use transform="matrix(0.05,0,0,0.05,105.9,0)" xlink:href="#aY"/></g><g id="k"><use transform="matrix(0.05,0,0,0.05,0,0)" xlink:href="#aP"/><use transform="matrix(0.05,0,0,0.05,9,0)" xlink:href="#aU"/><use transform="matrix(0.05,0,0,0.05,19,0)" xlink:href="#aV"/><use transform="matrix(0.05,0,0,0.05,33.95,0)" xlink:href="#ba"/><use transform="matrix(0.05,0,0,0.05,43.95,0)" xlink:href="#bd"/><use transform="matrix(0.05,0,0,0.05,47.900000000000006,0)" xlink:href="#aS"/><use transform="matrix(0.05,0,0,0.05,57.900000000000006,0)" xlink:href="#bh"/><use transform="matrix(0.05,0,0,0.05,67.85000000000001,0)" xlink:href="#bf"/><use transform="matrix(0.05,0,0,0.05,76.85000000000001,0)" xlink:href="#ba"/><use transform="matrix(0.05,0,0,0.05,86.85000000000001,0)" xlink:href="#aS"/></g><g id="l"><use transform="matrix(0.05,0,0,0.05,0,0)" xlink:href="#aP"/><use transform="matrix(0.05,0,0,0.05,9,0)" xlink:href="#aU"/><use transform="matrix(0.05,0,0,0.05,19,0)" xlink:href="#aV"/><use transform="matrix(0.05,0,0,0.05,33.95,0)" xlink:href="#ba"/><use transform="matrix(0.05,0,0,0.05,43.95,0)" xlink:href="#bd"/><use transform="matrix(0.05,0,0,0.05,47.900000000000006,0)" xlink:href="#aS"/><use transform="matrix(0.05,0,0,0.05,57.900000000000006,0)" xlink:href="#bh"/><use transform="matrix(0.05,0,0,0.05,67.85000000000001,0)" xlink:href="#bf"/><use transform="matrix(0.05,0,0,0.05,76.85000000000001,0)" xlink:href="#ba"/><use transform="matrix(0.05,0,0,0.05,86.85000000000001,0)" xlink:href="#aS"/><use transform="matrix(0.05,0,0,0.05,96.85000000000001,0)" xlink:href="#bi"/><use transform="matrix(0.05,0,0,0.05,110.85000000000001,0)" xlink:href="#aR"/><use transform="matrix(0.05,0,0,0.05,115.85000000000001,0)" xlink:href="#aX"/><use transform="matrix(0.05,0,0,0.05,125.85000000000001,0)" xlink:href="#aS"/><use transform="matrix(0.05,0,0,0.05,135.85000000000002,0)" xlink:href="#aY"/></g><path d="M85-194c31 0 48 13 60 33l-1-100h32l1 261h-30c-2-10 0-23-3-31C134-8 116 4 85 4 32 4 16-35 15-94c0-66 23-100 70-100zm9 24c-40 0-46 34-46 75 0 40 6 74 45 74 42 0 51-32 51-76 0-42-9-74-50-73" id="bj"/><path d="M212-179c-10-28-35-45-73-45-59 0-87 40-87 99 0 60 29 101 89 101 43 0 62-24 78-52l27 14C228-24 195 4 139 4 59 4 22-46 18-125c-6-104 99-153 187-111 19 9 31 26 39 46" id="bk"/><g id="m"><use transform="matrix(0.05,0,0,0.05,0,0)" xlink:href="#aV"/><use transform="matrix(0.05,0,0,0.05,14.950000000000001,0)" xlink:href="#aS"/><use transform="matrix(0.05,0,0,0.05,24.950000000000003,0)" xlink:href="#aR"/><use transform="matrix(0.05,0,0,0.05,29.950000000000003,0)" xlink:href="#aX"/><use transform="matrix(0.05,0,0,0.05,39.95,0)" xlink:href="#bb"/><use transform="matrix(0.05,0,0,0.05,49.95,0)" xlink:href="#bj"/><use transform="matrix(0.05,0,0,0.05,59.95,0)" xlink:href="#bk"/><use transform="matrix(0.05,0,0,0.05,72.9,0)" xlink:href="#bb"/><use transform="matrix(0.05,0,0,0.05,82.9,0)" xlink:href="#bd"/><use transform="matrix(0.05,0,0,0.05,86.85000000000001,0)" xlink:href="#bd"/><use transform="matrix(0.05,0,0,0.05,90.80000000000001,0)" xlink:href="#aS"/><use transform="matrix(0.05,0,0,0.05,100.80000000000001,0)" xlink:href="#aW"/><use transform="matrix(0.05,0,0,0.05,109.80000000000001,0)" xlink:href="#aR"/><use transform="matrix(0.05,0,0,0.05,114.80000000000001,0)" xlink:href="#aQ"/><use transform="matrix(0.05,0,0,0.05,118.75,0)" xlink:href="#bb"/><use transform="matrix(0.05,0,0,0.05,128.75,0)" xlink:href="#bc"/></g><g id="n"><use transform="matrix(0.05,0,0,0.05,0,0)" xlink:href="#aV"/><use transform="matrix(0.05,0,0,0.05,14.950000000000001,0)" xlink:href="#aS"/><use transform="matrix(0.05,0,0,0.05,24.950000000000003,0)" xlink:href="#aR"/><use transform="matrix(0.05,0,0,0.05,29.950000000000003,0)" xlink:href="#aX"/><use transform="matrix(0.05,0,0,0.05,39.95,0)" xlink:href="#bb"/><use transform="matrix(0.05,0,0,0.05,49.95,0)" xlink:href="#bj"/><use transform="matrix(0.05,0,0,0.05,59.95,0)" xlink:href="#bk"/><use transform="matrix(0.05,0,0,0.05,72.9,0)" xlink:href="#bb"/><use transform="matrix(0.05,0,0,0.05,82.9,0)" xlink:href="#bd"/><use transform="matrix(0.05,0,0,0.05,86.85000000000001,0)" xlink:href="#bd"/><use transform="matrix(0.05,0,0,0.05,90.80000000000001,0)" xlink:href="#aS"/><use transform="matrix(0.05,0,0,0.05,100.80000000000001,0)" xlink:href="#aW"/><use transform="matrix(0.05,0,0,0.05,109.80000000000001,0)" xlink:href="#aR"/><use transform="matrix(0.05,0,0,0.05,114.80000000000001,0)" xlink:href="#bi"/><use transform="matrix(0.05,0,0,0.05,128.8,0)" xlink:href="#aR"/><use transform="matrix(0.05,0,0,0.05,133.8,0)" xlink:href="#aX"/><use transform="matrix(0.05,0,0,0.05,143.8,0)" xlink:href="#aS"/><use transform="matrix(0.05,0,0,0.05,153.8,0)" xlink:href="#aY"/></g><path d="M63-220v92h138v28H63V0H30v-248h175v28H63" id="bl"/><g id="o"><use transform="matrix(0.05,0,0,0.05,0,0)" xlink:href="#aP"/><use transform="matrix(0.05,0,0,0.05,9,0)" xlink:href="#aU"/><use transform="matrix(0.05,0,0,0.05,19,0)" xlink:href="#aV"/><use transform="matrix(0.05,0,0,0.05,33.95,0)" xlink:href="#ba"/><use transform="matrix(0.05,0,0,0.05,43.95,0)" xlink:href="#bd"/><use transform="matrix(0.05,0,0,0.05,47.900000000000006,0)" xlink:href="#aS"/><use transform="matrix(0.05,0,0,0.05,57.900000000000006,0)" xlink:href="#bl"/><use transform="matrix(0.05,0,0,0.05,68.85000000000001,0)" xlink:href="#aY"/><use transform="matrix(0.05,0,0,0.05,74.80000000000001,0)" xlink:href="#aU"/><use transform="matrix(0.05,0,0,0.05,84.80000000000001,0)" xlink:href="#aW"/><use transform="matrix(0.05,0,0,0.05,93.80000000000001,0)" xlink:href="#aR"/><use transform="matrix(0.05,0,0,0.05,98.80000000000001,0)" xlink:href="#aQ"/><use transform="matrix(0.05,0,0,0.05,102.75,0)" xlink:href="#bb"/><use transform="matrix(0.05,0,0,0.05,112.75,0)" xlink:href="#bc"/></g><path d="M177-190C167-65 218 103 67 71c-23-6-38-20-44-43l32-5c15 47 100 32 89-28v-30C133-14 115 1 83 1 29 1 15-40 15-95c0-56 16-97 71-98 29-1 48 16 59 35 1-10 0-23 2-32h30zM94-22c36 0 50-32 50-73 0-42-14-75-50-75-39 0-46 34-46 75s6 73 46 73" id="bm"/><path d="M30 0v-248h33v221h125V0H30" id="bn"/><g id="p"><use transform="matrix(0.05,0,0,0.05,0,0)" xlink:href="#bm"/><use transform="matrix(0.05,0,0,0.05,10,0)" xlink:href="#aS"/><use transform="matrix(0.05,0,0,0.05,20,0)" xlink:href="#bb"/><use transform="matrix(0.05,0,0,0.05,30,0)" xlink:href="#bn"/><use transform="matrix(0.05,0,0,0.05,40,0)" xlink:href="#aU"/><use transform="matrix(0.05,0,0,0.05,50,0)" xlink:href="#aR"/></g><path d="M101-234c-31-9-42 10-38 44h38v23H63V0H32v-167H5v-23h27c-7-52 17-82 69-68v24" id="bo"/><g id="q"><use transform="matrix(0.05,0,0,0.05,0,0)" xlink:href="#bo"/><use transform="matrix(0.05,0,0,0.05,5,0)" xlink:href="#bd"/><use transform="matrix(0.05,0,0,0.05,8.95,0)" xlink:href="#bb"/><use transform="matrix(0.05,0,0,0.05,18.95,0)" xlink:href="#aU"/><use transform="matrix(0.05,0,0,0.05,28.950000000000003,0)" xlink:href="#aR"/></g><g id="r"><use transform="matrix(0.05,0,0,0.05,0,0)" xlink:href="#bm"/><use transform="matrix(0.05,0,0,0.05,10,0)" xlink:href="#aS"/><use transform="matrix(0.05,0,0,0.05,20,0)" xlink:href="#bb"/><use transform="matrix(0.05,0,0,0.05,30,0)" xlink:href="#bn"/><use transform="matrix(0.05,0,0,0.05,40,0)" xlink:href="#bb"/><use transform="matrix(0.05,0,0,0.05,50,0)" xlink:href="#bc"/><use transform="matrix(0.05,0,0,0.05,60,0)" xlink:href="#bm"/></g><g id="s"><use transform="matrix(0.05,0,0,0.05,0,0)" xlink:href="#aP"/><use transform="matrix(0.05,0,0,0.05,9,0)" xlink:href="#aR"/><use transform="matrix(0.05,0,0,0.05,14,0)" xlink:href="#bb"/><use transform="matrix(0.05,0,0,0.05,24,0)" xlink:href="#aY"/><use transform="matrix(0.05,0,0,0.05,29.950000000000003,0)" xlink:href="#aU"/><use transform="matrix(0.05,0,0,0.05,39.95,0)" xlink:href="#bm"/><use transform="matrix(0.05,0,0,0.05,49.95,0)" xlink:href="#aS"/><use transform="matrix(0.05,0,0,0.05,59.95,0)" xlink:href="#bh"/><use transform="matrix(0.05,0,0,0.05,68.9,0)" xlink:href="#aS"/><use transform="matrix(0.05,0,0,0.05,78.9,0)" xlink:href="#aV"/><use transform="matrix(0.05,0,0,0.05,93.85000000000001,0)" xlink:href="#ba"/></g><g id="t"><use transform="matrix(0.05,0,0,0.05,0,0)" xlink:href="#aW"/><use transform="matrix(0.05,0,0,0.05,9,0)" xlink:href="#bb"/><use transform="matrix(0.05,0,0,0.05,19,0)" xlink:href="#bc"/><use transform="matrix(0.05,0,0,0.05,29,0)" xlink:href="#aR"/><use transform="matrix(0.05,0,0,0.05,34,0)" xlink:href="#aU"/><use transform="matrix(0.05,0,0,0.05,44,0)" xlink:href="#aW"/><use transform="matrix(0.05,0,0,0.05,53,0)" xlink:href="#aR"/><use transform="matrix(0.05,0,0,0.05,58,0)" xlink:href="#aT"/><use transform="matrix(0.05,0,0,0.05,70.95,0)" xlink:href="#aU"/><use transform="matrix(0.05,0,0,0.05,80.95,0)" xlink:href="#aV"/><use transform="matrix(0.05,0,0,0.05,95.9,0)" xlink:href="#aS"/></g><path d="M30 0v-248h187v28H63v79h144v27H63v87h162V0H30" id="bp"/><g id="u"><use transform="matrix(0.05,0,0,0.05,0,0)" xlink:href="#aW"/><use transform="matrix(0.05,0,0,0.05,9,0)" xlink:href="#bb"/><use transform="matrix(0.05,0,0,0.05,19,0)" xlink:href="#bc"/><use transform="matrix(0.05,0,0,0.05,29,0)" xlink:href="#aR"/><use transform="matrix(0.05,0,0,0.05,34,0)" xlink:href="#aU"/><use transform="matrix(0.05,0,0,0.05,44,0)" xlink:href="#aW"/><use transform="matrix(0.05,0,0,0.05,53,0)" xlink:href="#aR"/><use transform="matrix(0.05,0,0,0.05,58,0)" xlink:href="#bp"/><use transform="matrix(0.05,0,0,0.05,70,0)" xlink:href="#aV"/><use transform="matrix(0.05,0,0,0.05,84.95,0)" xlink:href="#aU"/><use transform="matrix(0.05,0,0,0.05,94.95,0)" xlink:href="#aQ"/><use transform="matrix(0.05,0,0,0.05,98.9,0)" xlink:href="#bd"/></g><g id="v"><use transform="matrix(0.05,0,0,0.05,0,0)" xlink:href="#aS"/><use transform="matrix(0.05,0,0,0.05,10,0)" xlink:href="#aV"/><use transform="matrix(0.05,0,0,0.05,24.950000000000003,0)" xlink:href="#aU"/><use transform="matrix(0.05,0,0,0.05,34.95,0)" xlink:href="#aQ"/><use transform="matrix(0.05,0,0,0.05,38.900000000000006,0)" xlink:href="#bd"/></g><path d="M30-248c87 1 191-15 191 75 0 78-77 80-158 76V0H30v-248zm33 125c57 0 124 11 124-50 0-59-68-47-124-48v98" id="bq"/><g id="w"><use transform="matrix(0.05,0,0,0.05,0,0)" xlink:href="#aW"/><use transform="matrix(0.05,0,0,0.05,9,0)" xlink:href="#bb"/><use transform="matrix(0.05,0,0,0.05,19,0)" xlink:href="#bc"/><use transform="matrix(0.05,0,0,0.05,29,0)" xlink:href="#aR"/><use transform="matrix(0.05,0,0,0.05,34,0)" xlink:href="#aU"/><use transform="matrix(0.05,0,0,0.05,44,0)" xlink:href="#aW"/><use transform="matrix(0.05,0,0,0.05,53,0)" xlink:href="#aR"/><use transform="matrix(0.05,0,0,0.05,58,0)" xlink:href="#bq"/><use transform="matrix(0.05,0,0,0.05,70,0)" xlink:href="#aX"/><use transform="matrix(0.05,0,0,0.05,80,0)" xlink:href="#bb"/><use transform="matrix(0.05,0,0,0.05,90,0)" xlink:href="#bc"/><use transform="matrix(0.05,0,0,0.05,100,0)" xlink:href="#aS"/></g><g id="x"><use transform="matrix(0.05,0,0,0.05,0,0)" xlink:href="#ba"/><use transform="matrix(0.05,0,0,0.05,10,0)" xlink:href="#aX"/><use transform="matrix(0.05,0,0,0.05,20,0)" xlink:href="#bb"/><use transform="matrix(0.05,0,0,0.05,30,0)" xlink:href="#bc"/><use transform="matrix(0.05,0,0,0.05,40,0)" xlink:href="#aS"/></g><g id="y"><use transform="matrix(0.05,0,0,0.05,0,0)" xlink:href="#aW"/><use transform="matrix(0.05,0,0,0.05,9,0)" xlink:href="#aU"/><use transform="matrix(0.05,0,0,0.05,19,0)" xlink:href="#aR"/><use transform="matrix(0.05,0,0,0.05,24,0)" xlink:href="#aW"/><use transform="matrix(0.05,0,0,0.05,33,0)" xlink:href="#aX"/><use transform="matrix(0.05,0,0,0.05,43,0)" xlink:href="#aV"/><use transform="matrix(0.05,0,0,0.05,57.95,0)" xlink:href="#aS"/><use transform="matrix(0.05,0,0,0.05,67.95,0)" xlink:href="#bc"/><use transform="matrix(0.05,0,0,0.05,77.95,0)" xlink:href="#aR"/><use transform="matrix(0.05,0,0,0.05,82.95,0)" xlink:href="#bq"/><use transform="matrix(0.05,0,0,0.05,94.95,0)" xlink:href="#bb"/><use transform="matrix(0.05,0,0,0.05,104.95,0)" xlink:href="#ba"/></g><g id="z"><use transform="matrix(0.05,0,0,0.05,0,0)" xlink:href="#aQ"/><use transform="matrix(0.05,0,0,0.05,3.95,0)" xlink:href="#bc"/><use transform="matrix(0.05,0,0,0.05,13.949999999999998,0)" xlink:href="#aR"/></g><g id="A"><use transform="matrix(0.05,0,0,0.05,0,0)" xlink:href="#bc"/><use transform="matrix(0.05,0,0,0.05,10,0)" xlink:href="#bb"/><use transform="matrix(0.05,0,0,0.05,20,0)" xlink:href="#aR"/><use transform="matrix(0.05,0,0,0.05,25,0)" xlink:href="#aS"/><use transform="matrix(0.05,0,0,0.05,35,0)" xlink:href="#aP"/></g><path fill="#333" d="M210-169c-67 3-38 105-44 169h-31v-121c0-29-5-50-35-48C34-165 62-65 56 0H25l-1-190h30c1 10-1 24 2 32 10-44 99-50 107 0 11-21 27-35 58-36 85-2 47 119 55 194h-31v-121c0-29-5-49-35-48" id="br"/><path fill="#333" d="M115-194c55 1 70 41 70 98S169 2 115 4C84 4 66-9 55-30l1 105H24l-1-265h31l2 30c10-21 28-34 59-34zm-8 174c40 0 45-34 45-75s-6-73-45-74c-42 0-51 32-51 76 0 43 10 73 51 73" id="bs"/><path fill="#333" d="M24 0v-261h32V0H24" id="bt"/><g id="B"><use transform="matrix(0.04938271604938272,0,0,0.04938271604938272,0,0)" xlink:href="#aE"/><use transform="matrix(0.04938271604938272,0,0,0.04938271604938272,11.851851851851853,0)" xlink:href="#aN"/><use transform="matrix(0.04938271604938272,0,0,0.04938271604938272,21.7283950617284,0)" xlink:href="#br"/><use transform="matrix(0.04938271604938272,0,0,0.04938271604938272,36.49382716049384,0)" xlink:href="#bs"/><use transform="matrix(0.04938271604938272,0,0,0.04938271604938272,46.37037037037038,0)" xlink:href="#bt"/><use transform="matrix(0.04938271604938272,0,0,0.04938271604938272,50.271604938271615,0)" xlink:href="#aH"/></g><g id="C"><use transform="matrix(0.05,0,0,0.05,0,0)" xlink:href="#aP"/><use transform="matrix(0.05,0,0,0.05,9,0)" xlink:href="#aU"/><use transform="matrix(0.05,0,0,0.05,19,0)" xlink:href="#aV"/><use transform="matrix(0.05,0,0,0.05,33.95,0)" xlink:href="#ba"/><use transform="matrix(0.05,0,0,0.05,43.95,0)" xlink:href="#bd"/><use transform="matrix(0.05,0,0,0.05,47.900000000000006,0)" xlink:href="#aS"/><use transform="matrix(0.05,0,0,0.05,57.900000000000006,0)" xlink:href="#bg"/><use transform="matrix(0.05,0,0,0.05,62.900000000000006,0)" xlink:href="#aZ"/></g><g id="D"><use transform="matrix(0.05,0,0,0.05,0,0)" xlink:href="#bd"/><use transform="matrix(0.05,0,0,0.05,3.95,0)" xlink:href="#aU"/><use transform="matrix(0.05,0,0,0.05,13.949999999999998,0)" xlink:href="#be"/><use transform="matrix(0.05,0,0,0.05,23.95,0)" xlink:href="#bg"/><use transform="matrix(0.05,0,0,0.05,28.950000000000003,0)" xlink:href="#bj"/></g><g id="E"><use transform="matrix(0.05,0,0,0.05,0,0)" xlink:href="#aW"/><use transform="matrix(0.05,0,0,0.05,9,0)" xlink:href="#aX"/><use transform="matrix(0.05,0,0,0.05,19,0)" xlink:href="#aU"/><use transform="matrix(0.05,0,0,0.05,29,0)" xlink:href="#aY"/></g><g id="F"><use transform="matrix(0.05,0,0,0.05,0,0)" xlink:href="#aP"/><use transform="matrix(0.05,0,0,0.05,9,0)" xlink:href="#aQ"/><use transform="matrix(0.05,0,0,0.05,12.949999999999998,0)" xlink:href="#aR"/><use transform="matrix(0.05,0,0,0.05,17.95,0)" xlink:href="#aS"/><use transform="matrix(0.05,0,0,0.05,27.950000000000003,0)" xlink:href="#bg"/><use transform="matrix(0.05,0,0,0.05,32.95,0)" xlink:href="#aZ"/></g><g id="G"><use transform="matrix(0.05,0,0,0.05,0,0)" xlink:href="#aU"/><use transform="matrix(0.05,0,0,0.05,10,0)" xlink:href="#aP"/><use transform="matrix(0.05,0,0,0.05,19,0)" xlink:href="#aP"/><use transform="matrix(0.05,0,0,0.05,28,0)" xlink:href="#aU"/><use transform="matrix(0.05,0,0,0.05,38,0)" xlink:href="#bf"/><use transform="matrix(0.05,0,0,0.05,47,0)" xlink:href="#bg"/><use transform="matrix(0.05,0,0,0.05,52,0)" xlink:href="#aZ"/></g><g id="H"><use transform="matrix(0.05,0,0,0.05,0,0)" xlink:href="#aI"/><use transform="matrix(0.05,0,0,0.05,9,0)" xlink:href="#aN"/><use transform="matrix(0.05,0,0,0.05,19,0)" xlink:href="#br"/><use transform="matrix(0.05,0,0,0.05,33.95,0)" xlink:href="#bs"/><use transform="matrix(0.05,0,0,0.05,43.95,0)" xlink:href="#bt"/><use transform="matrix(0.05,0,0,0.05,47.900000000000006,0)" xlink:href="#aH"/><use transform="matrix(0.05,0,0,0.05,57.900000000000006,0)" xlink:href="#aK"/><use transform="matrix(0.05,0,0,0.05,70.85000000000001,0)" xlink:href="#aN"/><use transform="matrix(0.05,0,0,0.05,80.85000000000001,0)" xlink:href="#aG"/><use transform="matrix(0.05,0,0,0.05,85.85000000000001,0)" xlink:href="#aH"/></g><path fill="#333" d="M85-194c31 0 48 13 60 33l-1-100h32l1 261h-30c-2-10 0-23-3-31C134-8 116 4 85 4 32 4 16-35 15-94c0-66 23-100 70-100zm9 24c-40 0-46 34-46 75 0 40 6 74 45 74 42 0 51-32 51-76 0-42-9-74-50-73" id="bu"/><g id="I"><use transform="matrix(0.05,0,0,0.05,0,0)" xlink:href="#bu"/><use transform="matrix(0.05,0,0,0.05,10,0)" xlink:href="#aN"/><use transform="matrix(0.05,0,0,0.05,20,0)" xlink:href="#aG"/><use transform="matrix(0.05,0,0,0.05,25,0)" xlink:href="#aH"/></g><path fill="#333" d="M205 0l-28-72H64L36 0H1l101-248h38L239 0h-34zm-38-99l-47-123c-12 45-31 82-46 123h93" id="bv"/><path fill="#333" d="M179-190L93 31C79 59 56 82 12 73V49c39 6 53-20 64-50L1-190h34L92-34l54-156h33" id="bw"/><path fill="#333" d="M240 0l2-218c-23 76-54 145-80 218h-23L58-218 59 0H30v-248h44l77 211c21-75 51-140 76-211h43V0h-30" id="bx"/><path fill="#333" d="M100-194c62-1 85 37 85 99 1 63-27 99-86 99S16-35 15-95c0-66 28-99 85-99zM99-20c44 1 53-31 53-75 0-43-8-75-51-75s-53 32-53 75 10 74 51 75" id="by"/><g id="J"><use transform="matrix(0.04938271604938272,0,0,0.04938271604938272,0,0)" xlink:href="#bv"/><use transform="matrix(0.04938271604938272,0,0,0.04938271604938272,11.851851851851853,0)" xlink:href="#aI"/><use transform="matrix(0.04938271604938272,0,0,0.04938271604938272,20.74074074074074,0)" xlink:href="#aI"/><use transform="matrix(0.04938271604938272,0,0,0.04938271604938272,29.629629629629633,0)" xlink:href="#aN"/><use transform="matrix(0.04938271604938272,0,0,0.04938271604938272,39.50617283950618,0)" xlink:href="#bw"/><use transform="matrix(0.04938271604938272,0,0,0.04938271604938272,48.39506172839506,0)" xlink:href="#bx"/><use transform="matrix(0.04938271604938272,0,0,0.04938271604938272,63.1604938271605,0)" xlink:href="#aH"/><use transform="matrix(0.04938271604938272,0,0,0.04938271604938272,73.03703703703704,0)" xlink:href="#aG"/><use transform="matrix(0.04938271604938272,0,0,0.04938271604938272,77.97530864197532,0)" xlink:href="#aM"/><use transform="matrix(0.04938271604938272,0,0,0.04938271604938272,87.85185185185186,0)" xlink:href="#by"/><use transform="matrix(0.04938271604938272,0,0,0.04938271604938272,97.7283950617284,0)" xlink:href="#bu"/></g><g id="K"><use transform="matrix(0.05,0,0,0.05,0,0)" xlink:href="#aN"/><use transform="matrix(0.05,0,0,0.05,10,0)" xlink:href="#aI"/><use transform="matrix(0.05,0,0,0.05,19,0)" xlink:href="#aI"/><use transform="matrix(0.05,0,0,0.05,28,0)" xlink:href="#aN"/><use transform="matrix(0.05,0,0,0.05,38,0)" xlink:href="#bw"/><use transform="matrix(0.05,0,0,0.05,47,0)" xlink:href="#aJ"/><use transform="matrix(0.05,0,0,0.05,52,0)" xlink:href="#aK"/></g><path d="M108 0H70L1-190h34L89-25l56-165h34" id="bz"/><g id="L"><use transform="matrix(0.05,0,0,0.05,0,0)" xlink:href="#bz"/><use transform="matrix(0.05,0,0,0.05,9,0)" xlink:href="#aS"/><use transform="matrix(0.05,0,0,0.05,19,0)" xlink:href="#aY"/><use transform="matrix(0.05,0,0,0.05,24.95,0)" xlink:href="#aP"/><use transform="matrix(0.05,0,0,0.05,33.95,0)" xlink:href="#aQ"/><use transform="matrix(0.05,0,0,0.05,37.900000000000006,0)" xlink:href="#bb"/><use transform="matrix(0.05,0,0,0.05,47.900000000000006,0)" xlink:href="#bc"/></g><g id="M"><use transform="matrix(0.05,0,0,0.05,0,0)" xlink:href="#aU"/><use transform="matrix(0.05,0,0,0.05,10,0)" xlink:href="#aP"/><use transform="matrix(0.05,0,0,0.05,19,0)" xlink:href="#aP"/><use transform="matrix(0.05,0,0,0.05,28,0)" xlink:href="#aU"/><use transform="matrix(0.05,0,0,0.05,38,0)" xlink:href="#bf"/><use transform="matrix(0.05,0,0,0.05,47,0)" xlink:href="#aZ"/><use transform="matrix(0.05,0,0,0.05,59.95,0)" xlink:href="#aU"/><use transform="matrix(0.05,0,0,0.05,69.95,0)" xlink:href="#aR"/><use transform="matrix(0.05,0,0,0.05,74.95,0)" xlink:href="#aS"/></g><g id="N"><use transform="matrix(0.05,0,0,0.05,0,0)" xlink:href="#aU"/><use transform="matrix(0.05,0,0,0.05,10,0)" xlink:href="#aP"/><use transform="matrix(0.05,0,0,0.05,19,0)" xlink:href="#aP"/><use transform="matrix(0.05,0,0,0.05,28,0)" xlink:href="#aU"/><use transform="matrix(0.05,0,0,0.05,38,0)" xlink:href="#bf"/><use transform="matrix(0.05,0,0,0.05,47,0)" xlink:href="#aZ"/><use transform="matrix(0.05,0,0,0.05,59.95,0)" xlink:href="#aS"/><use transform="matrix(0.05,0,0,0.05,69.95,0)" xlink:href="#aP"/><use transform="matrix(0.05,0,0,0.05,78.95,0)" xlink:href="#aW"/></g><path fill="#333" d="M30 0v-248h33v221h125V0H30" id="bA"/><path fill="#333" d="M115-194c53 0 69 39 70 98 0 66-23 100-70 100C84 3 66-7 56-30L54 0H23l1-261h32v101c10-23 28-34 59-34zm-8 174c40 0 45-34 45-75 0-40-5-75-45-74-42 0-51 32-51 76 0 43 10 73 51 73" id="bB"/><g id="O"><use transform="matrix(0.05,0,0,0.05,0,0)" xlink:href="#bA"/><use transform="matrix(0.05,0,0,0.05,10,0)" xlink:href="#aN"/><use transform="matrix(0.05,0,0,0.05,20,0)" xlink:href="#bB"/><use transform="matrix(0.05,0,0,0.05,30,0)" xlink:href="#by"/><use transform="matrix(0.05,0,0,0.05,40,0)" xlink:href="#aO"/><use transform="matrix(0.05,0,0,0.05,45.95,0)" xlink:href="#aN"/><use transform="matrix(0.05,0,0,0.05,55.95,0)" xlink:href="#aG"/><use transform="matrix(0.05,0,0,0.05,60.95,0)" xlink:href="#by"/><use transform="matrix(0.05,0,0,0.05,70.95,0)" xlink:href="#aO"/><use transform="matrix(0.05,0,0,0.05,76.9,0)" xlink:href="#bw"/></g><g id="P"><use transform="matrix(0.05,0,0,0.05,0,0)" xlink:href="#bt"/><use transform="matrix(0.05,0,0,0.05,3.95,0)" xlink:href="#aN"/><use transform="matrix(0.05,0,0,0.05,13.949999999999998,0)" xlink:href="#bB"/><use transform="matrix(0.05,0,0,0.05,23.95,0)" xlink:href="#aJ"/><use transform="matrix(0.05,0,0,0.05,28.950000000000003,0)" xlink:href="#bu"/></g><path fill="#333" d="M190 0L58-211 59 0H30v-248h39L202-35l-2-213h31V0h-41" id="bC"/><g id="Q"><use transform="matrix(0.05,0,0,0.05,0,0)" xlink:href="#bt"/><use transform="matrix(0.05,0,0,0.05,3.95,0)" xlink:href="#aN"/><use transform="matrix(0.05,0,0,0.05,13.949999999999998,0)" xlink:href="#bB"/><use transform="matrix(0.05,0,0,0.05,23.95,0)" xlink:href="#by"/><use transform="matrix(0.05,0,0,0.05,33.95,0)" xlink:href="#aO"/><use transform="matrix(0.05,0,0,0.05,39.900000000000006,0)" xlink:href="#aN"/><use transform="matrix(0.05,0,0,0.05,49.900000000000006,0)" xlink:href="#aG"/><use transform="matrix(0.05,0,0,0.05,54.900000000000006,0)" xlink:href="#by"/><use transform="matrix(0.05,0,0,0.05,64.9,0)" xlink:href="#aO"/><use transform="matrix(0.05,0,0,0.05,70.85000000000001,0)" xlink:href="#bw"/><use transform="matrix(0.05,0,0,0.05,79.85000000000001,0)" xlink:href="#bC"/><use transform="matrix(0.05,0,0,0.05,92.80000000000001,0)" xlink:href="#aN"/><use transform="matrix(0.05,0,0,0.05,102.80000000000001,0)" xlink:href="#br"/><use transform="matrix(0.05,0,0,0.05,117.75,0)" xlink:href="#aH"/></g><path fill="#333" d="M117-194c89-4 53 116 60 194h-32v-121c0-31-8-49-39-48C34-167 62-67 57 0H25l-1-190h30c1 10-1 24 2 32 11-22 29-35 61-36" id="bD"/><g id="R"><use transform="matrix(0.05,0,0,0.05,0,0)" xlink:href="#aL"/><use transform="matrix(0.05,0,0,0.05,9,0)" xlink:href="#by"/><use transform="matrix(0.05,0,0,0.05,19,0)" xlink:href="#bD"/><use transform="matrix(0.05,0,0,0.05,29,0)" xlink:href="#aG"/><use transform="matrix(0.05,0,0,0.05,34,0)" xlink:href="#aN"/><use transform="matrix(0.05,0,0,0.05,44,0)" xlink:href="#aL"/><use transform="matrix(0.05,0,0,0.05,53,0)" xlink:href="#aG"/><use transform="matrix(0.05,0,0,0.05,58,0)" xlink:href="#bC"/><use transform="matrix(0.05,0,0,0.05,70.95,0)" xlink:href="#aN"/><use transform="matrix(0.05,0,0,0.05,80.95,0)" xlink:href="#br"/><use transform="matrix(0.05,0,0,0.05,95.9,0)" xlink:href="#aH"/></g><path fill="#333" d="M30 0v-248h187v28H63v79h144v27H63v87h162V0H30" id="bE"/><g id="S"><use transform="matrix(0.05,0,0,0.05,0,0)" xlink:href="#aL"/><use transform="matrix(0.05,0,0,0.05,9,0)" xlink:href="#by"/><use transform="matrix(0.05,0,0,0.05,19,0)" xlink:href="#bD"/><use transform="matrix(0.05,0,0,0.05,29,0)" xlink:href="#aG"/><use transform="matrix(0.05,0,0,0.05,34,0)" xlink:href="#aN"/><use transform="matrix(0.05,0,0,0.05,44,0)" xlink:href="#aL"/><use transform="matrix(0.05,0,0,0.05,53,0)" xlink:href="#aG"/><use transform="matrix(0.05,0,0,0.05,58,0)" xlink:href="#bE"/><use transform="matrix(0.05,0,0,0.05,70,0)" xlink:href="#br"/><use transform="matrix(0.05,0,0,0.05,84.95,0)" xlink:href="#aN"/><use transform="matrix(0.05,0,0,0.05,94.95,0)" xlink:href="#aF"/><use transform="matrix(0.05,0,0,0.05,98.9,0)" xlink:href="#bt"/></g><g id="T"><use transform="matrix(0.05,0,0,0.05,0,0)" xlink:href="#aH"/><use transform="matrix(0.05,0,0,0.05,10,0)" xlink:href="#br"/><use transform="matrix(0.05,0,0,0.05,24.950000000000003,0)" xlink:href="#aN"/><use transform="matrix(0.05,0,0,0.05,34.95,0)" xlink:href="#aF"/><use transform="matrix(0.05,0,0,0.05,38.900000000000006,0)" xlink:href="#bt"/></g><g id="U"><use transform="matrix(0.05,0,0,0.05,0,0)" xlink:href="#bd"/><use transform="matrix(0.05,0,0,0.05,3.95,0)" xlink:href="#aU"/><use transform="matrix(0.05,0,0,0.05,13.949999999999998,0)" xlink:href="#be"/><use transform="matrix(0.05,0,0,0.05,23.95,0)" xlink:href="#aZ"/><use transform="matrix(0.05,0,0,0.05,36.9,0)" xlink:href="#aU"/><use transform="matrix(0.05,0,0,0.05,46.9,0)" xlink:href="#aR"/><use transform="matrix(0.05,0,0,0.05,51.900000000000006,0)" xlink:href="#aS"/></g><g id="V"><use transform="matrix(0.05,0,0,0.05,0,0)" xlink:href="#bj"/><use transform="matrix(0.05,0,0,0.05,10,0)" xlink:href="#aU"/><use transform="matrix(0.05,0,0,0.05,20,0)" xlink:href="#aR"/><use transform="matrix(0.05,0,0,0.05,25,0)" xlink:href="#aS"/></g><path fill="#a9afb8" d="M169-182c-1-43-94-46-97-3 18 66 151 10 154 114 3 95-165 93-204 36-6-8-10-19-12-30l50-8c3 46 112 56 116 5-17-69-150-10-154-114-4-87 153-88 188-35 5 8 8 18 10 28" id="bF"/><path fill="#a9afb8" d="M199 0l-22-63H83L61 0H9l90-248h61L250 0h-51zm-33-102l-36-108c-10 38-24 72-36 108h72" id="bG"/><path fill="#a9afb8" d="M240-174c0 40-23 61-54 70L253 0h-59l-57-94H76V0H24v-248c93 4 217-23 216 74zM76-134c48-2 112 12 112-38 0-48-66-32-112-35v73" id="bH"/><path fill="#a9afb8" d="M14-72v-43h91v43H14" id="bI"/><path fill="#a9afb8" d="M67-125c0 53 21 87 73 88 37 1 54-22 65-47l45 17C233-25 199 4 140 4 58 4 20-42 15-125 8-235 124-281 211-232c18 10 29 29 36 50l-46 12c-8-25-30-41-62-41-52 0-71 34-72 86" id="bJ"/><path fill="#a9afb8" d="M110-194c64 0 96 36 96 99 0 64-35 99-97 99-61 0-95-36-95-99 0-62 34-99 96-99zm-1 164c35 0 45-28 45-65 0-40-10-65-43-65-34 0-45 26-45 65 0 36 10 65 43 65" id="bK"/><path fill="#a9afb8" d="M147 0H94L2-248h55l64 206c17-72 42-137 63-206h54" id="bL"/><path fill="#a9afb8" d="M182-182c0 78-84 86-111 141h115V0H12c-6-101 99-100 120-180 1-22-12-31-33-32-23 0-32 14-35 34l-49-3c5-45 32-70 84-70 51 0 83 22 83 69" id="bM"/><g id="W"><use transform="matrix(0.0728395061728395,0,0,0.0728395061728395,0,0)" xlink:href="#bF"/><use transform="matrix(0.0728395061728395,0,0,0.0728395061728395,17.48148148148148,0)" xlink:href="#bG"/><use transform="matrix(0.0728395061728395,0,0,0.0728395061728395,36.34691358024691,0)" xlink:href="#bH"/><use transform="matrix(0.0728395061728395,0,0,0.0728395061728395,55.212345679012344,0)" xlink:href="#bF"/><use transform="matrix(0.0728395061728395,0,0,0.0728395061728395,72.69382716049383,0)" xlink:href="#bI"/><use transform="matrix(0.0728395061728395,0,0,0.0728395061728395,81.36172839506173,0)" xlink:href="#bJ"/><use transform="matrix(0.0728395061728395,0,0,0.0728395061728395,100.22716049382717,0)" xlink:href="#bK"/><use transform="matrix(0.0728395061728395,0,0,0.0728395061728395,116.17901234567903,0)" xlink:href="#bL"/><use transform="matrix(0.0728395061728395,0,0,0.0728395061728395,132.20370370370372,0)" xlink:href="#bI"/><use transform="matrix(0.0728395061728395,0,0,0.0728395061728395,140.87160493827162,0)" xlink:href="#bM"/></g><path fill="#a9afb8" d="M275 0h-61l-44-196L126 0H64L0-248h53L97-49l45-199h58l43 199 44-199h52" id="bN"/><path fill="#a9afb8" d="M133-34C117-15 103 5 69 4 32 3 11-16 11-54c-1-60 55-63 116-61 1-26-3-47-28-47-18 1-26 9-28 27l-52-2c7-38 36-58 82-57s74 22 75 68l1 82c-1 14 12 18 25 15v27c-30 8-71 5-69-32zm-48 3c29 0 43-24 42-57-32 0-66-3-65 30 0 17 8 27 23 27" id="bO"/><path fill="#a9afb8" d="M137-138c1-29-70-34-71-4 15 46 118 7 119 86 1 83-164 76-172 9l43-7c4 19 20 25 44 25 33 8 57-30 24-41C81-84 22-81 20-136c-2-80 154-74 161-7" id="bP"/><path fill="#a9afb8" d="M115-3C79 11 28 4 28-45v-112H4v-33h27l15-45h31v45h36v33H77v99c-1 23 16 31 38 25v30" id="bQ"/><path fill="#a9afb8" d="M185-48c-13 30-37 53-82 52C43 2 14-33 14-96s30-98 90-98c62 0 83 45 84 108H66c0 31 8 55 39 56 18 0 30-7 34-22zm-45-69c5-46-57-63-70-21-2 6-4 13-4 21h74" id="bR"/><path fill="#a9afb8" d="M231 0h-52l-39-155L100 0H48L-1-190h46L77-45c9-52 24-97 36-145h53l37 145 32-145h46" id="bS"/><path fill="#a9afb8" d="M135-150c-39-12-60 13-60 57V0H25l-1-190h47c2 13-1 29 3 40 6-28 27-53 61-41v41" id="bT"/><g id="X"><use transform="matrix(0.0728395061728395,0,0,0.0728395061728395,0,0)" xlink:href="#bN"/><use transform="matrix(0.0728395061728395,0,0,0.0728395061728395,23.74567901234568,0)" xlink:href="#bO"/><use transform="matrix(0.0728395061728395,0,0,0.0728395061728395,38.31358024691358,0)" xlink:href="#bP"/><use transform="matrix(0.0728395061728395,0,0,0.0728395061728395,52.88148148148148,0)" xlink:href="#bQ"/><use transform="matrix(0.0728395061728395,0,0,0.0728395061728395,61.54938271604938,0)" xlink:href="#bR"/><use transform="matrix(0.0728395061728395,0,0,0.0728395061728395,76.11728395061728,0)" xlink:href="#bS"/><use transform="matrix(0.0728395061728395,0,0,0.0728395061728395,96.51234567901234,0)" xlink:href="#bO"/><use transform="matrix(0.0728395061728395,0,0,0.0728395061728395,111.08024691358024,0)" xlink:href="#bQ"/><use transform="matrix(0.0728395061728395,0,0,0.0728395061728395,119.74814814814815,0)" xlink:href="#bR"/><use transform="matrix(0.0728395061728395,0,0,0.0728395061728395,134.31604938271605,0)" xlink:href="#bT"/></g><path fill="#a9afb8" d="M24 0v-248h195v40H76v63h132v40H76v65h150V0H24" id="bU"/><path fill="#a9afb8" d="M135-194c87-1 58 113 63 194h-50c-7-57 23-157-34-157-59 0-34 97-39 157H25l-1-190h47c2 12-1 28 3 38 12-26 28-41 61-42" id="bV"/><path fill="#a9afb8" d="M25-224v-37h50v37H25zM25 0v-190h50V0H25" id="bW"/><path fill="#a9afb8" d="M123 10C108 53 80 86 19 72V37c35 8 53-11 59-39L3-190h52l48 148c12-52 28-100 44-148h51" id="bX"/><g id="Y"><use transform="matrix(0.0728395061728395,0,0,0.0728395061728395,0,0)" xlink:href="#bU"/><use transform="matrix(0.0728395061728395,0,0,0.0728395061728395,17.48148148148148,0)" xlink:href="#bV"/><use transform="matrix(0.0728395061728395,0,0,0.0728395061728395,33.43333333333333,0)" xlink:href="#bQ"/><use transform="matrix(0.0728395061728395,0,0,0.0728395061728395,42.10123456790124,0)" xlink:href="#bW"/><use transform="matrix(0.0728395061728395,0,0,0.0728395061728395,49.38518518518518,0)" xlink:href="#bQ"/><use transform="matrix(0.0728395061728395,0,0,0.0728395061728395,58.05308641975308,0)" xlink:href="#bX"/></g><path fill="#a9afb8" d="M25 0v-261h50V0H25" id="bY"/><path fill="#a9afb8" d="M114-157C55-157 80-60 75 0H25v-261h50l-1 109c12-26 28-41 61-42 86-1 58 113 63 194h-50c-7-57 23-157-34-157" id="bZ"/><path fill="#a9afb8" d="M135-194c53 0 70 44 70 98 0 56-19 98-73 100-31 1-45-17-59-34 3 33 2 69 2 105H25l-1-265h48c2 10 0 23 3 31 11-24 29-35 60-35zM114-30c33 0 39-31 40-66 0-38-9-64-40-64-56 0-55 130 0 130" id="ca"/><g id="Z"><use transform="matrix(0.0728395061728395,0,0,0.0728395061728395,0,0)" xlink:href="#bH"/><use transform="matrix(0.0728395061728395,0,0,0.0728395061728395,18.86543209876543,0)" xlink:href="#bR"/><use transform="matrix(0.0728395061728395,0,0,0.0728395061728395,33.43333333333333,0)" xlink:href="#bY"/><use transform="matrix(0.0728395061728395,0,0,0.0728395061728395,40.717283950617286,0)" xlink:href="#bO"/><use transform="matrix(0.0728395061728395,0,0,0.0728395061728395,55.28518518518518,0)" xlink:href="#bQ"/><use transform="matrix(0.0728395061728395,0,0,0.0728395061728395,63.95308641975308,0)" xlink:href="#bW"/><use transform="matrix(0.0728395061728395,0,0,0.0728395061728395,71.23703703703703,0)" xlink:href="#bK"/><use transform="matrix(0.0728395061728395,0,0,0.0728395061728395,87.18888888888888,0)" xlink:href="#bV"/><use transform="matrix(0.0728395061728395,0,0,0.0728395061728395,103.14074074074074,0)" xlink:href="#bP"/><use transform="matrix(0.0728395061728395,0,0,0.0728395061728395,117.70864197530864,0)" xlink:href="#bZ"/><use transform="matrix(0.0728395061728395,0,0,0.0728395061728395,133.66049382716048,0)" xlink:href="#bW"/><use transform="matrix(0.0728395061728395,0,0,0.0728395061728395,140.94444444444443,0)" xlink:href="#ca"/></g><path fill="#a9afb8" d="M24-248c120-7 223 5 221 122C244-46 201 0 124 0H24v-248zM76-40c74 7 117-18 117-86 0-67-45-88-117-82v168" id="cb"/><path fill="#a9afb8" d="M195-6C206 82 75 100 31 46c-4-6-6-13-8-21l49-6c3 16 16 24 34 25 40 0 42-37 40-79-11 22-30 35-61 35-53 0-70-43-70-97 0-56 18-96 73-97 30 0 46 14 59 34l2-30h47zm-90-29c32 0 41-27 41-63 0-35-9-62-40-62-32 0-39 29-40 63 0 36 9 62 39 62" id="cc"/><path fill="#a9afb8" d="M220-157c-53 9-28 100-34 157h-49v-107c1-27-5-49-29-50C55-147 81-57 75 0H25l-1-190h47c2 12-1 28 3 38 10-53 101-56 108 0 13-22 24-43 59-42 82 1 51 116 57 194h-49v-107c-1-25-5-48-29-50" id="cd"/><g id="aa"><use transform="matrix(0.0728395061728395,0,0,0.0728395061728395,0,0)" xlink:href="#cb"/><use transform="matrix(0.0728395061728395,0,0,0.0728395061728395,18.86543209876543,0)" xlink:href="#bW"/><use transform="matrix(0.0728395061728395,0,0,0.0728395061728395,26.14938271604938,0)" xlink:href="#bO"/><use transform="matrix(0.0728395061728395,0,0,0.0728395061728395,40.717283950617286,0)" xlink:href="#cc"/><use transform="matrix(0.0728395061728395,0,0,0.0728395061728395,56.66913580246913,0)" xlink:href="#bT"/><use transform="matrix(0.0728395061728395,0,0,0.0728395061728395,66.86666666666666,0)" xlink:href="#bO"/><use transform="matrix(0.0728395061728395,0,0,0.0728395061728395,81.43456790123457,0)" xlink:href="#cd"/></g><path fill="#a9afb8" d="M137 0h-34L2-248h35l83 218 83-218h36" id="ce"/><path fill="#a9afb8" d="M101-251c68 0 85 55 85 127S166 4 100 4C33 4 14-52 14-124c0-73 17-127 87-127zm-1 229c47 0 54-49 54-102s-4-102-53-102c-51 0-55 48-55 102 0 53 5 102 54 102" id="cf"/><path fill="#a9afb8" d="M33 0v-38h34V0H33" id="cg"/><path fill="#a9afb8" d="M27 0v-27h64v-190l-56 39v-29l58-41h29v221h61V0H27" id="ch"/><g id="ab"><use transform="matrix(0.04248971193415638,0,0,0.04248971193415638,0,0)" xlink:href="#ce"/><use transform="matrix(0.04248971193415638,0,0,0.04248971193415638,10.19753086419753,0)" xlink:href="#cf"/><use transform="matrix(0.04248971193415638,0,0,0.04248971193415638,18.695473251028805,0)" xlink:href="#cg"/><use transform="matrix(0.04248971193415638,0,0,0.04248971193415638,22.944444444444443,0)" xlink:href="#ch"/><use transform="matrix(0.04248971193415638,0,0,0.04248971193415638,31.44238683127572,0)" xlink:href="#cg"/><use transform="matrix(0.04248971193415638,0,0,0.04248971193415638,35.691358024691354,0)" xlink:href="#cf"/></g><path fill="#a9afb8" d="M32 76v-337h29V76H32" id="ci"/><use transform="matrix(0.04248971193415638,0,0,0.04248971193415638,0,0)" xlink:href="#ci" id="ac"/><path fill="#a9afb8" d="M190 0L58-211 59 0H30v-248h39L202-35l-2-213h31V0h-41" id="cj"/><path fill="#a9afb8" d="M100-194c62-1 85 37 85 99 1 63-27 99-86 99S16-35 15-95c0-66 28-99 85-99zM99-20c44 1 53-31 53-75 0-43-8-75-51-75s-53 32-53 75 10 74 51 75" id="ck"/><path fill="#a9afb8" d="M108 0H70L1-190h34L89-25l56-165h34" id="cl"/><path fill="#a9afb8" d="M100-194c63 0 86 42 84 106H49c0 40 14 67 53 68 26 1 43-12 49-29l28 8c-11 28-37 45-77 45C44 4 14-33 15-96c1-61 26-98 85-98zm52 81c6-60-76-77-97-28-3 7-6 17-6 28h103" id="cm"/><path fill="#a9afb8" d="M210-169c-67 3-38 105-44 169h-31v-121c0-29-5-50-35-48C34-165 62-65 56 0H25l-1-190h30c1 10-1 24 2 32 10-44 99-50 107 0 11-21 27-35 58-36 85-2 47 119 55 194h-31v-121c0-29-5-49-35-48" id="cn"/><path fill="#a9afb8" d="M115-194c53 0 69 39 70 98 0 66-23 100-70 100C84 3 66-7 56-30L54 0H23l1-261h32v101c10-23 28-34 59-34zm-8 174c40 0 45-34 45-75 0-40-5-75-45-74-42 0-51 32-51 76 0 43 10 73 51 73" id="co"/><path fill="#a9afb8" d="M114-163C36-179 61-72 57 0H25l-1-190h30c1 12-1 29 2 39 6-27 23-49 58-41v29" id="cp"/><g id="ad"><use transform="matrix(0.04248971193415638,0,0,0.04248971193415638,0,0)" xlink:href="#cj"/><use transform="matrix(0.04248971193415638,0,0,0.04248971193415638,11.004835390946502,0)" xlink:href="#ck"/><use transform="matrix(0.04248971193415638,0,0,0.04248971193415638,19.502777777777776,0)" xlink:href="#cl"/><use transform="matrix(0.04248971193415638,0,0,0.04248971193415638,27.150925925925925,0)" xlink:href="#cm"/><use transform="matrix(0.04248971193415638,0,0,0.04248971193415638,35.6488683127572,0)" xlink:href="#cn"/><use transform="matrix(0.04248971193415638,0,0,0.04248971193415638,48.35329218106995,0)" xlink:href="#co"/><use transform="matrix(0.04248971193415638,0,0,0.04248971193415638,56.851234567901244,0)" xlink:href="#cm"/><use transform="matrix(0.04248971193415638,0,0,0.04248971193415638,65.34917695473251,0)" xlink:href="#cp"/></g><path fill="#a9afb8" d="M99-251c64 0 84 50 84 122C183-37 130 33 47-8c-14-7-20-23-25-40l30-5c6 39 69 39 84 7 9-19 16-44 16-74-10 22-31 35-62 35-49 0-73-33-73-83 0-54 28-83 82-83zm-1 141c31-1 51-18 51-49 0-36-14-67-51-67-34 0-49 23-49 58 0 34 15 58 49 58" id="cq"/><path fill="#a9afb8" d="M68-38c1 34 0 65-14 84H32c9-13 17-26 17-46H33v-38h35" id="cr"/><g id="ae"><use transform="matrix(0.04248971193415638,0,0,0.04248971193415638,0,0)" xlink:href="#cq"/><use transform="matrix(0.04248971193415638,0,0,0.04248971193415638,8.497942386831275,0)" xlink:href="#cr"/></g><path fill="#a9afb8" d="M101-251c82-7 93 87 43 132L82-64C71-53 59-42 53-27h129V0H18c2-99 128-94 128-182 0-28-16-43-45-43s-46 15-49 41l-32-3c6-41 34-60 81-64" id="cs"/><g id="af"><use transform="matrix(0.04248971193415638,0,0,0.04248971193415638,0,0)" xlink:href="#cs"/><use transform="matrix(0.04248971193415638,0,0,0.04248971193415638,8.497942386831275,0)" xlink:href="#cf"/><use transform="matrix(0.04248971193415638,0,0,0.04248971193415638,16.99588477366255,0)" xlink:href="#cs"/><use transform="matrix(0.04248971193415638,0,0,0.04248971193415638,25.493827160493822,0)" xlink:href="#cf"/></g><path fill="#333" d="M127-220V0H93v-220H8v-28h204v28h-85" id="ct"/><path fill="#333" d="M233-177c-1 41-23 64-60 70L243 0h-38l-65-103H63V0H30v-248c88 3 205-21 203 71zM63-129c60-2 137 13 137-47 0-61-80-42-137-45v92" id="cu"/><path fill="#333" d="M84 4C-5 8 30-112 23-190h32v120c0 31 7 50 39 49 72-2 45-101 50-169h31l1 190h-30c-1-10 1-25-2-33-11 22-28 36-60 37" id="cv"/><g id="ag"><use transform="matrix(0.04938271604938272,0,0,0.04938271604938272,0,0)" xlink:href="#ct"/><use transform="matrix(0.04938271604938272,0,0,0.04938271604938272,8.839506172839506,0)" xlink:href="#aH"/><use transform="matrix(0.04938271604938272,0,0,0.04938271604938272,18.71604938271605,0)" xlink:href="#aI"/><use transform="matrix(0.04938271604938272,0,0,0.04938271604938272,27.60493827160494,0)" xlink:href="#aG"/><use transform="matrix(0.04938271604938272,0,0,0.04938271604938272,32.543209876543216,0)" xlink:href="#cu"/><use transform="matrix(0.04938271604938272,0,0,0.04938271604938272,45.33333333333334,0)" xlink:href="#aH"/><use transform="matrix(0.04938271604938272,0,0,0.04938271604938272,55.209876543209894,0)" xlink:href="#aI"/><use transform="matrix(0.04938271604938272,0,0,0.04938271604938272,64.09876543209877,0)" xlink:href="#cv"/><use transform="matrix(0.04938271604938272,0,0,0.04938271604938272,73.97530864197532,0)" xlink:href="#bt"/><use transform="matrix(0.04938271604938272,0,0,0.04938271604938272,77.87654320987656,0)" xlink:href="#aG"/></g><g id="ah"><use transform="matrix(0.05,0,0,0.05,0,0)" xlink:href="#aI"/><use transform="matrix(0.05,0,0,0.05,9,0)" xlink:href="#aN"/><use transform="matrix(0.05,0,0,0.05,19,0)" xlink:href="#br"/><use transform="matrix(0.05,0,0,0.05,33.95,0)" xlink:href="#bs"/><use transform="matrix(0.05,0,0,0.05,43.95,0)" xlink:href="#bt"/><use transform="matrix(0.05,0,0,0.05,47.900000000000006,0)" xlink:href="#aH"/><use transform="matrix(0.05,0,0,0.05,57.900000000000006,0)" xlink:href="#aJ"/><use transform="matrix(0.05,0,0,0.05,62.900000000000006,0)" xlink:href="#aK"/></g><g id="ai"><use transform="matrix(0.05,0,0,0.05,0,0)" xlink:href="#bd"/><use transform="matrix(0.05,0,0,0.05,3.95,0)" xlink:href="#aU"/><use transform="matrix(0.05,0,0,0.05,13.949999999999998,0)" xlink:href="#be"/><use transform="matrix(0.05,0,0,0.05,23.95,0)" xlink:href="#bg"/><use transform="matrix(0.05,0,0,0.05,28.950000000000003,0)" xlink:href="#aZ"/></g><path fill="#333" d="M177-190C167-65 218 103 67 71c-23-6-38-20-44-43l32-5c15 47 100 32 89-28v-30C133-14 115 1 83 1 29 1 15-40 15-95c0-56 16-97 71-98 29-1 48 16 59 35 1-10 0-23 2-32h30zM94-22c36 0 50-32 50-73 0-42-14-75-50-75-39 0-46 34-46 75s6 73 46 73" id="cw"/><g id="aj"><use transform="matrix(0.05,0,0,0.05,0,0)" xlink:href="#cw"/><use transform="matrix(0.05,0,0,0.05,10,0)" xlink:href="#aH"/><use transform="matrix(0.05,0,0,0.05,20,0)" xlink:href="#bD"/><use transform="matrix(0.05,0,0,0.05,30,0)" xlink:href="#aH"/><use transform="matrix(0.05,0,0,0.05,40,0)" xlink:href="#cu"/><use transform="matrix(0.05,0,0,0.05,52.95,0)" xlink:href="#aH"/><use transform="matrix(0.05,0,0,0.05,62.95,0)" xlink:href="#cw"/><use transform="matrix(0.05,0,0,0.05,72.95,0)" xlink:href="#aF"/><use transform="matrix(0.05,0,0,0.05,76.9,0)" xlink:href="#by"/><use transform="matrix(0.05,0,0,0.05,86.9,0)" xlink:href="#bD"/></g><g id="ak"><use transform="matrix(0.05,0,0,0.05,0,0)" xlink:href="#aL"/><use transform="matrix(0.05,0,0,0.05,9,0)" xlink:href="#aN"/><use transform="matrix(0.05,0,0,0.05,19,0)" xlink:href="#aG"/></g><path d="M232-93c-1 65-40 97-104 97C67 4 28-28 28-90v-158h33c8 89-33 224 67 224 102 0 64-133 71-224h33v155" id="cx"/><g id="al"><use transform="matrix(0.05,0,0,0.05,0,0)" xlink:href="#aP"/><use transform="matrix(0.05,0,0,0.05,9,0)" xlink:href="#aU"/><use transform="matrix(0.05,0,0,0.05,19,0)" xlink:href="#aV"/><use transform="matrix(0.05,0,0,0.05,33.95,0)" xlink:href="#ba"/><use transform="matrix(0.05,0,0,0.05,43.95,0)" xlink:href="#bd"/><use transform="matrix(0.05,0,0,0.05,47.900000000000006,0)" xlink:href="#aS"/><use transform="matrix(0.05,0,0,0.05,57.900000000000006,0)" xlink:href="#cx"/><use transform="matrix(0.05,0,0,0.05,70.85000000000001,0)" xlink:href="#bc"/><use transform="matrix(0.05,0,0,0.05,80.85000000000001,0)" xlink:href="#aQ"/><use transform="matrix(0.05,0,0,0.05,84.80000000000001,0)" xlink:href="#aR"/></g><g id="am"><use transform="matrix(0.05,0,0,0.05,0,0)" xlink:href="#aW"/><use transform="matrix(0.05,0,0,0.05,9,0)" xlink:href="#aU"/><use transform="matrix(0.05,0,0,0.05,19,0)" xlink:href="#aR"/></g><g id="an"><use transform="matrix(0.05,0,0,0.05,0,0)" xlink:href="#br"/><use transform="matrix(0.05,0,0,0.05,14.950000000000001,0)" xlink:href="#aH"/><use transform="matrix(0.05,0,0,0.05,24.950000000000003,0)" xlink:href="#aN"/><use transform="matrix(0.05,0,0,0.05,34.95,0)" xlink:href="#aI"/><use transform="matrix(0.05,0,0,0.05,43.95,0)" xlink:href="#cv"/><use transform="matrix(0.05,0,0,0.05,53.95,0)" xlink:href="#aO"/><use transform="matrix(0.05,0,0,0.05,59.900000000000006,0)" xlink:href="#aH"/><use transform="matrix(0.05,0,0,0.05,69.9,0)" xlink:href="#br"/><use transform="matrix(0.05,0,0,0.05,84.85000000000001,0)" xlink:href="#aH"/><use transform="matrix(0.05,0,0,0.05,94.85000000000001,0)" xlink:href="#bD"/><use transform="matrix(0.05,0,0,0.05,104.85000000000001,0)" xlink:href="#aG"/><use transform="matrix(0.05,0,0,0.05,109.85000000000001,0)" xlink:href="#ct"/><use transform="matrix(0.05,0,0,0.05,119.80000000000001,0)" xlink:href="#bw"/><use transform="matrix(0.05,0,0,0.05,128.8,0)" xlink:href="#bs"/><use transform="matrix(0.05,0,0,0.05,138.8,0)" xlink:href="#aH"/></g><g id="ao"><use transform="matrix(0.05,0,0,0.05,0,0)" xlink:href="#aL"/><use transform="matrix(0.05,0,0,0.05,9,0)" xlink:href="#aM"/><use transform="matrix(0.05,0,0,0.05,19,0)" xlink:href="#aN"/><use transform="matrix(0.05,0,0,0.05,29,0)" xlink:href="#aO"/></g><path d="M84 4C-5 8 30-112 23-190h32v120c0 31 7 50 39 49 72-2 45-101 50-169h31l1 190h-30c-1-10 1-25-2-33-11 22-28 36-60 37" id="cy"/><path d="M137 0h-34L2-248h35l83 218 83-218h36" id="cz"/><g id="ap"><use transform="matrix(0.05,0,0,0.05,0,0)" xlink:href="#aV"/><use transform="matrix(0.05,0,0,0.05,14.950000000000001,0)" xlink:href="#aS"/><use transform="matrix(0.05,0,0,0.05,24.950000000000003,0)" xlink:href="#aU"/><use transform="matrix(0.05,0,0,0.05,34.95,0)" xlink:href="#aP"/><use transform="matrix(0.05,0,0,0.05,43.95,0)" xlink:href="#cy"/><use transform="matrix(0.05,0,0,0.05,53.95,0)" xlink:href="#aY"/><use transform="matrix(0.05,0,0,0.05,59.900000000000006,0)" xlink:href="#aS"/><use transform="matrix(0.05,0,0,0.05,69.9,0)" xlink:href="#aV"/><use transform="matrix(0.05,0,0,0.05,84.85000000000001,0)" xlink:href="#aS"/><use transform="matrix(0.05,0,0,0.05,94.85000000000001,0)" xlink:href="#bc"/><use transform="matrix(0.05,0,0,0.05,104.85000000000001,0)" xlink:href="#aR"/><use transform="matrix(0.05,0,0,0.05,109.85000000000001,0)" xlink:href="#cz"/><use transform="matrix(0.05,0,0,0.05,120.5,0)" xlink:href="#aU"/><use transform="matrix(0.05,0,0,0.05,130.5,0)" xlink:href="#bd"/><use transform="matrix(0.05,0,0,0.05,134.45,0)" xlink:href="#cy"/><use transform="matrix(0.05,0,0,0.05,144.45,0)" xlink:href="#aS"/></g><g id="aq"><use transform="matrix(0.05,0,0,0.05,0,0)" xlink:href="#bo"/><use transform="matrix(0.05,0,0,0.05,5,0)" xlink:href="#bd"/><use transform="matrix(0.05,0,0,0.05,8.95,0)" xlink:href="#bb"/><use transform="matrix(0.05,0,0,0.05,18.95,0)" xlink:href="#aU"/><use transform="matrix(0.05,0,0,0.05,28.950000000000003,0)" xlink:href="#aR"/></g><g id="ar"><use transform="matrix(0.03765432098765432,0,0,0.03765432098765432,0,0)" xlink:href="#bE"/><use transform="matrix(0.03765432098765432,0,0,0.03765432098765432,9.037037037037036,0)" xlink:href="#cu"/><use transform="matrix(0.03765432098765432,0,0,0.03765432098765432,18.789506172839502,0)" xlink:href="#aK"/></g><path fill="#333" d="M212-179c-10-28-35-45-73-45-59 0-87 40-87 99 0 60 29 101 89 101 43 0 62-24 78-52l27 14C228-24 195 4 139 4 59 4 22-46 18-125c-6-104 99-153 187-111 19 9 31 26 39 46" id="cA"/><g id="as"><use transform="matrix(0.03765432098765432,0,0,0.03765432098765432,0,0)" xlink:href="#cA"/><use transform="matrix(0.03765432098765432,0,0,0.03765432098765432,9.752469135802468,0)" xlink:href="#aN"/><use transform="matrix(0.03765432098765432,0,0,0.03765432098765432,17.28333333333333,0)" xlink:href="#aO"/><use transform="matrix(0.03765432098765432,0,0,0.03765432098765432,21.764197530864195,0)" xlink:href="#bu"/><use transform="matrix(0.03765432098765432,0,0,0.03765432098765432,29.29506172839506,0)" xlink:href="#aF"/><use transform="matrix(0.03765432098765432,0,0,0.03765432098765432,32.26975308641975,0)" xlink:href="#bD"/><use transform="matrix(0.03765432098765432,0,0,0.03765432098765432,39.800617283950615,0)" xlink:href="#aN"/><use transform="matrix(0.03765432098765432,0,0,0.03765432098765432,47.331481481481475,0)" xlink:href="#bt"/><use transform="matrix(0.03765432098765432,0,0,0.03765432098765432,50.30617283950617,0)" xlink:href="#aF"/><use transform="matrix(0.03765432098765432,0,0,0.03765432098765432,53.28086419753086,0)" xlink:href="#aG"/><use transform="matrix(0.03765432098765432,0,0,0.03765432098765432,57.04629629629629,0)" xlink:href="#bw"/></g><path fill="#333" d="M209 0H11v-25l151-195H24v-28h176v25L50-27h159V0" id="cB"/><g id="au"><use transform="matrix(0.031481481481481485,0,0,0.031481481481481485,0,0)" xlink:href="#cB"/><use transform="matrix(0.031481481481481485,0,0,0.031481481481481485,6.894444444444446,0)" xlink:href="#aH"/><use transform="matrix(0.031481481481481485,0,0,0.031481481481481485,13.190740740740743,0)" xlink:href="#aO"/><use transform="matrix(0.031481481481481485,0,0,0.031481481481481485,16.93703703703704,0)" xlink:href="#by"/></g><g id="av"><use transform="matrix(0.031481481481481485,0,0,0.031481481481481485,0,0)" xlink:href="#by"/><use transform="matrix(0.031481481481481485,0,0,0.031481481481481485,6.296296296296297,0)" xlink:href="#aO"/></g><g id="aw"><use transform="matrix(0.031481481481481485,0,0,0.031481481481481485,0,0)" xlink:href="#br"/><use transform="matrix(0.031481481481481485,0,0,0.031481481481481485,9.412962962962965,0)" xlink:href="#aN"/><use transform="matrix(0.031481481481481485,0,0,0.031481481481481485,15.709259259259262,0)" xlink:href="#bD"/><use transform="matrix(0.031481481481481485,0,0,0.031481481481481485,22.00555555555556,0)" xlink:href="#bw"/></g><path fill="#333" d="M140-251c81 0 123 46 123 126C263-46 219 4 140 4 59 4 17-45 17-125s42-126 123-126zm0 227c63 0 89-41 89-101s-29-99-89-99c-61 0-89 39-89 99S79-25 140-24" id="cC"/><g id="ax"><use transform="matrix(0.031481481481481485,0,0,0.031481481481481485,0,0)" xlink:href="#cC"/><use transform="matrix(0.031481481481481485,0,0,0.031481481481481485,8.814814814814817,0)" xlink:href="#bD"/><use transform="matrix(0.031481481481481485,0,0,0.031481481481481485,15.111111111111114,0)" xlink:href="#aH"/></g><g id="ay"><use transform="matrix(0.031481481481481485,0,0,0.031481481481481485,0,0)" xlink:href="#by"/><use transform="matrix(0.031481481481481485,0,0,0.031481481481481485,6.296296296296297,0)" xlink:href="#bD"/><use transform="matrix(0.031481481481481485,0,0,0.031481481481481485,12.592592592592593,0)" xlink:href="#aH"/></g><path fill="#333" d="M87 75C49 33 22-17 22-94c0-76 28-126 65-167h31c-38 41-64 92-64 168S80 34 118 75H87" id="cD"/><g id="az"><use transform="matrix(0.031481481481481485,0,0,0.031481481481481485,0,0)" xlink:href="#cD"/><use transform="matrix(0.031481481481481485,0,0,0.031481481481481485,3.746296296296297,0)" xlink:href="#aN"/><use transform="matrix(0.031481481481481485,0,0,0.031481481481481485,10.042592592592595,0)" xlink:href="#bD"/><use transform="matrix(0.031481481481481485,0,0,0.031481481481481485,16.338888888888892,0)" xlink:href="#bu"/></g><g id="aA"><use transform="matrix(0.031481481481481485,0,0,0.031481481481481485,0,0)" xlink:href="#by"/><use transform="matrix(0.031481481481481485,0,0,0.031481481481481485,6.296296296296297,0)" xlink:href="#bD"/><use transform="matrix(0.031481481481481485,0,0,0.031481481481481485,12.592592592592593,0)" xlink:href="#bt"/><use transform="matrix(0.031481481481481485,0,0,0.031481481481481485,15.07962962962963,0)" xlink:href="#bw"/></g><path fill="#333" d="M33-261c38 41 65 92 65 168S71 34 33 75H2C39 34 66-17 66-93S39-220 2-261h31" id="cE"/><g id="aB"><use transform="matrix(0.031481481481481485,0,0,0.031481481481481485,0,0)" xlink:href="#by"/><use transform="matrix(0.031481481481481485,0,0,0.031481481481481485,6.296296296296297,0)" xlink:href="#bD"/><use transform="matrix(0.031481481481481485,0,0,0.031481481481481485,12.592592592592593,0)" xlink:href="#aH"/><use transform="matrix(0.031481481481481485,0,0,0.031481481481481485,18.88888888888889,0)" xlink:href="#cE"/></g><g id="aC"><use transform="matrix(0.031481481481481485,0,0,0.031481481481481485,0,0)" xlink:href="#bx"/><use transform="matrix(0.031481481481481485,0,0,0.031481481481481485,9.412962962962965,0)" xlink:href="#aN"/><use transform="matrix(0.031481481481481485,0,0,0.031481481481481485,15.709259259259262,0)" xlink:href="#bD"/><use transform="matrix(0.031481481481481485,0,0,0.031481481481481485,22.00555555555556,0)" xlink:href="#bw"/></g><g id="aD"><use transform="matrix(0.031481481481481485,0,0,0.031481481481481485,0,0)" xlink:href="#cC"/><use transform="matrix(0.031481481481481485,0,0,0.031481481481481485,8.814814814814817,0)" xlink:href="#bD"/><use transform="matrix(0.031481481481481485,0,0,0.031481481481481485,15.111111111111114,0)" xlink:href="#aH"/></g></defs></g></svg>