<?xml version="1.0" encoding="UTF-8" standalone="no"?>
<!DOCTYPE svg PUBLIC "-//W3C//DTD SVG 1.1//EN"
 "http://www.w3.org/Graphics/SVG/1.1/DTD/svg11.dtd">
<!-- Generated by graphviz version 2.40.1 (20161225.0304)
 -->
<!-- Title: %0 Pages: 1 -->
<svg width="989pt" height="532pt"
 viewBox="0.00 0.00 989.00 532.08" xmlns="http://www.w3.org/2000/svg" xmlns:xlink="http://www.w3.org/1999/xlink">
<g id="graph0" class="graph" transform="scale(1 1) rotate(0) translate(4 528.0828)">
<title>%0</title>
<g id="a_graph0"><a xlink:title="Data Model">
<polygon fill="#ffffff" stroke="transparent" points="-4,4 -4,-528.0828 985,-528.0828 985,4 -4,4"/>
</a>
</g>
<!-- AssayMethod -->
<g id="node1" class="node">
<title>AssayMethod</title>
<polygon fill="#efebdd" stroke="transparent" points="184.5,-143.0828 184.5,-163.0828 347.5,-163.0828 347.5,-143.0828 184.5,-143.0828"/>
<text text-anchor="start" x="223.5996" y="-148.4828" font-family="Arial" font-size="14.00" fill="#000000">AssayMethod</text>
<polygon fill="#ffffff" stroke="transparent" points="184.5,-123.0828 184.5,-143.0828 285.5,-143.0828 285.5,-123.0828 184.5,-123.0828"/>
<text text-anchor="start" x="186.378" y="-129.4828" font-family="Arial" text-decoration="underline" font-size="14.00" fill="#444444">assayMethodID</text>
<polygon fill="#ffffff" stroke="transparent" points="285.5,-123.0828 285.5,-143.0828 347.5,-143.0828 347.5,-123.0828 285.5,-123.0828"/>
<text text-anchor="start" x="287.3289" y="-128.4828" font-family="Arial" font-size="14.00" fill="#444444">character</text>
<polygon fill="#ffffff" stroke="transparent" points="184.5,-103.0828 184.5,-123.0828 285.5,-123.0828 285.5,-103.0828 184.5,-103.0828"/>
<text text-anchor="start" x="186.5" y="-108.4828" font-family="Arial" font-size="14.00" fill="#444444">instrumentID</text>
<polygon fill="#ffffff" stroke="transparent" points="285.5,-103.0828 285.5,-123.0828 347.5,-123.0828 347.5,-103.0828 285.5,-103.0828"/>
<text text-anchor="start" x="287.3289" y="-108.4828" font-family="Arial" font-size="14.00" fill="#444444">character</text>
<polygon fill="none" stroke="#555555" points="183,-102.0828 183,-164.0828 348,-164.0828 348,-102.0828 183,-102.0828"/>
</g>
<!-- Instrument -->
<g id="node3" class="node">
<title>Instrument</title>
<polygon fill="#efebdd" stroke="transparent" points="1.5,-202.0828 1.5,-222.0828 146.5,-222.0828 146.5,-202.0828 1.5,-202.0828"/>
<text text-anchor="start" x="40.9383" y="-207.4828" font-family="Arial" font-size="14.00" fill="#000000">Instrument</text>
<polygon fill="#ffffff" stroke="transparent" points="1.5,-182.0828 1.5,-202.0828 84.5,-202.0828 84.5,-182.0828 1.5,-182.0828"/>
<text text-anchor="start" x="3.3317" y="-188.4828" font-family="Arial" text-decoration="underline" font-size="14.00" fill="#444444">instrumentID</text>
<polygon fill="#ffffff" stroke="transparent" points="84.5,-182.0828 84.5,-202.0828 146.5,-202.0828 146.5,-182.0828 84.5,-182.0828"/>
<text text-anchor="start" x="86.3289" y="-187.4828" font-family="Arial" font-size="14.00" fill="#444444">character</text>
<polygon fill="none" stroke="#555555" points="0,-181.0828 0,-223.0828 147,-223.0828 147,-181.0828 0,-181.0828"/>
</g>
<!-- AssayMethod&#45;&gt;Instrument -->
<g id="edge16" class="edge">
<title>AssayMethod:instrumentID&#45;&gt;Instrument:instrumentID</title>
<path fill="none" stroke="#555555" d="M174.2182,-113.0829C111.7899,-113.1352 50.8847,-115.0665 43.293,-169.9653"/>
<polygon fill="#555555" stroke="#555555" points="174.5,-113.083 184.5001,-117.5828 179.5,-113.0829 184.5,-113.0828 184.5,-113.0828 184.5,-113.0828 179.5,-113.0829 184.4999,-108.5828 174.5,-113.083 174.5,-113.083"/>
<polygon fill="none" stroke="#555555" points="43.2837,-170.1084 46.8833,-176.3568 42.5,-182.0828 38.9004,-175.8343 43.2837,-170.1084"/>
</g>
<!-- CovidPublicHealthData -->
<g id="node2" class="node">
<title>CovidPublicHealthData</title>
<polygon fill="#efebdd" stroke="transparent" points="824,-280.0828 824,-300.0828 971,-300.0828 971,-280.0828 824,-280.0828"/>
<text text-anchor="start" x="825.5463" y="-285.4828" font-family="Arial" font-size="14.00" fill="#000000">CovidPublicHealthData</text>
<polygon fill="#ffffff" stroke="transparent" points="824,-260.0828 824,-280.0828 900,-280.0828 900,-260.0828 824,-260.0828"/>
<text text-anchor="start" x="826" y="-266.4828" font-family="Arial" text-decoration="underline" font-size="14.00" fill="#444444">cphdID</text>
<polygon fill="#ffffff" stroke="transparent" points="900,-260.0828 900,-280.0828 971,-280.0828 971,-260.0828 900,-260.0828"/>
<text text-anchor="start" x="902" y="-265.4828" font-family="Arial" font-size="14.00" fill="#444444">character</text>
<polygon fill="#ffffff" stroke="transparent" points="824,-240.0828 824,-260.0828 900,-260.0828 900,-240.0828 824,-240.0828"/>
<text text-anchor="start" x="826" y="-245.4828" font-family="Arial" font-size="14.00" fill="#444444">reporterID</text>
<polygon fill="#ffffff" stroke="transparent" points="900,-240.0828 900,-260.0828 971,-260.0828 971,-240.0828 900,-240.0828"/>
<text text-anchor="start" x="902" y="-245.4828" font-family="Arial" font-size="14.00" fill="#444444">character</text>
<polygon fill="#ffffff" stroke="transparent" points="824,-220.0828 824,-240.0828 900,-240.0828 900,-220.0828 824,-220.0828"/>
<text text-anchor="start" x="826" y="-225.4828" font-family="Arial" font-size="14.00" fill="#444444">polygonID</text>
<polygon fill="#ffffff" stroke="transparent" points="900,-220.0828 900,-240.0828 971,-240.0828 971,-220.0828 900,-220.0828"/>
<text text-anchor="start" x="902" y="-225.4828" font-family="Arial" font-size="14.00" fill="#444444">character</text>
<polygon fill="none" stroke="#555555" points="822.5,-219.0828 822.5,-301.0828 971.5,-301.0828 971.5,-219.0828 822.5,-219.0828"/>
</g>
<!-- Polygon -->
<g id="node6" class="node">
<title>Polygon</title>
<polygon fill="#efebdd" stroke="transparent" points="201.5,-222.0828 201.5,-242.0828 330.5,-242.0828 330.5,-222.0828 201.5,-222.0828"/>
<text text-anchor="start" x="240.7132" y="-227.4828" font-family="Arial" font-size="14.00" fill="#000000">Polygon</text>
<polygon fill="#ffffff" stroke="transparent" points="201.5,-202.0828 201.5,-222.0828 268.5,-222.0828 268.5,-202.0828 201.5,-202.0828"/>
<text text-anchor="start" x="203.4916" y="-208.4828" font-family="Arial" text-decoration="underline" font-size="14.00" fill="#444444">polygonID</text>
<polygon fill="#ffffff" stroke="transparent" points="268.5,-202.0828 268.5,-222.0828 330.5,-222.0828 330.5,-202.0828 268.5,-202.0828"/>
<text text-anchor="start" x="270.3289" y="-207.4828" font-family="Arial" font-size="14.00" fill="#444444">character</text>
<polygon fill="none" stroke="#555555" points="200,-201.0828 200,-243.0828 331,-243.0828 331,-201.0828 200,-201.0828"/>
</g>
<!-- CovidPublicHealthData&#45;&gt;Polygon -->
<g id="edge18" class="edge">
<title>CovidPublicHealthData:polygonID&#45;&gt;Polygon:polygonID</title>
<path fill="none" stroke="#555555" d="M813.792,-228.2335C797.6994,-221.4836 798.9215,-198.1483 777,-190.0828 715.268,-167.3699 694.721,-187.3491 629,-190.0828 612.9584,-190.75 609.032,-192.2143 593,-193.0828 584.1605,-193.5616 307.9109,-192.4301 246.5117,-199.1633"/>
<polygon fill="#555555" stroke="#555555" points="814.1602,-228.3001 823.1978,-234.5107 819.0801,-229.1915 824,-230.0828 824,-230.0828 824,-230.0828 819.0801,-229.1915 824.8022,-225.6548 814.1602,-228.3001 814.1602,-228.3001"/>
<polygon fill="none" stroke="#555555" points="246.1605,-199.2486 241.275,-204.5525 234.5,-202.0828 239.3855,-196.7789 246.1605,-199.2486"/>
</g>
<!-- Reporter -->
<g id="node7" class="node">
<title>Reporter</title>
<polygon fill="#efebdd" stroke="transparent" points="630,-260.0828 630,-280.0828 776,-280.0828 776,-260.0828 630,-260.0828"/>
<text text-anchor="start" x="675.7756" y="-265.4828" font-family="Arial" font-size="14.00" fill="#000000">Reporter</text>
<polygon fill="#ffffff" stroke="transparent" points="630,-240.0828 630,-260.0828 714,-260.0828 714,-240.0828 630,-240.0828"/>
<text text-anchor="start" x="632" y="-246.4828" font-family="Arial" text-decoration="underline" font-size="14.00" fill="#444444">reporterID</text>
<polygon fill="#ffffff" stroke="transparent" points="714,-240.0828 714,-260.0828 776,-260.0828 776,-240.0828 714,-240.0828"/>
<text text-anchor="start" x="715.8289" y="-245.4828" font-family="Arial" font-size="14.00" fill="#444444">character</text>
<polygon fill="#ffffff" stroke="transparent" points="630,-220.0828 630,-240.0828 714,-240.0828 714,-220.0828 630,-220.0828"/>
<text text-anchor="start" x="631.9404" y="-225.4828" font-family="Arial" font-size="14.00" fill="#444444">siteIDDefault</text>
<polygon fill="#ffffff" stroke="transparent" points="714,-220.0828 714,-240.0828 776,-240.0828 776,-220.0828 714,-220.0828"/>
<text text-anchor="start" x="715.8289" y="-225.4828" font-family="Arial" font-size="14.00" fill="#444444">character</text>
<polygon fill="#ffffff" stroke="transparent" points="630,-200.0828 630,-220.0828 714,-220.0828 714,-200.0828 630,-200.0828"/>
<text text-anchor="start" x="632" y="-205.4828" font-family="Arial" font-size="14.00" fill="#444444">labIDDefault</text>
<polygon fill="#ffffff" stroke="transparent" points="714,-200.0828 714,-220.0828 776,-220.0828 776,-200.0828 714,-200.0828"/>
<text text-anchor="start" x="715.8289" y="-205.4828" font-family="Arial" font-size="14.00" fill="#444444">character</text>
<polygon fill="none" stroke="#555555" points="629,-199.0828 629,-281.0828 777,-281.0828 777,-199.0828 629,-199.0828"/>
</g>
<!-- CovidPublicHealthData&#45;&gt;Reporter -->
<g id="edge17" class="edge">
<title>CovidPublicHealthData:reporterID&#45;&gt;Reporter:reporterID</title>
<path fill="none" stroke="#555555" d="M814.0468,-251.6723C798.965,-257.117 797.2226,-275.0142 777,-281.0828 777,-281.0828 676.6637,-259.9234 641.7811,-252.5672"/>
<polygon fill="#555555" stroke="#555555" points="814.1251,-251.6599 824.7097,-254.5265 819.0626,-250.8713 824,-250.0828 824,-250.0828 824,-250.0828 819.0626,-250.8713 823.2903,-245.6391 814.1251,-251.6599 814.1251,-251.6599"/>
<polygon fill="none" stroke="#555555" points="641.7418,-252.559 635.0455,-255.2348 630,-250.0828 636.6963,-247.407 641.7418,-252.559"/>
</g>
<!-- Lab -->
<g id="node4" class="node">
<title>Lab</title>
<polygon fill="#efebdd" stroke="transparent" points="385.5,-163.0828 385.5,-183.0828 592.5,-183.0828 592.5,-163.0828 385.5,-163.0828"/>
<text text-anchor="start" x="477.3261" y="-168.4828" font-family="Arial" font-size="14.00" fill="#000000">Lab</text>
<polygon fill="#ffffff" stroke="transparent" points="385.5,-143.0828 385.5,-163.0828 530.5,-163.0828 530.5,-143.0828 385.5,-143.0828"/>
<text text-anchor="start" x="387.5" y="-149.4828" font-family="Arial" text-decoration="underline" font-size="14.00" fill="#444444">labID</text>
<polygon fill="#ffffff" stroke="transparent" points="530.5,-143.0828 530.5,-163.0828 592.5,-163.0828 592.5,-143.0828 530.5,-143.0828"/>
<text text-anchor="start" x="532.3289" y="-148.4828" font-family="Arial" font-size="14.00" fill="#444444">character</text>
<polygon fill="#ffffff" stroke="transparent" points="385.5,-123.0828 385.5,-143.0828 530.5,-143.0828 530.5,-123.0828 385.5,-123.0828"/>
<text text-anchor="start" x="387.2069" y="-128.4828" font-family="Arial" font-size="14.00" fill="#444444">assayMethodIDDefault</text>
<polygon fill="#ffffff" stroke="transparent" points="530.5,-123.0828 530.5,-143.0828 592.5,-143.0828 592.5,-123.0828 530.5,-123.0828"/>
<text text-anchor="start" x="532.3289" y="-128.4828" font-family="Arial" font-size="14.00" fill="#444444">character</text>
<polygon fill="none" stroke="#555555" points="384,-122.0828 384,-184.0828 593,-184.0828 593,-122.0828 384,-122.0828"/>
</g>
<!-- Lab&#45;&gt;AssayMethod -->
<g id="edge15" class="edge">
<title>Lab:assayMethodIDDefault&#45;&gt;AssayMethod:assayMethodID</title>
<path fill="none" stroke="#555555" d="M375.4366,-135.4943C364.6757,-141.7083 364.373,-158.1914 348,-164.0828 165.2343,-229.8454 151.0134,-156.789 173.1649,-137.4974"/>
<polygon fill="#555555" stroke="#555555" points="375.7753,-135.4132 386.5487,-137.4589 380.6377,-134.248 385.5,-133.0828 385.5,-133.0828 385.5,-133.0828 380.6377,-134.248 384.4513,-128.7067 375.7753,-135.4132 375.7753,-135.4132"/>
<polygon fill="none" stroke="#555555" points="173.3181,-137.4378 177.4574,-131.533 184.5,-133.0828 180.3607,-138.9876 173.3181,-137.4378"/>
</g>
<!-- Lookup -->
<g id="node5" class="node">
<title>Lookup</title>
<polygon fill="#efebdd" stroke="transparent" points="872,-496.0828 872,-516.0828 922,-516.0828 922,-496.0828 872,-496.0828"/>
<text text-anchor="start" x="874.0435" y="-501.4828" font-family="Arial" font-size="14.00" fill="#000000">Lookup</text>
<polygon fill="none" stroke="#555555" points="871,-495.0828 871,-517.0828 923,-517.0828 923,-495.0828 871,-495.0828"/>
</g>
<!-- Reporter&#45;&gt;Lab -->
<g id="edge14" class="edge">
<title>Reporter:labIDDefault&#45;&gt;Lab:labID</title>
<path fill="none" stroke="#555555" d="M619.8914,-210.2388C516.8257,-213.4029 456.289,-262.7986 385.5,-184.0828 380.1018,-178.0801 376.2994,-168.4688 376.8477,-161.5386"/>
<polygon fill="#555555" stroke="#555555" points="620.0012,-210.2372 630.0695,-214.5822 625.0006,-210.16 630,-210.0828 630,-210.0828 630,-210.0828 625.0006,-210.16 629.9305,-205.5833 620.0012,-210.2372 620.0012,-210.2372"/>
<polygon fill="none" stroke="#555555" points="376.9178,-161.4701 378.4131,-154.4157 385.5,-153.0828 384.0047,-160.1372 376.9178,-161.4701"/>
</g>
<!-- Site -->
<g id="node9" class="node">
<title>Site</title>
<polygon fill="#efebdd" stroke="transparent" points="424.5,-340.0828 424.5,-360.0828 553.5,-360.0828 553.5,-340.0828 424.5,-340.0828"/>
<text text-anchor="start" x="476.9418" y="-345.4828" font-family="Arial" font-size="14.00" fill="#000000">Site</text>
<polygon fill="#ffffff" stroke="transparent" points="424.5,-320.0828 424.5,-340.0828 491.5,-340.0828 491.5,-320.0828 424.5,-320.0828"/>
<text text-anchor="start" x="426.5" y="-326.4828" font-family="Arial" text-decoration="underline" font-size="14.00" fill="#444444">siteID</text>
<polygon fill="#ffffff" stroke="transparent" points="491.5,-320.0828 491.5,-340.0828 553.5,-340.0828 553.5,-320.0828 491.5,-320.0828"/>
<text text-anchor="start" x="493.3289" y="-325.4828" font-family="Arial" font-size="14.00" fill="#444444">character</text>
<polygon fill="#ffffff" stroke="transparent" points="424.5,-300.0828 424.5,-320.0828 491.5,-320.0828 491.5,-300.0828 424.5,-300.0828"/>
<text text-anchor="start" x="426.4916" y="-305.4828" font-family="Arial" font-size="14.00" fill="#444444">polygonID</text>
<polygon fill="#ffffff" stroke="transparent" points="491.5,-300.0828 491.5,-320.0828 553.5,-320.0828 553.5,-300.0828 491.5,-300.0828"/>
<text text-anchor="start" x="493.3289" y="-305.4828" font-family="Arial" font-size="14.00" fill="#444444">character</text>
<polygon fill="none" stroke="#555555" points="423,-299.0828 423,-361.0828 554,-361.0828 554,-299.0828 423,-299.0828"/>
</g>
<!-- Reporter&#45;&gt;Site -->
<g id="edge13" class="edge">
<title>Reporter:siteIDDefault&#45;&gt;Site:siteID</title>
<path fill="none" stroke="#555555" d="M619.9693,-230.9303C567.7954,-240.5457 609.1385,-329.3257 554,-361.0828 554,-361.0828 468.5098,-340.6179 436.4509,-332.9436"/>
<polygon fill="#555555" stroke="#555555" points="620.0355,-230.9248 630.3789,-234.5668 625.0178,-230.5038 630,-230.0828 630,-230.0828 630,-230.0828 625.0178,-230.5038 629.6211,-225.5988 620.0355,-230.9248 620.0355,-230.9248"/>
<polygon fill="none" stroke="#555555" points="436.1703,-332.8765 429.4039,-335.3697 424.5,-330.0828 431.2664,-327.5895 436.1703,-332.8765"/>
</g>
<!-- Sample -->
<g id="node8" class="node">
<title>Sample</title>
<polygon fill="#efebdd" stroke="transparent" points="631,-360.0828 631,-380.0828 776,-380.0828 776,-360.0828 631,-360.0828"/>
<text text-anchor="start" x="679.7742" y="-365.4828" font-family="Arial" font-size="14.00" fill="#000000">Sample</text>
<polygon fill="#ffffff" stroke="transparent" points="631,-340.0828 631,-360.0828 714,-360.0828 714,-340.0828 631,-340.0828"/>
<text text-anchor="start" x="633" y="-346.4828" font-family="Arial" text-decoration="underline" font-size="14.00" fill="#444444">sampleID</text>
<polygon fill="#ffffff" stroke="transparent" points="714,-340.0828 714,-360.0828 776,-360.0828 776,-340.0828 714,-340.0828"/>
<text text-anchor="start" x="715.8289" y="-345.4828" font-family="Arial" font-size="14.00" fill="#444444">character</text>
<polygon fill="#ffffff" stroke="transparent" points="631,-320.0828 631,-340.0828 714,-340.0828 714,-320.0828 631,-320.0828"/>
<text text-anchor="start" x="633" y="-325.4828" font-family="Arial" font-size="14.00" fill="#444444">siteID</text>
<polygon fill="#ffffff" stroke="transparent" points="714,-320.0828 714,-340.0828 776,-340.0828 776,-320.0828 714,-320.0828"/>
<text text-anchor="start" x="715.8289" y="-325.4828" font-family="Arial" font-size="14.00" fill="#444444">character</text>
<polygon fill="#ffffff" stroke="transparent" points="631,-300.0828 631,-320.0828 714,-320.0828 714,-300.0828 631,-300.0828"/>
<text text-anchor="start" x="632.8317" y="-305.4828" font-family="Arial" font-size="14.00" fill="#444444">instrumentID</text>
<polygon fill="#ffffff" stroke="transparent" points="714,-300.0828 714,-320.0828 776,-320.0828 776,-300.0828 714,-300.0828"/>
<text text-anchor="start" x="715.8289" y="-305.4828" font-family="Arial" font-size="14.00" fill="#444444">character</text>
<polygon fill="none" stroke="#555555" points="629.5,-299.0828 629.5,-381.0828 776.5,-381.0828 776.5,-299.0828 629.5,-299.0828"/>
</g>
<!-- Sample&#45;&gt;Instrument -->
<g id="edge2" class="edge">
<title>Sample:instrumentID&#45;&gt;Instrument:InstrumentID</title>
<path fill="none" stroke="#555555" d="M621.0484,-308.3603C610.8674,-304.3424 607.4373,-294.3667 593,-290.0828 417.5573,-238.0248 334.6459,-354.5216 183,-252.0828 154.0102,-232.4998 176.8634,-200.3057 147,-182.0828 111.3805,-160.3474 55.4134,-140.1783 44.4125,-169.9876"/>
<polygon fill="#555555" stroke="#555555" points="621.1465,-308.3772 630.2325,-314.5168 626.0733,-309.23 631,-310.0828 631,-310.0828 631,-310.0828 626.0733,-309.23 631.7675,-305.6487 621.1465,-308.3772 621.1465,-308.3772"/>
<polygon fill="none" stroke="#555555" points="44.3743,-170.23 47.3881,-176.7812 42.5,-182.0828 39.4862,-175.5316 44.3743,-170.23"/>
</g>
<!-- Sample&#45;&gt;Site -->
<g id="edge1" class="edge">
<title>Sample:siteID&#45;&gt;Site:siteID</title>
<path fill="none" stroke="#555555" d="M620.7124,-330.782C592.9847,-334.7793 586.5397,-354.7784 554,-361.0828 554,-361.0828 468.5098,-340.6179 436.4509,-332.9436"/>
<polygon fill="#555555" stroke="#555555" points="621.023,-330.761 631.3052,-334.5724 626.0115,-330.4219 631,-330.0828 631,-330.0828 631,-330.0828 626.0115,-330.4219 630.6948,-325.5931 621.023,-330.761 621.023,-330.761"/>
<polygon fill="none" stroke="#555555" points="436.1703,-332.8765 429.4039,-335.3697 424.5,-330.0828 431.2664,-327.5895 436.1703,-332.8765"/>
</g>
<!-- Site&#45;&gt;Polygon -->
<g id="edge8" class="edge">
<title>Site:polygonID&#45;&gt;Polygon:polygonID</title>
<path fill="none" stroke="#555555" d="M414.2438,-309.2697C363.9676,-300.7083 385.3624,-226.9236 331,-202.0828 296.4098,-186.2768 247.2881,-164.7795 236.6028,-190.014"/>
<polygon fill="#555555" stroke="#555555" points="414.5313,-309.2924 424.1443,-314.5687 419.5156,-309.6876 424.5,-310.0828 424.5,-310.0828 424.5,-310.0828 419.5156,-309.6876 424.8557,-305.5968 414.5313,-309.2924 414.5313,-309.2924"/>
<polygon fill="none" stroke="#555555" points="236.5599,-190.2609 239.4706,-196.8585 234.5,-202.0828 231.5893,-195.4852 236.5599,-190.2609"/>
</g>
<!-- SiteMeasure -->
<g id="node10" class="node">
<title>SiteMeasure</title>
<polygon fill="#efebdd" stroke="transparent" points="814,-449.0828 814,-469.0828 980,-469.0828 980,-449.0828 814,-449.0828"/>
<text text-anchor="start" x="857.716" y="-454.4828" font-family="Arial" font-size="14.00" fill="#000000">SiteMeasure</text>
<polygon fill="#ffffff" stroke="transparent" points="814,-429.0828 814,-449.0828 918,-449.0828 918,-429.0828 814,-429.0828"/>
<text text-anchor="start" x="815.8261" y="-435.4828" font-family="Arial" text-decoration="underline" font-size="14.00" fill="#444444">uSiteMeasureID</text>
<polygon fill="#ffffff" stroke="transparent" points="918,-429.0828 918,-449.0828 980,-449.0828 980,-429.0828 918,-429.0828"/>
<text text-anchor="start" x="919.8289" y="-434.4828" font-family="Arial" font-size="14.00" fill="#444444">character</text>
<polygon fill="#ffffff" stroke="transparent" points="814,-409.0828 814,-429.0828 918,-429.0828 918,-409.0828 814,-409.0828"/>
<text text-anchor="start" x="816" y="-414.4828" font-family="Arial" font-size="14.00" fill="#444444">siteID</text>
<polygon fill="#ffffff" stroke="transparent" points="918,-409.0828 918,-429.0828 980,-429.0828 980,-409.0828 918,-409.0828"/>
<text text-anchor="start" x="919.8289" y="-414.4828" font-family="Arial" font-size="14.00" fill="#444444">character</text>
<polygon fill="#ffffff" stroke="transparent" points="814,-389.0828 814,-409.0828 918,-409.0828 918,-389.0828 814,-389.0828"/>
<text text-anchor="start" x="816" y="-394.4828" font-family="Arial" font-size="14.00" fill="#444444">instrumentID</text>
<polygon fill="#ffffff" stroke="transparent" points="918,-389.0828 918,-409.0828 980,-409.0828 980,-389.0828 918,-389.0828"/>
<text text-anchor="start" x="919.8289" y="-394.4828" font-family="Arial" font-size="14.00" fill="#444444">character</text>
<polygon fill="#ffffff" stroke="transparent" points="814,-369.0828 814,-389.0828 918,-389.0828 918,-369.0828 814,-369.0828"/>
<text text-anchor="start" x="816" y="-374.4828" font-family="Arial" font-size="14.00" fill="#444444">reporterID</text>
<polygon fill="#ffffff" stroke="transparent" points="918,-369.0828 918,-389.0828 980,-389.0828 980,-369.0828 918,-369.0828"/>
<text text-anchor="start" x="919.8289" y="-374.4828" font-family="Arial" font-size="14.00" fill="#444444">character</text>
<polygon fill="#ffffff" stroke="transparent" points="814,-349.0828 814,-369.0828 918,-369.0828 918,-349.0828 814,-349.0828"/>
<text text-anchor="start" x="816" y="-354.4828" font-family="Arial" font-size="14.00" fill="#444444">sampleID</text>
<polygon fill="#ffffff" stroke="transparent" points="918,-349.0828 918,-369.0828 980,-369.0828 980,-349.0828 918,-349.0828"/>
<text text-anchor="start" x="919.8289" y="-354.4828" font-family="Arial" font-size="14.00" fill="#444444">character</text>
<polygon fill="none" stroke="#555555" points="813,-348.0828 813,-470.0828 981,-470.0828 981,-348.0828 813,-348.0828"/>
</g>
<!-- SiteMeasure&#45;&gt;Instrument -->
<g id="edge10" class="edge">
<title>SiteMeasure:instrumentID&#45;&gt;Instrument:instrumentID</title>
<path fill="none" stroke="#555555" d="M803.7532,-399.0979C620.5234,-399.6369 566.8479,-414.1567 384,-370.0828 290.041,-347.4347 249.2151,-357.4873 183,-287.0828 149.2017,-251.146 187.1442,-210.7572 147,-182.0828 113.045,-157.8292 55.7515,-139.6668 44.4641,-169.9097"/>
<polygon fill="#555555" stroke="#555555" points="804,-399.0976 814.0067,-403.5828 809,-399.0902 814,-399.0828 814,-399.0828 814,-399.0828 809,-399.0902 813.9933,-394.5828 804,-399.0976 804,-399.0976"/>
<polygon fill="none" stroke="#555555" points="44.4115,-170.236 47.4047,-176.7965 42.5,-182.0828 39.5068,-175.5222 44.4115,-170.236"/>
</g>
<!-- SiteMeasure&#45;&gt;Reporter -->
<g id="edge11" class="edge">
<title>SiteMeasure:reporterID&#45;&gt;Reporter:reporterID</title>
<path fill="none" stroke="#555555" d="M804.1101,-377.4968C778.4085,-367.5472 808.2857,-313.4346 777,-291.0828 750.3586,-272.049 652.3527,-305.0078 630,-281.0828 624.4887,-275.1838 620.7057,-265.5547 621.2895,-258.5919"/>
<polygon fill="#555555" stroke="#555555" points="804.1261,-377.4993 813.2875,-383.526 809.0631,-378.2911 814,-379.0828 814,-379.0828 814,-379.0828 809.0631,-378.2911 814.7125,-374.6395 804.1261,-377.4993 804.1261,-377.4993"/>
<polygon fill="none" stroke="#555555" points="621.4161,-258.4683 622.9129,-251.4142 630,-250.0828 628.5032,-257.1368 621.4161,-258.4683"/>
</g>
<!-- SiteMeasure&#45;&gt;Sample -->
<g id="edge12" class="edge">
<title>SiteMeasure:sampleID&#45;&gt;Sample:sampleID</title>
<path fill="none" stroke="#555555" d="M804.049,-361.0729C794.0247,-365.6987 791.2138,-377.0853 776.5,-381.0828 745.2977,-389.5599 653.8631,-403.9459 631,-381.0828 625.2155,-375.2982 621.4429,-365.4541 622.2163,-358.4105"/>
<polygon fill="#555555" stroke="#555555" points="804.1942,-361.0439 814.8825,-363.4954 809.0971,-360.0633 814,-359.0828 814,-359.0828 814,-359.0828 809.0971,-360.0633 813.1175,-354.6701 804.1942,-361.0439 804.1942,-361.0439"/>
<polygon fill="none" stroke="#555555" points="622.2916,-358.339 623.8937,-351.3081 631,-350.0828 629.3979,-357.1137 622.2916,-358.339"/>
</g>
<!-- SiteMeasure&#45;&gt;Site -->
<g id="edge9" class="edge">
<title>SiteMeasure:siteID&#45;&gt;Site:siteID</title>
<path fill="none" stroke="#555555" d="M803.8299,-419.166C635.0607,-421.9162 536.549,-491.0524 424.5,-361.0828 419.2287,-354.9684 415.4045,-345.3763 415.9129,-338.4811"/>
<polygon fill="#555555" stroke="#555555" points="804.0003,-419.1647 814.0369,-423.5826 809.0002,-419.1237 814,-419.0828 814,-419.0828 814,-419.0828 809.0002,-419.1237 813.9631,-414.5829 804.0003,-419.1647 804.0003,-419.1647"/>
<polygon fill="none" stroke="#555555" points="415.9209,-338.4733 417.4136,-331.4184 424.5,-330.0828 423.0073,-337.1377 415.9209,-338.4733"/>
</g>
<!-- WWMeasure -->
<g id="node11" class="node">
<title>WWMeasure</title>
<polygon fill="#efebdd" stroke="transparent" points="815,-180.0828 815,-200.0828 980,-200.0828 980,-180.0828 815,-180.0828"/>
<text text-anchor="start" x="857.0596" y="-185.4828" font-family="Arial" font-size="14.00" fill="#000000">WWMeasure</text>
<polygon fill="#ffffff" stroke="transparent" points="815,-160.0828 815,-180.0828 918,-180.0828 918,-160.0828 815,-160.0828"/>
<text text-anchor="start" x="816.7237" y="-166.4828" font-family="Arial" text-decoration="underline" font-size="14.00" fill="#444444">uWwMeasureID</text>
<polygon fill="#ffffff" stroke="transparent" points="918,-160.0828 918,-180.0828 980,-180.0828 980,-160.0828 918,-160.0828"/>
<text text-anchor="start" x="919.8289" y="-165.4828" font-family="Arial" font-size="14.00" fill="#444444">character</text>
<polygon fill="#ffffff" stroke="transparent" points="815,-140.0828 815,-160.0828 918,-160.0828 918,-140.0828 815,-140.0828"/>
<text text-anchor="start" x="817" y="-145.4828" font-family="Arial" font-size="14.00" fill="#444444">sampleID</text>
<polygon fill="#ffffff" stroke="transparent" points="918,-140.0828 918,-160.0828 980,-160.0828 980,-140.0828 918,-140.0828"/>
<text text-anchor="start" x="919.8289" y="-145.4828" font-family="Arial" font-size="14.00" fill="#444444">character</text>
<polygon fill="#ffffff" stroke="transparent" points="815,-120.0828 815,-140.0828 918,-140.0828 918,-120.0828 815,-120.0828"/>
<text text-anchor="start" x="817" y="-125.4828" font-family="Arial" font-size="14.00" fill="#444444">labID</text>
<polygon fill="#ffffff" stroke="transparent" points="918,-120.0828 918,-140.0828 980,-140.0828 980,-120.0828 918,-120.0828"/>
<text text-anchor="start" x="919.8289" y="-125.4828" font-family="Arial" font-size="14.00" fill="#444444">character</text>
<polygon fill="#ffffff" stroke="transparent" points="815,-100.0828 815,-120.0828 918,-120.0828 918,-100.0828 815,-100.0828"/>
<text text-anchor="start" x="817" y="-105.4828" font-family="Arial" font-size="14.00" fill="#444444">assayID</text>
<polygon fill="#ffffff" stroke="transparent" points="918,-100.0828 918,-120.0828 980,-120.0828 980,-100.0828 918,-100.0828"/>
<text text-anchor="start" x="919.8289" y="-105.4828" font-family="Arial" font-size="14.00" fill="#444444">character</text>
<polygon fill="#ffffff" stroke="transparent" points="815,-80.0828 815,-100.0828 918,-100.0828 918,-80.0828 815,-80.0828"/>
<text text-anchor="start" x="817" y="-85.4828" font-family="Arial" font-size="14.00" fill="#444444">instrumentID</text>
<polygon fill="#ffffff" stroke="transparent" points="918,-80.0828 918,-100.0828 980,-100.0828 980,-80.0828 918,-80.0828"/>
<text text-anchor="start" x="919.8289" y="-85.4828" font-family="Arial" font-size="14.00" fill="#444444">character</text>
<polygon fill="#ffffff" stroke="transparent" points="815,-60.0828 815,-80.0828 918,-80.0828 918,-60.0828 815,-60.0828"/>
<text text-anchor="start" x="817" y="-65.4828" font-family="Arial" font-size="14.00" fill="#444444">reporterID</text>
<polygon fill="#ffffff" stroke="transparent" points="918,-60.0828 918,-80.0828 980,-80.0828 980,-60.0828 918,-60.0828"/>
<text text-anchor="start" x="919.8289" y="-65.4828" font-family="Arial" font-size="14.00" fill="#444444">character</text>
<polygon fill="none" stroke="#555555" points="813.5,-59.0828 813.5,-201.0828 980.5,-201.0828 980.5,-59.0828 813.5,-59.0828"/>
</g>
<!-- WWMeasure&#45;&gt;AssayMethod -->
<g id="edge5" class="edge">
<title>WWMeasure:assayID&#45;&gt;AssayMethod:assayID</title>
<path fill="none" stroke="#555555" d="M804.7559,-110.0697C621.6371,-109.5991 571.3867,-96.7237 384,-113.0828 376.2706,-113.7576 368.2863,-114.6583 360.2843,-115.7052"/>
<polygon fill="#555555" stroke="#555555" points="805,-110.0699 814.9942,-114.5828 810,-110.0763 815,-110.0828 815,-110.0828 815,-110.0828 810,-110.0763 815.0058,-105.5828 805,-110.0699 805,-110.0699"/>
<polygon fill="none" stroke="#555555" points="360.0421,-115.7389 354.6519,-120.529 348.157,-117.3958 353.5472,-112.6056 360.0421,-115.7389"/>
</g>
<!-- WWMeasure&#45;&gt;Instrument -->
<g id="edge6" class="edge">
<title>WWMeasure:instrumentID&#45;&gt;Instrument:instrumentID</title>
<path fill="none" stroke="#555555" d="M804.8476,-90.011C465.1444,-85.2426 52.7049,154.3428 42.6862,-169.8056"/>
<polygon fill="#555555" stroke="#555555" points="805.0003,-90.0119 814.9681,-94.5827 810.0001,-90.0474 815,-90.0828 815,-90.0828 815,-90.0828 810.0001,-90.0474 815.0319,-85.5829 805.0003,-90.0119 805.0003,-90.0119"/>
<polygon fill="none" stroke="#555555" points="42.682,-170.0842 46.5906,-176.1441 42.5,-182.0828 38.5915,-176.0228 42.682,-170.0842"/>
</g>
<!-- WWMeasure&#45;&gt;Lab -->
<g id="edge4" class="edge">
<title>WWMeasure:labID&#45;&gt;Lab:labID</title>
<path fill="none" stroke="#555555" d="M804.5457,-130.0581C729.1946,-129.717 702.8238,-126.4063 629,-157.0828 610.5311,-164.7573 611.9737,-177.7582 593,-184.0828 593,-184.0828 441.8385,-161.4996 397.553,-154.8835"/>
<polygon fill="#555555" stroke="#555555" points="805,-130.0591 814.9893,-134.5828 810,-130.0709 815,-130.0828 815,-130.0828 815,-130.0828 810,-130.0709 815.0107,-125.5828 805,-130.0591 805,-130.0591"/>
<polygon fill="none" stroke="#555555" points="397.3683,-154.856 390.8431,-157.9255 385.5,-153.0828 392.0252,-150.0133 397.3683,-154.856"/>
</g>
<!-- WWMeasure&#45;&gt;Reporter -->
<g id="edge7" class="edge">
<title>WWMeasure:reporterID&#45;&gt;Reporter:reporterID</title>
<path fill="none" stroke="#555555" d="M804.8411,-70.7547C729.5899,-81.657 847.2497,-222.3545 777,-281.0828 777,-281.0828 676.6637,-259.9234 641.7811,-252.5672"/>
<polygon fill="#555555" stroke="#555555" points="805.0218,-70.7428 815.297,-74.573 810.0109,-70.4128 815,-70.0828 815,-70.0828 815,-70.0828 810.0109,-70.4128 814.703,-65.5926 805.0218,-70.7428 805.0218,-70.7428"/>
<polygon fill="none" stroke="#555555" points="641.7418,-252.559 635.0455,-255.2348 630,-250.0828 636.6963,-247.407 641.7418,-252.559"/>
</g>
<!-- WWMeasure&#45;&gt;Sample -->
<g id="edge3" class="edge">
<title>WWMeasure:sampleID&#45;&gt;Sample:sampleID</title>
<path fill="none" stroke="#555555" d="M805.0716,-153.1966C770.3508,-178.4768 813.2615,-349.9411 776.5,-381.0828 776.5,-381.0828 677.6565,-360.0233 642.9069,-352.6196"/>
<polygon fill="#555555" stroke="#555555" points="805.4583,-153.0754 816.3467,-154.3766 810.2291,-151.5791 815,-150.0828 815,-150.0828 815,-150.0828 810.2291,-151.5791 813.6533,-145.789 805.4583,-153.0754 805.4583,-153.0754"/>
<polygon fill="none" stroke="#555555" points="642.7366,-352.5834 636.0347,-355.2453 631,-350.0828 637.7018,-347.4209 642.7366,-352.5834"/>
</g>
</g>
</svg>

