<?xml version="1.0" encoding="UTF-8" standalone="no"?>
<!DOCTYPE svg PUBLIC "-//W3C//DTD SVG 1.1//EN"
 "http://www.w3.org/Graphics/SVG/1.1/DTD/svg11.dtd">
<!-- Generated by graphviz version 2.40.1 (20161225.0304)
 -->
<!-- Title: %0 Pages: 1 -->
<svg width="1174pt" height="485pt"
 viewBox="0.00 0.00 1174.00 484.96" xmlns="http://www.w3.org/2000/svg" xmlns:xlink="http://www.w3.org/1999/xlink">
<g id="graph0" class="graph" transform="scale(1 1) rotate(0) translate(4 480.9572)">
<title>%0</title>
<g id="a_graph0"><a xlink:title="Data Model">
<polygon fill="#ffffff" stroke="transparent" points="-4,4 -4,-480.9572 1170,-480.9572 1170,4 -4,4"/>
</a>
</g>
<!-- AssayMethod -->
<g id="node1" class="node">
<title>AssayMethod</title>
<polygon fill="#efebdd" stroke="transparent" points="184.5,-115.2238 184.5,-135.2238 347.5,-135.2238 347.5,-115.2238 184.5,-115.2238"/>
<text text-anchor="start" x="223.5996" y="-120.6238" font-family="Arial" font-size="14.00" fill="#000000">AssayMethod</text>
<polygon fill="#ffffff" stroke="transparent" points="184.5,-95.2238 184.5,-115.2238 285.5,-115.2238 285.5,-95.2238 184.5,-95.2238"/>
<text text-anchor="start" x="186.378" y="-101.6238" font-family="Arial" text-decoration="underline" font-size="14.00" fill="#444444">assayMethodID</text>
<polygon fill="#ffffff" stroke="transparent" points="285.5,-95.2238 285.5,-115.2238 347.5,-115.2238 347.5,-95.2238 285.5,-95.2238"/>
<text text-anchor="start" x="287.3289" y="-100.6238" font-family="Arial" font-size="14.00" fill="#444444">character</text>
<polygon fill="#ffffff" stroke="transparent" points="184.5,-75.2238 184.5,-95.2238 285.5,-95.2238 285.5,-75.2238 184.5,-75.2238"/>
<text text-anchor="start" x="186.5" y="-80.6238" font-family="Arial" font-size="14.00" fill="#444444">instrumentID</text>
<polygon fill="#ffffff" stroke="transparent" points="285.5,-75.2238 285.5,-95.2238 347.5,-95.2238 347.5,-75.2238 285.5,-75.2238"/>
<text text-anchor="start" x="287.3289" y="-80.6238" font-family="Arial" font-size="14.00" fill="#444444">character</text>
<polygon fill="none" stroke="#555555" points="183,-74.2238 183,-136.2238 348,-136.2238 348,-74.2238 183,-74.2238"/>
</g>
<!-- Instrument -->
<g id="node3" class="node">
<title>Instrument</title>
<polygon fill="#efebdd" stroke="transparent" points="1.5,-174.2238 1.5,-194.2238 146.5,-194.2238 146.5,-174.2238 1.5,-174.2238"/>
<text text-anchor="start" x="40.9383" y="-179.6238" font-family="Arial" font-size="14.00" fill="#000000">Instrument</text>
<polygon fill="#ffffff" stroke="transparent" points="1.5,-154.2238 1.5,-174.2238 84.5,-174.2238 84.5,-154.2238 1.5,-154.2238"/>
<text text-anchor="start" x="3.3317" y="-160.6238" font-family="Arial" text-decoration="underline" font-size="14.00" fill="#444444">instrumentID</text>
<polygon fill="#ffffff" stroke="transparent" points="84.5,-154.2238 84.5,-174.2238 146.5,-174.2238 146.5,-154.2238 84.5,-154.2238"/>
<text text-anchor="start" x="86.3289" y="-159.6238" font-family="Arial" font-size="14.00" fill="#444444">character</text>
<polygon fill="none" stroke="#555555" points="0,-153.2238 0,-195.2238 147,-195.2238 147,-153.2238 0,-153.2238"/>
</g>
<!-- AssayMethod&#45;&gt;Instrument -->
<g id="edge17" class="edge">
<title>AssayMethod:instrumentID&#45;&gt;Instrument:instrumentID</title>
<path fill="none" stroke="#555555" d="M174.2182,-85.2239C111.7899,-85.2763 50.8847,-87.2076 43.293,-142.1064"/>
<polygon fill="#555555" stroke="#555555" points="174.5,-85.224 184.5001,-89.7238 179.5,-85.2239 184.5,-85.2238 184.5,-85.2238 184.5,-85.2238 179.5,-85.2239 184.4999,-80.7238 174.5,-85.224 174.5,-85.224"/>
<polygon fill="none" stroke="#555555" points="43.2837,-142.2494 46.8833,-148.4979 42.5,-154.2238 38.9004,-147.9754 43.2837,-142.2494"/>
</g>
<!-- CovidPublicHealthData -->
<g id="node2" class="node">
<title>CovidPublicHealthData</title>
<polygon fill="#efebdd" stroke="transparent" points="814.5,-408.2238 814.5,-428.2238 961.5,-428.2238 961.5,-408.2238 814.5,-408.2238"/>
<text text-anchor="start" x="816.0463" y="-413.6238" font-family="Arial" font-size="14.00" fill="#000000">CovidPublicHealthData</text>
<polygon fill="#ffffff" stroke="transparent" points="814.5,-388.2238 814.5,-408.2238 890.5,-408.2238 890.5,-388.2238 814.5,-388.2238"/>
<text text-anchor="start" x="816.5" y="-394.6238" font-family="Arial" text-decoration="underline" font-size="14.00" fill="#444444">cphdID</text>
<polygon fill="#ffffff" stroke="transparent" points="890.5,-388.2238 890.5,-408.2238 961.5,-408.2238 961.5,-388.2238 890.5,-388.2238"/>
<text text-anchor="start" x="892.5" y="-393.6238" font-family="Arial" font-size="14.00" fill="#444444">character</text>
<polygon fill="#ffffff" stroke="transparent" points="814.5,-368.2238 814.5,-388.2238 890.5,-388.2238 890.5,-368.2238 814.5,-368.2238"/>
<text text-anchor="start" x="816.5" y="-373.6238" font-family="Arial" font-size="14.00" fill="#444444">reporterID</text>
<polygon fill="#ffffff" stroke="transparent" points="890.5,-368.2238 890.5,-388.2238 961.5,-388.2238 961.5,-368.2238 890.5,-368.2238"/>
<text text-anchor="start" x="892.5" y="-373.6238" font-family="Arial" font-size="14.00" fill="#444444">character</text>
<polygon fill="#ffffff" stroke="transparent" points="814.5,-348.2238 814.5,-368.2238 890.5,-368.2238 890.5,-348.2238 814.5,-348.2238"/>
<text text-anchor="start" x="816.5" y="-353.6238" font-family="Arial" font-size="14.00" fill="#444444">polygonID</text>
<polygon fill="#ffffff" stroke="transparent" points="890.5,-348.2238 890.5,-368.2238 961.5,-368.2238 961.5,-348.2238 890.5,-348.2238"/>
<text text-anchor="start" x="892.5" y="-353.6238" font-family="Arial" font-size="14.00" fill="#444444">character</text>
<polygon fill="none" stroke="#555555" points="813,-347.2238 813,-429.2238 962,-429.2238 962,-347.2238 813,-347.2238"/>
</g>
<!-- Polygon -->
<g id="node6" class="node">
<title>Polygon</title>
<polygon fill="#efebdd" stroke="transparent" points="201.5,-332.2238 201.5,-352.2238 330.5,-352.2238 330.5,-332.2238 201.5,-332.2238"/>
<text text-anchor="start" x="240.7132" y="-337.6238" font-family="Arial" font-size="14.00" fill="#000000">Polygon</text>
<polygon fill="#ffffff" stroke="transparent" points="201.5,-312.2238 201.5,-332.2238 268.5,-332.2238 268.5,-312.2238 201.5,-312.2238"/>
<text text-anchor="start" x="203.4916" y="-318.6238" font-family="Arial" text-decoration="underline" font-size="14.00" fill="#444444">polygonID</text>
<polygon fill="#ffffff" stroke="transparent" points="268.5,-312.2238 268.5,-332.2238 330.5,-332.2238 330.5,-312.2238 268.5,-312.2238"/>
<text text-anchor="start" x="270.3289" y="-317.6238" font-family="Arial" font-size="14.00" fill="#444444">character</text>
<polygon fill="none" stroke="#555555" points="200,-311.2238 200,-353.2238 331,-353.2238 331,-311.2238 200,-311.2238"/>
</g>
<!-- CovidPublicHealthData&#45;&gt;Polygon -->
<g id="edge19" class="edge">
<title>CovidPublicHealthData:polygonID&#45;&gt;Polygon:polygonID</title>
<path fill="none" stroke="#555555" d="M804.255,-358.2585C621.0115,-359.5028 564.8852,-393.4773 384,-342.2238 357.9579,-334.8448 357.1747,-319.1178 331,-312.2238 294.2238,-302.5375 246.7928,-276.307 236.5187,-300.3906"/>
<polygon fill="#555555" stroke="#555555" points="804.5001,-358.2578 814.5153,-362.7238 809.5,-358.2408 814.5,-358.2238 814.5,-358.2238 814.5,-358.2238 809.5,-358.2408 814.4847,-353.7238 804.5001,-358.2578 804.5001,-358.2578"/>
<polygon fill="none" stroke="#555555" points="236.5181,-300.3947 239.4521,-306.9819 234.5,-312.2238 231.566,-305.6366 236.5181,-300.3947"/>
</g>
<!-- Reporter -->
<g id="node7" class="node">
<title>Reporter</title>
<polygon fill="#efebdd" stroke="transparent" points="630,-194.2238 630,-214.2238 776,-214.2238 776,-194.2238 630,-194.2238"/>
<text text-anchor="start" x="675.7756" y="-199.6238" font-family="Arial" font-size="14.00" fill="#000000">Reporter</text>
<polygon fill="#ffffff" stroke="transparent" points="630,-174.2238 630,-194.2238 714,-194.2238 714,-174.2238 630,-174.2238"/>
<text text-anchor="start" x="632" y="-180.6238" font-family="Arial" text-decoration="underline" font-size="14.00" fill="#444444">reporterID</text>
<polygon fill="#ffffff" stroke="transparent" points="714,-174.2238 714,-194.2238 776,-194.2238 776,-174.2238 714,-174.2238"/>
<text text-anchor="start" x="715.8289" y="-179.6238" font-family="Arial" font-size="14.00" fill="#444444">character</text>
<polygon fill="#ffffff" stroke="transparent" points="630,-154.2238 630,-174.2238 714,-174.2238 714,-154.2238 630,-154.2238"/>
<text text-anchor="start" x="631.9404" y="-159.6238" font-family="Arial" font-size="14.00" fill="#444444">siteIDDefault</text>
<polygon fill="#ffffff" stroke="transparent" points="714,-154.2238 714,-174.2238 776,-174.2238 776,-154.2238 714,-154.2238"/>
<text text-anchor="start" x="715.8289" y="-159.6238" font-family="Arial" font-size="14.00" fill="#444444">character</text>
<polygon fill="#ffffff" stroke="transparent" points="630,-134.2238 630,-154.2238 714,-154.2238 714,-134.2238 630,-134.2238"/>
<text text-anchor="start" x="632" y="-139.6238" font-family="Arial" font-size="14.00" fill="#444444">labIDDefault</text>
<polygon fill="#ffffff" stroke="transparent" points="714,-134.2238 714,-154.2238 776,-154.2238 776,-134.2238 714,-134.2238"/>
<text text-anchor="start" x="715.8289" y="-139.6238" font-family="Arial" font-size="14.00" fill="#444444">character</text>
<polygon fill="none" stroke="#555555" points="629,-133.2238 629,-215.2238 777,-215.2238 777,-133.2238 629,-133.2238"/>
</g>
<!-- CovidPublicHealthData&#45;&gt;Reporter -->
<g id="edge18" class="edge">
<title>CovidPublicHealthData:reporterID&#45;&gt;Reporter:reporterID</title>
<path fill="none" stroke="#555555" d="M806.1337,-371.7527C770.1797,-341.8009 631.2353,-217.9634 630,-215.2238 626.9914,-208.5513 623.291,-200.2193 622.5487,-193.8742"/>
<polygon fill="#555555" stroke="#555555" points="806.59,-372.1056 811.7468,-381.7833 810.545,-375.1647 814.5,-378.2238 814.5,-378.2238 814.5,-378.2238 810.545,-375.1647 817.2532,-374.6643 806.59,-372.1056 806.59,-372.1056"/>
<polygon fill="none" stroke="#555555" points="622.6661,-193.722 623.167,-186.5283 630,-184.2238 629.4991,-191.4175 622.6661,-193.722"/>
</g>
<!-- Lab -->
<g id="node4" class="node">
<title>Lab</title>
<polygon fill="#efebdd" stroke="transparent" points="385.5,-135.2238 385.5,-155.2238 592.5,-155.2238 592.5,-135.2238 385.5,-135.2238"/>
<text text-anchor="start" x="477.3261" y="-140.6238" font-family="Arial" font-size="14.00" fill="#000000">Lab</text>
<polygon fill="#ffffff" stroke="transparent" points="385.5,-115.2238 385.5,-135.2238 530.5,-135.2238 530.5,-115.2238 385.5,-115.2238"/>
<text text-anchor="start" x="387.5" y="-121.6238" font-family="Arial" text-decoration="underline" font-size="14.00" fill="#444444">labID</text>
<polygon fill="#ffffff" stroke="transparent" points="530.5,-115.2238 530.5,-135.2238 592.5,-135.2238 592.5,-115.2238 530.5,-115.2238"/>
<text text-anchor="start" x="532.3289" y="-120.6238" font-family="Arial" font-size="14.00" fill="#444444">character</text>
<polygon fill="#ffffff" stroke="transparent" points="385.5,-95.2238 385.5,-115.2238 530.5,-115.2238 530.5,-95.2238 385.5,-95.2238"/>
<text text-anchor="start" x="387.2069" y="-100.6238" font-family="Arial" font-size="14.00" fill="#444444">assayMethodIDDefault</text>
<polygon fill="#ffffff" stroke="transparent" points="530.5,-95.2238 530.5,-115.2238 592.5,-115.2238 592.5,-95.2238 530.5,-95.2238"/>
<text text-anchor="start" x="532.3289" y="-100.6238" font-family="Arial" font-size="14.00" fill="#444444">character</text>
<polygon fill="none" stroke="#555555" points="384,-94.2238 384,-156.2238 593,-156.2238 593,-94.2238 384,-94.2238"/>
</g>
<!-- Lab&#45;&gt;AssayMethod -->
<g id="edge16" class="edge">
<title>Lab:assayMethodIDDefault&#45;&gt;AssayMethod:assayMethodID</title>
<path fill="none" stroke="#555555" d="M375.4366,-107.6353C364.6757,-113.8493 364.373,-130.3325 348,-136.2238 165.2343,-201.9864 151.0134,-128.9301 173.1649,-109.6385"/>
<polygon fill="#555555" stroke="#555555" points="375.7753,-107.5542 386.5487,-109.5999 380.6377,-106.389 385.5,-105.2238 385.5,-105.2238 385.5,-105.2238 380.6377,-106.389 384.4513,-100.8477 375.7753,-107.5542 375.7753,-107.5542"/>
<polygon fill="none" stroke="#555555" points="173.3181,-109.5789 177.4574,-103.674 184.5,-105.2238 180.3607,-111.1286 173.3181,-109.5789"/>
</g>
<!-- Lookup -->
<g id="node5" class="node">
<title>Lookup</title>
<polygon fill="#efebdd" stroke="transparent" points="1057,-397.2238 1057,-417.2238 1107,-417.2238 1107,-397.2238 1057,-397.2238"/>
<text text-anchor="start" x="1059.0435" y="-402.6238" font-family="Arial" font-size="14.00" fill="#000000">Lookup</text>
<polygon fill="none" stroke="#555555" points="1056,-396.2238 1056,-418.2238 1108,-418.2238 1108,-396.2238 1056,-396.2238"/>
</g>
<!-- Reporter&#45;&gt;Lab -->
<g id="edge15" class="edge">
<title>Reporter:labIDDefault&#45;&gt;Lab:labID</title>
<path fill="none" stroke="#555555" d="M619.8845,-145.5517C610.6832,-148.2207 606.0735,-154.1568 593,-156.2238 501.9093,-170.626 450.711,-221.4348 385.5,-156.2238 379.7155,-150.4393 375.9429,-140.5952 376.7163,-133.5515"/>
<polygon fill="#555555" stroke="#555555" points="620.0851,-145.5255 630.5857,-148.6855 625.0425,-144.8746 630,-144.2238 630,-144.2238 630,-144.2238 625.0425,-144.8746 629.4143,-139.7621 620.0851,-145.5255 620.0851,-145.5255"/>
<polygon fill="none" stroke="#555555" points="376.7916,-133.48 378.3937,-126.4491 385.5,-125.2238 383.8979,-132.2547 376.7916,-133.48"/>
</g>
<!-- Site -->
<g id="node9" class="node">
<title>Site</title>
<polygon fill="#efebdd" stroke="transparent" points="424.5,-312.2238 424.5,-332.2238 553.5,-332.2238 553.5,-312.2238 424.5,-312.2238"/>
<text text-anchor="start" x="476.9418" y="-317.6238" font-family="Arial" font-size="14.00" fill="#000000">Site</text>
<polygon fill="#ffffff" stroke="transparent" points="424.5,-292.2238 424.5,-312.2238 491.5,-312.2238 491.5,-292.2238 424.5,-292.2238"/>
<text text-anchor="start" x="426.5" y="-298.6238" font-family="Arial" text-decoration="underline" font-size="14.00" fill="#444444">siteID</text>
<polygon fill="#ffffff" stroke="transparent" points="491.5,-292.2238 491.5,-312.2238 553.5,-312.2238 553.5,-292.2238 491.5,-292.2238"/>
<text text-anchor="start" x="493.3289" y="-297.6238" font-family="Arial" font-size="14.00" fill="#444444">character</text>
<polygon fill="#ffffff" stroke="transparent" points="424.5,-272.2238 424.5,-292.2238 491.5,-292.2238 491.5,-272.2238 424.5,-272.2238"/>
<text text-anchor="start" x="426.4916" y="-277.6238" font-family="Arial" font-size="14.00" fill="#444444">polygonID</text>
<polygon fill="#ffffff" stroke="transparent" points="491.5,-272.2238 491.5,-292.2238 553.5,-292.2238 553.5,-272.2238 491.5,-272.2238"/>
<text text-anchor="start" x="493.3289" y="-277.6238" font-family="Arial" font-size="14.00" fill="#444444">character</text>
<polygon fill="none" stroke="#555555" points="423,-271.2238 423,-333.2238 554,-333.2238 554,-271.2238 423,-271.2238"/>
</g>
<!-- Reporter&#45;&gt;Site -->
<g id="edge14" class="edge">
<title>Reporter:siteIDDefault&#45;&gt;Site:siteID</title>
<path fill="none" stroke="#555555" d="M619.8294,-164.9577C554.1355,-175.2285 620.0471,-290.5072 554,-333.2238 554,-333.2238 468.5098,-312.759 436.4509,-305.0846"/>
<polygon fill="#555555" stroke="#555555" points="620.0259,-164.9436 630.3239,-168.7121 625.013,-164.5837 630,-164.2238 630,-164.2238 630,-164.2238 625.013,-164.5837 629.6761,-159.7355 620.0259,-164.9436 620.0259,-164.9436"/>
<polygon fill="none" stroke="#555555" points="436.1703,-305.0175 429.4039,-307.5108 424.5,-302.2238 431.2664,-299.7306 436.1703,-305.0175"/>
</g>
<!-- Sample -->
<g id="node8" class="node">
<title>Sample</title>
<polygon fill="#efebdd" stroke="transparent" points="815.5,-232.2238 815.5,-252.2238 960.5,-252.2238 960.5,-232.2238 815.5,-232.2238"/>
<text text-anchor="start" x="864.2742" y="-237.6238" font-family="Arial" font-size="14.00" fill="#000000">Sample</text>
<polygon fill="#ffffff" stroke="transparent" points="815.5,-212.2238 815.5,-232.2238 898.5,-232.2238 898.5,-212.2238 815.5,-212.2238"/>
<text text-anchor="start" x="817.5" y="-218.6238" font-family="Arial" text-decoration="underline" font-size="14.00" fill="#444444">sampleID</text>
<polygon fill="#ffffff" stroke="transparent" points="898.5,-212.2238 898.5,-232.2238 960.5,-232.2238 960.5,-212.2238 898.5,-212.2238"/>
<text text-anchor="start" x="900.3289" y="-217.6238" font-family="Arial" font-size="14.00" fill="#444444">character</text>
<polygon fill="#ffffff" stroke="transparent" points="815.5,-192.2238 815.5,-212.2238 898.5,-212.2238 898.5,-192.2238 815.5,-192.2238"/>
<text text-anchor="start" x="817.5" y="-197.6238" font-family="Arial" font-size="14.00" fill="#444444">siteID</text>
<polygon fill="#ffffff" stroke="transparent" points="898.5,-192.2238 898.5,-212.2238 960.5,-212.2238 960.5,-192.2238 898.5,-192.2238"/>
<text text-anchor="start" x="900.3289" y="-197.6238" font-family="Arial" font-size="14.00" fill="#444444">character</text>
<polygon fill="#ffffff" stroke="transparent" points="815.5,-172.2238 815.5,-192.2238 898.5,-192.2238 898.5,-172.2238 815.5,-172.2238"/>
<text text-anchor="start" x="817.3317" y="-177.6238" font-family="Arial" font-size="14.00" fill="#444444">instrumentID</text>
<polygon fill="#ffffff" stroke="transparent" points="898.5,-172.2238 898.5,-192.2238 960.5,-192.2238 960.5,-172.2238 898.5,-172.2238"/>
<text text-anchor="start" x="900.3289" y="-177.6238" font-family="Arial" font-size="14.00" fill="#444444">character</text>
<polygon fill="#ffffff" stroke="transparent" points="815.5,-152.2238 815.5,-172.2238 898.5,-172.2238 898.5,-152.2238 815.5,-152.2238"/>
<text text-anchor="start" x="817.5" y="-157.6238" font-family="Arial" font-size="14.00" fill="#444444">reporterID</text>
<polygon fill="#ffffff" stroke="transparent" points="898.5,-152.2238 898.5,-172.2238 960.5,-172.2238 960.5,-152.2238 898.5,-152.2238"/>
<text text-anchor="start" x="900.3289" y="-157.6238" font-family="Arial" font-size="14.00" fill="#444444">character</text>
<polygon fill="none" stroke="#555555" points="814,-151.2238 814,-253.2238 961,-253.2238 961,-151.2238 814,-151.2238"/>
</g>
<!-- Sample&#45;&gt;Instrument -->
<g id="edge2" class="edge">
<title>Sample:instrumentID&#45;&gt;Instrument:InstrumentID</title>
<path fill="none" stroke="#555555" d="M805.5864,-184.5561C792.5661,-192.0777 796.3762,-215.7002 777,-224.2238 716.7904,-250.7101 694.6068,-228.9629 629,-224.2238 413.093,-208.6277 362.907,-169.8199 147,-154.2238 105.562,-151.2305 54.6397,-116.4282 44.3592,-142.3649"/>
<polygon fill="#555555" stroke="#555555" points="805.7657,-184.514 816.5306,-186.6042 810.6329,-183.3689 815.5,-182.2238 815.5,-182.2238 815.5,-182.2238 810.6329,-183.3689 814.4694,-177.8434 805.7657,-184.514 805.7657,-184.514"/>
<polygon fill="none" stroke="#555555" points="44.3587,-142.3686 47.3811,-148.9158 42.5,-154.2238 39.4776,-147.6766 44.3587,-142.3686"/>
</g>
<!-- Sample&#45;&gt;Reporter -->
<g id="edge3" class="edge">
<title>Sample:reporterID&#45;&gt;Reporter:reporterID</title>
<path fill="none" stroke="#555555" d="M805.6815,-164.3994C790.2013,-172.887 799.2928,-203.8639 777,-215.2238 777,-215.2238 676.6637,-194.0644 641.7811,-186.7083"/>
<polygon fill="#555555" stroke="#555555" points="805.7368,-164.3872 816.4735,-166.6172 810.6184,-163.3055 815.5,-162.2238 815.5,-162.2238 815.5,-162.2238 810.6184,-163.3055 814.5265,-157.8304 805.7368,-164.3872 805.7368,-164.3872"/>
<polygon fill="none" stroke="#555555" points="641.7418,-186.7 635.0455,-189.3758 630,-184.2238 636.6963,-181.548 641.7418,-186.7"/>
</g>
<!-- Sample&#45;&gt;Site -->
<g id="edge1" class="edge">
<title>Sample:siteID&#45;&gt;Site:siteID</title>
<path fill="none" stroke="#555555" d="M805.3566,-204.2762C789.1951,-212.3163 797.6157,-241.9753 777,-257.2238 721.4045,-298.3452 694.2961,-282.4588 629,-305.2238 595.4028,-316.9372 589.0142,-326.9009 554,-333.2238 554,-333.2238 468.5098,-312.759 436.4509,-305.0846"/>
<polygon fill="#555555" stroke="#555555" points="805.6986,-204.2071 816.3925,-206.6344 810.5993,-203.2154 815.5,-202.2238 815.5,-202.2238 815.5,-202.2238 810.5993,-203.2154 814.6075,-197.8132 805.6986,-204.2071 805.6986,-204.2071"/>
<polygon fill="none" stroke="#555555" points="436.1703,-305.0175 429.4039,-307.5108 424.5,-302.2238 431.2664,-299.7306 436.1703,-305.0175"/>
</g>
<!-- Site&#45;&gt;Polygon -->
<g id="edge9" class="edge">
<title>Site:polygonID&#45;&gt;Polygon:polygonID</title>
<path fill="none" stroke="#555555" d="M414.4019,-281.9815C335.5649,-278.3158 245.0159,-235.194 235.3479,-299.8854"/>
<polygon fill="#555555" stroke="#555555" points="414.5029,-281.9838 424.392,-286.7225 419.5014,-282.1038 424.5,-282.2238 424.5,-282.2238 424.5,-282.2238 419.5014,-282.1038 424.608,-277.7251 414.5029,-281.9838 414.5029,-281.9838"/>
<polygon fill="none" stroke="#555555" points="235.3228,-300.252 238.902,-306.5122 234.5,-312.2238 230.9208,-305.9637 235.3228,-300.252"/>
</g>
<!-- SiteMeasure -->
<g id="node10" class="node">
<title>SiteMeasure</title>
<polygon fill="#efebdd" stroke="transparent" points="999,-350.2238 999,-370.2238 1165,-370.2238 1165,-350.2238 999,-350.2238"/>
<text text-anchor="start" x="1042.716" y="-355.6238" font-family="Arial" font-size="14.00" fill="#000000">SiteMeasure</text>
<polygon fill="#ffffff" stroke="transparent" points="999,-330.2238 999,-350.2238 1103,-350.2238 1103,-330.2238 999,-330.2238"/>
<text text-anchor="start" x="1000.8261" y="-336.6238" font-family="Arial" text-decoration="underline" font-size="14.00" fill="#444444">uSiteMeasureID</text>
<polygon fill="#ffffff" stroke="transparent" points="1103,-330.2238 1103,-350.2238 1165,-350.2238 1165,-330.2238 1103,-330.2238"/>
<text text-anchor="start" x="1104.8289" y="-335.6238" font-family="Arial" font-size="14.00" fill="#444444">character</text>
<polygon fill="#ffffff" stroke="transparent" points="999,-310.2238 999,-330.2238 1103,-330.2238 1103,-310.2238 999,-310.2238"/>
<text text-anchor="start" x="1001" y="-315.6238" font-family="Arial" font-size="14.00" fill="#444444">siteID</text>
<polygon fill="#ffffff" stroke="transparent" points="1103,-310.2238 1103,-330.2238 1165,-330.2238 1165,-310.2238 1103,-310.2238"/>
<text text-anchor="start" x="1104.8289" y="-315.6238" font-family="Arial" font-size="14.00" fill="#444444">character</text>
<polygon fill="#ffffff" stroke="transparent" points="999,-290.2238 999,-310.2238 1103,-310.2238 1103,-290.2238 999,-290.2238"/>
<text text-anchor="start" x="1001" y="-295.6238" font-family="Arial" font-size="14.00" fill="#444444">instrumentID</text>
<polygon fill="#ffffff" stroke="transparent" points="1103,-290.2238 1103,-310.2238 1165,-310.2238 1165,-290.2238 1103,-290.2238"/>
<text text-anchor="start" x="1104.8289" y="-295.6238" font-family="Arial" font-size="14.00" fill="#444444">character</text>
<polygon fill="#ffffff" stroke="transparent" points="999,-270.2238 999,-290.2238 1103,-290.2238 1103,-270.2238 999,-270.2238"/>
<text text-anchor="start" x="1001" y="-275.6238" font-family="Arial" font-size="14.00" fill="#444444">reporterID</text>
<polygon fill="#ffffff" stroke="transparent" points="1103,-270.2238 1103,-290.2238 1165,-290.2238 1165,-270.2238 1103,-270.2238"/>
<text text-anchor="start" x="1104.8289" y="-275.6238" font-family="Arial" font-size="14.00" fill="#444444">character</text>
<polygon fill="#ffffff" stroke="transparent" points="999,-250.2238 999,-270.2238 1103,-270.2238 1103,-250.2238 999,-250.2238"/>
<text text-anchor="start" x="1001" y="-255.6238" font-family="Arial" font-size="14.00" fill="#444444">sampleID</text>
<polygon fill="#ffffff" stroke="transparent" points="1103,-250.2238 1103,-270.2238 1165,-270.2238 1165,-250.2238 1103,-250.2238"/>
<text text-anchor="start" x="1104.8289" y="-255.6238" font-family="Arial" font-size="14.00" fill="#444444">character</text>
<polygon fill="none" stroke="#555555" points="998,-249.2238 998,-371.2238 1166,-371.2238 1166,-249.2238 998,-249.2238"/>
</g>
<!-- SiteMeasure&#45;&gt;Instrument -->
<g id="edge11" class="edge">
<title>SiteMeasure:instrumentID&#45;&gt;Instrument:instrumentID</title>
<path fill="none" stroke="#555555" d="M988.9354,-301.2621C944.1788,-311.8248 1007.9693,-400.2037 962,-438.2238 873.0585,-511.7853 818.4204,-457.2238 703,-457.2238 703,-457.2238 703,-457.2238 488.5,-457.2238 346.3089,-457.2238 276.7955,-469.0916 183,-362.2238 121.113,-291.7116 218.7742,-214.6427 147,-154.2238 115.0773,-127.3516 56.1643,-111.2759 44.5269,-141.9697"/>
<polygon fill="#555555" stroke="#555555" points="989.0528,-301.2501 999.4618,-304.7 994.0264,-300.7369 999,-300.2238 999,-300.2238 999,-300.2238 994.0264,-300.7369 998.5382,-295.7476 989.0528,-301.2501 989.0528,-301.2501"/>
<polygon fill="none" stroke="#555555" points="44.4584,-142.3847 47.4256,-148.957 42.5,-154.2238 39.5328,-147.6514 44.4584,-142.3847"/>
</g>
<!-- SiteMeasure&#45;&gt;Reporter -->
<g id="edge12" class="edge">
<title>SiteMeasure:reporterID&#45;&gt;Reporter:reporterID</title>
<path fill="none" stroke="#555555" d="M988.8376,-280.3055C828.3557,-282.8715 729.9667,-344.1094 630,-215.2238 625.1182,-208.9298 621.2761,-199.5522 621.5653,-192.76"/>
<polygon fill="#555555" stroke="#555555" points="989.0003,-280.3043 999.0362,-284.7237 994.0002,-280.2641 999,-280.2238 999,-280.2238 999,-280.2238 994.0002,-280.2641 998.9638,-275.724 989.0003,-280.3043 989.0003,-280.3043"/>
<polygon fill="none" stroke="#555555" points="621.5656,-192.7597 622.9375,-185.6803 630,-184.2238 628.6281,-191.3032 621.5656,-192.7597"/>
</g>
<!-- SiteMeasure&#45;&gt;Sample -->
<g id="edge13" class="edge">
<title>SiteMeasure:sampleID&#45;&gt;Sample:sampleID</title>
<path fill="none" stroke="#555555" d="M988.8236,-260.4379C949.2041,-261.5779 828.1852,-266.4021 815.5,-253.2238 809.8268,-247.3301 806.0333,-237.5064 806.7714,-230.4974"/>
<polygon fill="#555555" stroke="#555555" points="989.0022,-260.4343 999.0947,-264.7228 994.0011,-260.329 999,-260.2238 999,-260.2238 999,-260.2238 994.0011,-260.329 998.9053,-255.7248 989.0022,-260.4343 989.0022,-260.4343"/>
<polygon fill="none" stroke="#555555" points="806.7907,-230.4791 808.3936,-223.4484 815.5,-222.2238 813.8971,-229.2545 806.7907,-230.4791"/>
</g>
<!-- SiteMeasure&#45;&gt;Site -->
<g id="edge10" class="edge">
<title>SiteMeasure:siteID&#45;&gt;Site:siteID</title>
<path fill="none" stroke="#555555" d="M988.9844,-320.2326C799.4095,-320.5673 748.46,-330.384 554,-333.2238 554,-333.2238 468.5098,-312.759 436.4509,-305.0846"/>
<polygon fill="#555555" stroke="#555555" points="989,-320.2327 999.004,-324.7238 994,-320.2282 999,-320.2238 999,-320.2238 999,-320.2238 994,-320.2282 998.996,-315.7238 989,-320.2327 989,-320.2327"/>
<polygon fill="none" stroke="#555555" points="436.1703,-305.0175 429.4039,-307.5108 424.5,-302.2238 431.2664,-299.7306 436.1703,-305.0175"/>
</g>
<!-- WWMeasure -->
<g id="node11" class="node">
<title>WWMeasure</title>
<polygon fill="#efebdd" stroke="transparent" points="1000,-173.2238 1000,-193.2238 1165,-193.2238 1165,-173.2238 1000,-173.2238"/>
<text text-anchor="start" x="1042.0596" y="-178.6238" font-family="Arial" font-size="14.00" fill="#000000">WWMeasure</text>
<polygon fill="#ffffff" stroke="transparent" points="1000,-153.2238 1000,-173.2238 1103,-173.2238 1103,-153.2238 1000,-153.2238"/>
<text text-anchor="start" x="1001.7237" y="-159.6238" font-family="Arial" text-decoration="underline" font-size="14.00" fill="#444444">uWwMeasureID</text>
<polygon fill="#ffffff" stroke="transparent" points="1103,-153.2238 1103,-173.2238 1165,-173.2238 1165,-153.2238 1103,-153.2238"/>
<text text-anchor="start" x="1104.8289" y="-158.6238" font-family="Arial" font-size="14.00" fill="#444444">character</text>
<polygon fill="#ffffff" stroke="transparent" points="1000,-133.2238 1000,-153.2238 1103,-153.2238 1103,-133.2238 1000,-133.2238"/>
<text text-anchor="start" x="1002" y="-138.6238" font-family="Arial" font-size="14.00" fill="#444444">sampleID</text>
<polygon fill="#ffffff" stroke="transparent" points="1103,-133.2238 1103,-153.2238 1165,-153.2238 1165,-133.2238 1103,-133.2238"/>
<text text-anchor="start" x="1104.8289" y="-138.6238" font-family="Arial" font-size="14.00" fill="#444444">character</text>
<polygon fill="#ffffff" stroke="transparent" points="1000,-113.2238 1000,-133.2238 1103,-133.2238 1103,-113.2238 1000,-113.2238"/>
<text text-anchor="start" x="1002" y="-118.6238" font-family="Arial" font-size="14.00" fill="#444444">labID</text>
<polygon fill="#ffffff" stroke="transparent" points="1103,-113.2238 1103,-133.2238 1165,-133.2238 1165,-113.2238 1103,-113.2238"/>
<text text-anchor="start" x="1104.8289" y="-118.6238" font-family="Arial" font-size="14.00" fill="#444444">character</text>
<polygon fill="#ffffff" stroke="transparent" points="1000,-93.2238 1000,-113.2238 1103,-113.2238 1103,-93.2238 1000,-93.2238"/>
<text text-anchor="start" x="1002" y="-98.6238" font-family="Arial" font-size="14.00" fill="#444444">assayID</text>
<polygon fill="#ffffff" stroke="transparent" points="1103,-93.2238 1103,-113.2238 1165,-113.2238 1165,-93.2238 1103,-93.2238"/>
<text text-anchor="start" x="1104.8289" y="-98.6238" font-family="Arial" font-size="14.00" fill="#444444">character</text>
<polygon fill="#ffffff" stroke="transparent" points="1000,-73.2238 1000,-93.2238 1103,-93.2238 1103,-73.2238 1000,-73.2238"/>
<text text-anchor="start" x="1002" y="-78.6238" font-family="Arial" font-size="14.00" fill="#444444">instrumentID</text>
<polygon fill="#ffffff" stroke="transparent" points="1103,-73.2238 1103,-93.2238 1165,-93.2238 1165,-73.2238 1103,-73.2238"/>
<text text-anchor="start" x="1104.8289" y="-78.6238" font-family="Arial" font-size="14.00" fill="#444444">character</text>
<polygon fill="#ffffff" stroke="transparent" points="1000,-53.2238 1000,-73.2238 1103,-73.2238 1103,-53.2238 1000,-53.2238"/>
<text text-anchor="start" x="1002" y="-58.6238" font-family="Arial" font-size="14.00" fill="#444444">reporterID</text>
<polygon fill="#ffffff" stroke="transparent" points="1103,-53.2238 1103,-73.2238 1165,-73.2238 1165,-53.2238 1103,-53.2238"/>
<text text-anchor="start" x="1104.8289" y="-58.6238" font-family="Arial" font-size="14.00" fill="#444444">character</text>
<polygon fill="none" stroke="#555555" points="998.5,-52.2238 998.5,-194.2238 1165.5,-194.2238 1165.5,-52.2238 998.5,-52.2238"/>
</g>
<!-- WWMeasure&#45;&gt;AssayMethod -->
<g id="edge6" class="edge">
<title>WWMeasure:assayID&#45;&gt;AssayMethod:assayID</title>
<path fill="none" stroke="#555555" d="M990.1624,-100.8925C977.2746,-93.3739 981.234,-69.7597 962,-61.2238 905.8002,-36.2829 707.3971,-49.0007 384,-85.2238 376.2895,-86.0874 368.3185,-87.1222 360.3255,-88.2602"/>
<polygon fill="#555555" stroke="#555555" points="990.2695,-100.9178 998.9623,-107.6025 995.1347,-102.0708 1000,-103.2238 1000,-103.2238 1000,-103.2238 995.1347,-102.0708 1001.0377,-98.8451 990.2695,-100.9178 990.2695,-100.9178"/>
<polygon fill="none" stroke="#555555" points="360.079,-88.2966 354.7309,-93.1338 348.2089,-90.0576 353.557,-85.2204 360.079,-88.2966"/>
</g>
<!-- WWMeasure&#45;&gt;Instrument -->
<g id="edge7" class="edge">
<title>WWMeasure:instrumentID&#45;&gt;Instrument:instrumentID</title>
<path fill="none" stroke="#555555" d="M990.047,-80.9621C977.6169,-74.0673 979.9012,-53.235 962,-44.2238 858.2466,8.0042 819.1574,-9.2238 703,-9.2238 703,-9.2238 703,-9.2238 488.5,-9.2238 284.2378,-9.2238 52.0002,51.6967 42.7835,-142.0297"/>
<polygon fill="#555555" stroke="#555555" points="990.2486,-81.0079 999.0028,-87.6119 995.1243,-82.1158 1000,-83.2238 1000,-83.2238 1000,-83.2238 995.1243,-82.1158 1000.9972,-78.8357 990.2486,-81.0079 990.2486,-81.0079"/>
<polygon fill="none" stroke="#555555" points="42.779,-142.227 46.6384,-148.3184 42.5,-154.2238 38.6406,-148.1324 42.779,-142.227"/>
</g>
<!-- WWMeasure&#45;&gt;Lab -->
<g id="edge5" class="edge">
<title>WWMeasure:labID&#45;&gt;Lab:labID</title>
<path fill="none" stroke="#555555" d="M989.9959,-123.1524C832.9322,-120.9019 779.8875,-66.6236 629,-124.2238 609.0004,-131.8585 613.0098,-148.6161 593,-156.2238 593,-156.2238 441.8385,-133.6406 397.553,-127.0245"/>
<polygon fill="#555555" stroke="#555555" points="990.0003,-123.1523 999.9678,-127.7237 995.0001,-123.1881 1000,-123.2238 1000,-123.2238 1000,-123.2238 995.0001,-123.1881 1000.0322,-118.7239 990.0003,-123.1523 990.0003,-123.1523"/>
<polygon fill="none" stroke="#555555" points="397.3683,-126.997 390.8431,-130.0665 385.5,-125.2238 392.0252,-122.1543 397.3683,-126.997"/>
</g>
<!-- WWMeasure&#45;&gt;Reporter -->
<g id="edge8" class="edge">
<title>WWMeasure:reporterID&#45;&gt;Reporter:reporterID</title>
<path fill="none" stroke="#555555" d="M989.9432,-63.2997C907.3545,-64.5909 876.1343,-82.6751 813,-142.2238 786.6839,-167.0453 807.7201,-196.1209 777,-215.2238 777,-215.2238 676.6637,-194.0644 641.7811,-186.7083"/>
<polygon fill="#555555" stroke="#555555" points="990.0003,-63.2994 1000.034,-67.7237 995.0001,-63.2616 1000,-63.2238 1000,-63.2238 1000,-63.2238 995.0001,-63.2616 999.966,-58.7239 990.0003,-63.2994 990.0003,-63.2994"/>
<polygon fill="none" stroke="#555555" points="641.7418,-186.7 635.0455,-189.3758 630,-184.2238 636.6963,-181.548 641.7418,-186.7"/>
</g>
<!-- WWMeasure&#45;&gt;Sample -->
<g id="edge4" class="edge">
<title>WWMeasure:sampleID&#45;&gt;Sample:sampleID</title>
<path fill="none" stroke="#555555" d="M989.7064,-144.6279C956.1642,-155.4289 1000.0556,-225.6331 961,-253.2238 961,-253.2238 862.1565,-232.1644 827.4069,-224.7607"/>
<polygon fill="#555555" stroke="#555555" points="990.0917,-144.5754 1000.6082,-147.6825 995.0459,-143.8996 1000,-143.2238 1000,-143.2238 1000,-143.2238 995.0459,-143.8996 999.3918,-138.7651 990.0917,-144.5754 990.0917,-144.5754"/>
<polygon fill="none" stroke="#555555" points="827.2366,-224.7245 820.5347,-227.3863 815.5,-222.2238 822.2018,-219.5619 827.2366,-224.7245"/>
</g>
</g>
</svg>

