<?xml version="1.0" encoding="UTF-8" standalone="no"?>
<!DOCTYPE svg PUBLIC "-//W3C//DTD SVG 1.1//EN"
 "http://www.w3.org/Graphics/SVG/1.1/DTD/svg11.dtd">
<!-- Generated by graphviz version 2.40.1 (20161225.0304)
 -->
<!-- Title: %0 Pages: 1 -->
<svg width="989pt" height="559pt"
 viewBox="0.00 0.00 989.00 559.38" xmlns="http://www.w3.org/2000/svg" xmlns:xlink="http://www.w3.org/1999/xlink">
<g id="graph0" class="graph" transform="scale(1 1) rotate(0) translate(4 555.3798)">
<title>%0</title>
<g id="a_graph0"><a xlink:title="Data Model">
<polygon fill="#ffffff" stroke="transparent" points="-4,4 -4,-555.3798 985,-555.3798 985,4 -4,4"/>
</a>
</g>
<!-- AssayMethod -->
<g id="node1" class="node">
<title>AssayMethod</title>
<polygon fill="#efebdd" stroke="transparent" points="184.5,-161.3798 184.5,-181.3798 347.5,-181.3798 347.5,-161.3798 184.5,-161.3798"/>
<text text-anchor="start" x="223.5996" y="-166.7798" font-family="Arial" font-size="14.00" fill="#000000">AssayMethod</text>
<polygon fill="#ffffff" stroke="transparent" points="184.5,-141.3798 184.5,-161.3798 285.5,-161.3798 285.5,-141.3798 184.5,-141.3798"/>
<text text-anchor="start" x="186.378" y="-147.7798" font-family="Arial" text-decoration="underline" font-size="14.00" fill="#444444">assayMethodID</text>
<polygon fill="#ffffff" stroke="transparent" points="285.5,-141.3798 285.5,-161.3798 347.5,-161.3798 347.5,-141.3798 285.5,-141.3798"/>
<text text-anchor="start" x="287.3289" y="-146.7798" font-family="Arial" font-size="14.00" fill="#444444">character</text>
<polygon fill="#ffffff" stroke="transparent" points="184.5,-121.3798 184.5,-141.3798 285.5,-141.3798 285.5,-121.3798 184.5,-121.3798"/>
<text text-anchor="start" x="186.5" y="-126.7798" font-family="Arial" font-size="14.00" fill="#444444">instrumentID</text>
<polygon fill="#ffffff" stroke="transparent" points="285.5,-121.3798 285.5,-141.3798 347.5,-141.3798 347.5,-121.3798 285.5,-121.3798"/>
<text text-anchor="start" x="287.3289" y="-126.7798" font-family="Arial" font-size="14.00" fill="#444444">character</text>
<polygon fill="none" stroke="#555555" points="183,-120.3798 183,-182.3798 348,-182.3798 348,-120.3798 183,-120.3798"/>
</g>
<!-- Instrument -->
<g id="node3" class="node">
<title>Instrument</title>
<polygon fill="#efebdd" stroke="transparent" points="1.5,-190.3798 1.5,-210.3798 146.5,-210.3798 146.5,-190.3798 1.5,-190.3798"/>
<text text-anchor="start" x="40.9383" y="-195.7798" font-family="Arial" font-size="14.00" fill="#000000">Instrument</text>
<polygon fill="#ffffff" stroke="transparent" points="1.5,-170.3798 1.5,-190.3798 84.5,-190.3798 84.5,-170.3798 1.5,-170.3798"/>
<text text-anchor="start" x="3.3317" y="-176.7798" font-family="Arial" text-decoration="underline" font-size="14.00" fill="#444444">instrumentID</text>
<polygon fill="#ffffff" stroke="transparent" points="84.5,-170.3798 84.5,-190.3798 146.5,-190.3798 146.5,-170.3798 84.5,-170.3798"/>
<text text-anchor="start" x="86.3289" y="-175.7798" font-family="Arial" font-size="14.00" fill="#444444">character</text>
<polygon fill="none" stroke="#555555" points="0,-169.3798 0,-211.3798 147,-211.3798 147,-169.3798 0,-169.3798"/>
</g>
<!-- AssayMethod&#45;&gt;Instrument -->
<g id="edge15" class="edge">
<title>AssayMethod:instrumentID&#45;&gt;Instrument:instrumentID</title>
<path fill="none" stroke="#555555" d="M174.455,-131.1907C116.0258,-129.0939 52.4377,-111.1473 43.5523,-158.1704"/>
<polygon fill="#555555" stroke="#555555" points="174.5018,-131.1914 184.4153,-135.879 179.5009,-131.2856 184.5,-131.3798 184.5,-131.3798 184.5,-131.3798 179.5009,-131.2856 184.5847,-126.8806 174.5018,-131.1914 174.5018,-131.1914"/>
<polygon fill="none" stroke="#555555" points="43.5305,-158.4241 47.0005,-164.7454 42.5,-170.3798 39.03,-164.0584 43.5305,-158.4241"/>
</g>
<!-- CovidPublicHealthData -->
<g id="node2" class="node">
<title>CovidPublicHealthData</title>
<polygon fill="#efebdd" stroke="transparent" points="824,-347.3798 824,-367.3798 971,-367.3798 971,-347.3798 824,-347.3798"/>
<text text-anchor="start" x="825.5463" y="-352.7798" font-family="Arial" font-size="14.00" fill="#000000">CovidPublicHealthData</text>
<polygon fill="#ffffff" stroke="transparent" points="824,-327.3798 824,-347.3798 900,-347.3798 900,-327.3798 824,-327.3798"/>
<text text-anchor="start" x="826" y="-333.7798" font-family="Arial" text-decoration="underline" font-size="14.00" fill="#444444">cphdID</text>
<polygon fill="#ffffff" stroke="transparent" points="900,-327.3798 900,-347.3798 971,-347.3798 971,-327.3798 900,-327.3798"/>
<text text-anchor="start" x="902" y="-332.7798" font-family="Arial" font-size="14.00" fill="#444444">character</text>
<polygon fill="#ffffff" stroke="transparent" points="824,-307.3798 824,-327.3798 900,-327.3798 900,-307.3798 824,-307.3798"/>
<text text-anchor="start" x="826" y="-312.7798" font-family="Arial" font-size="14.00" fill="#444444">reporterID</text>
<polygon fill="#ffffff" stroke="transparent" points="900,-307.3798 900,-327.3798 971,-327.3798 971,-307.3798 900,-307.3798"/>
<text text-anchor="start" x="902" y="-312.7798" font-family="Arial" font-size="14.00" fill="#444444">character</text>
<polygon fill="#ffffff" stroke="transparent" points="824,-287.3798 824,-307.3798 900,-307.3798 900,-287.3798 824,-287.3798"/>
<text text-anchor="start" x="826" y="-292.7798" font-family="Arial" font-size="14.00" fill="#444444">polygonID</text>
<polygon fill="#ffffff" stroke="transparent" points="900,-287.3798 900,-307.3798 971,-307.3798 971,-287.3798 900,-287.3798"/>
<text text-anchor="start" x="902" y="-292.7798" font-family="Arial" font-size="14.00" fill="#444444">character</text>
<polygon fill="none" stroke="#555555" points="822.5,-286.3798 822.5,-368.3798 971.5,-368.3798 971.5,-286.3798 822.5,-286.3798"/>
</g>
<!-- Polygon -->
<g id="node6" class="node">
<title>Polygon</title>
<polygon fill="#efebdd" stroke="transparent" points="201.5,-318.3798 201.5,-338.3798 330.5,-338.3798 330.5,-318.3798 201.5,-318.3798"/>
<text text-anchor="start" x="240.7132" y="-323.7798" font-family="Arial" font-size="14.00" fill="#000000">Polygon</text>
<polygon fill="#ffffff" stroke="transparent" points="201.5,-298.3798 201.5,-318.3798 268.5,-318.3798 268.5,-298.3798 201.5,-298.3798"/>
<text text-anchor="start" x="203.4916" y="-304.7798" font-family="Arial" text-decoration="underline" font-size="14.00" fill="#444444">polygonID</text>
<polygon fill="#ffffff" stroke="transparent" points="268.5,-298.3798 268.5,-318.3798 330.5,-318.3798 330.5,-298.3798 268.5,-298.3798"/>
<text text-anchor="start" x="270.3289" y="-303.7798" font-family="Arial" font-size="14.00" fill="#444444">character</text>
<polygon fill="none" stroke="#555555" points="200,-297.3798 200,-339.3798 331,-339.3798 331,-297.3798 200,-297.3798"/>
</g>
<!-- CovidPublicHealthData&#45;&gt;Polygon -->
<g id="edge17" class="edge">
<title>CovidPublicHealthData:polygonID&#45;&gt;Polygon:polygonID</title>
<path fill="none" stroke="#555555" d="M813.9903,-297.082C723.6059,-292.7234 295.1415,-242.6226 240.2852,-287.6687"/>
<polygon fill="#555555" stroke="#555555" points="814.0044,-297.0824 823.8662,-301.8778 819.0022,-297.2311 824,-297.3798 824,-297.3798 824,-297.3798 819.0022,-297.2311 824.1338,-292.8818 814.0044,-297.0824 814.0044,-297.0824"/>
<polygon fill="none" stroke="#555555" points="240.2028,-287.8214 240.8709,-295.0015 234.5,-298.3798 233.832,-291.1997 240.2028,-287.8214"/>
</g>
<!-- Reporter -->
<g id="node7" class="node">
<title>Reporter</title>
<polygon fill="#efebdd" stroke="transparent" points="630,-377.3798 630,-397.3798 776,-397.3798 776,-377.3798 630,-377.3798"/>
<text text-anchor="start" x="675.7756" y="-382.7798" font-family="Arial" font-size="14.00" fill="#000000">Reporter</text>
<polygon fill="#ffffff" stroke="transparent" points="630,-357.3798 630,-377.3798 714,-377.3798 714,-357.3798 630,-357.3798"/>
<text text-anchor="start" x="632" y="-363.7798" font-family="Arial" text-decoration="underline" font-size="14.00" fill="#444444">reporterID</text>
<polygon fill="#ffffff" stroke="transparent" points="714,-357.3798 714,-377.3798 776,-377.3798 776,-357.3798 714,-357.3798"/>
<text text-anchor="start" x="715.8289" y="-362.7798" font-family="Arial" font-size="14.00" fill="#444444">character</text>
<polygon fill="#ffffff" stroke="transparent" points="630,-337.3798 630,-357.3798 714,-357.3798 714,-337.3798 630,-337.3798"/>
<text text-anchor="start" x="631.9404" y="-342.7798" font-family="Arial" font-size="14.00" fill="#444444">siteIDDefault</text>
<polygon fill="#ffffff" stroke="transparent" points="714,-337.3798 714,-357.3798 776,-357.3798 776,-337.3798 714,-337.3798"/>
<text text-anchor="start" x="715.8289" y="-342.7798" font-family="Arial" font-size="14.00" fill="#444444">character</text>
<polygon fill="#ffffff" stroke="transparent" points="630,-317.3798 630,-337.3798 714,-337.3798 714,-317.3798 630,-317.3798"/>
<text text-anchor="start" x="632" y="-322.7798" font-family="Arial" font-size="14.00" fill="#444444">labIDDefault</text>
<polygon fill="#ffffff" stroke="transparent" points="714,-317.3798 714,-337.3798 776,-337.3798 776,-317.3798 714,-317.3798"/>
<text text-anchor="start" x="715.8289" y="-322.7798" font-family="Arial" font-size="14.00" fill="#444444">character</text>
<polygon fill="none" stroke="#555555" points="629,-316.3798 629,-398.3798 777,-398.3798 777,-316.3798 629,-316.3798"/>
</g>
<!-- CovidPublicHealthData&#45;&gt;Reporter -->
<g id="edge16" class="edge">
<title>CovidPublicHealthData:reporterID&#45;&gt;Reporter:reporterID</title>
<path fill="none" stroke="#555555" d="M814.086,-318.8857C787.546,-328.3258 809.6864,-379.5555 777,-398.3798 777,-398.3798 676.6637,-377.2204 641.7811,-369.8642"/>
<polygon fill="#555555" stroke="#555555" points="814.1134,-318.8816 824.6758,-321.8287 819.0567,-318.1307 824,-317.3798 824,-317.3798 824,-317.3798 819.0567,-318.1307 823.3242,-312.9308 814.1134,-318.8816 814.1134,-318.8816"/>
<polygon fill="none" stroke="#555555" points="641.7418,-369.856 635.0455,-372.5318 630,-367.3798 636.6963,-364.704 641.7418,-369.856"/>
</g>
<!-- Lab -->
<g id="node4" class="node">
<title>Lab</title>
<polygon fill="#efebdd" stroke="transparent" points="385.5,-181.3798 385.5,-201.3798 592.5,-201.3798 592.5,-181.3798 385.5,-181.3798"/>
<text text-anchor="start" x="477.3261" y="-186.7798" font-family="Arial" font-size="14.00" fill="#000000">Lab</text>
<polygon fill="#ffffff" stroke="transparent" points="385.5,-161.3798 385.5,-181.3798 530.5,-181.3798 530.5,-161.3798 385.5,-161.3798"/>
<text text-anchor="start" x="387.5" y="-167.7798" font-family="Arial" text-decoration="underline" font-size="14.00" fill="#444444">labID</text>
<polygon fill="#ffffff" stroke="transparent" points="530.5,-161.3798 530.5,-181.3798 592.5,-181.3798 592.5,-161.3798 530.5,-161.3798"/>
<text text-anchor="start" x="532.3289" y="-166.7798" font-family="Arial" font-size="14.00" fill="#444444">character</text>
<polygon fill="#ffffff" stroke="transparent" points="385.5,-141.3798 385.5,-161.3798 530.5,-161.3798 530.5,-141.3798 385.5,-141.3798"/>
<text text-anchor="start" x="387.2069" y="-146.7798" font-family="Arial" font-size="14.00" fill="#444444">assayMethodIDDefault</text>
<polygon fill="#ffffff" stroke="transparent" points="530.5,-141.3798 530.5,-161.3798 592.5,-161.3798 592.5,-141.3798 530.5,-141.3798"/>
<text text-anchor="start" x="532.3289" y="-146.7798" font-family="Arial" font-size="14.00" fill="#444444">character</text>
<polygon fill="none" stroke="#555555" points="384,-140.3798 384,-202.3798 593,-202.3798 593,-140.3798 384,-140.3798"/>
</g>
<!-- Lab&#45;&gt;AssayMethod -->
<g id="edge14" class="edge">
<title>Lab:assayMethodIDDefault&#45;&gt;AssayMethod:assayMethodID</title>
<path fill="none" stroke="#555555" d="M375.4366,-153.7913C364.6757,-160.0053 364.373,-176.4884 348,-182.3798 165.2343,-248.1424 151.0134,-175.086 173.1649,-155.7944"/>
<polygon fill="#555555" stroke="#555555" points="375.7753,-153.7102 386.5487,-155.7559 380.6377,-152.545 385.5,-151.3798 385.5,-151.3798 385.5,-151.3798 380.6377,-152.545 384.4513,-147.0037 375.7753,-153.7102 375.7753,-153.7102"/>
<polygon fill="none" stroke="#555555" points="173.3181,-155.7348 177.4574,-149.83 184.5,-151.3798 180.3607,-157.2846 173.3181,-155.7348"/>
</g>
<!-- Lookup -->
<g id="node5" class="node">
<title>Lookup</title>
<polygon fill="#efebdd" stroke="transparent" points="872,-523.3798 872,-543.3798 922,-543.3798 922,-523.3798 872,-523.3798"/>
<text text-anchor="start" x="874.0435" y="-528.7798" font-family="Arial" font-size="14.00" fill="#000000">Lookup</text>
<polygon fill="none" stroke="#555555" points="871,-522.3798 871,-544.3798 923,-544.3798 923,-522.3798 871,-522.3798"/>
</g>
<!-- Reporter&#45;&gt;Lab -->
<g id="edge13" class="edge">
<title>Reporter:labIDDefault&#45;&gt;Lab:labID</title>
<path fill="none" stroke="#555555" d="M619.904,-325.9951C609.9238,-322.8568 605.8542,-314.9634 593,-308.3798 500.8277,-261.1711 439.5631,-290.7063 385.5,-202.3798 381.5103,-195.8615 377.7075,-187.0364 377.4633,-180.4692"/>
<polygon fill="#555555" stroke="#555555" points="620.0927,-326.0209 629.3885,-331.838 625.0464,-326.7003 630,-327.3798 630,-327.3798 630,-327.3798 625.0464,-326.7003 630.6115,-322.9215 620.0927,-326.0209 620.0927,-326.0209"/>
<polygon fill="none" stroke="#555555" points="377.5512,-180.3697 378.529,-173.2251 385.5,-171.3798 384.5223,-178.5243 377.5512,-180.3697"/>
</g>
<!-- Site -->
<g id="node9" class="node">
<title>Site</title>
<polygon fill="#efebdd" stroke="transparent" points="424.5,-357.3798 424.5,-377.3798 553.5,-377.3798 553.5,-357.3798 424.5,-357.3798"/>
<text text-anchor="start" x="476.9418" y="-362.7798" font-family="Arial" font-size="14.00" fill="#000000">Site</text>
<polygon fill="#ffffff" stroke="transparent" points="424.5,-337.3798 424.5,-357.3798 491.5,-357.3798 491.5,-337.3798 424.5,-337.3798"/>
<text text-anchor="start" x="426.5" y="-343.7798" font-family="Arial" text-decoration="underline" font-size="14.00" fill="#444444">siteID</text>
<polygon fill="#ffffff" stroke="transparent" points="491.5,-337.3798 491.5,-357.3798 553.5,-357.3798 553.5,-337.3798 491.5,-337.3798"/>
<text text-anchor="start" x="493.3289" y="-342.7798" font-family="Arial" font-size="14.00" fill="#444444">character</text>
<polygon fill="#ffffff" stroke="transparent" points="424.5,-317.3798 424.5,-337.3798 491.5,-337.3798 491.5,-317.3798 424.5,-317.3798"/>
<text text-anchor="start" x="426.4916" y="-322.7798" font-family="Arial" font-size="14.00" fill="#444444">polygonID</text>
<polygon fill="#ffffff" stroke="transparent" points="491.5,-317.3798 491.5,-337.3798 553.5,-337.3798 553.5,-317.3798 491.5,-317.3798"/>
<text text-anchor="start" x="493.3289" y="-322.7798" font-family="Arial" font-size="14.00" fill="#444444">character</text>
<polygon fill="none" stroke="#555555" points="423,-316.3798 423,-378.3798 554,-378.3798 554,-316.3798 423,-316.3798"/>
</g>
<!-- Reporter&#45;&gt;Site -->
<g id="edge12" class="edge">
<title>Reporter:siteIDDefault&#45;&gt;Site:siteID</title>
<path fill="none" stroke="#555555" d="M619.8308,-348.0789C592.4333,-352.0757 586.1621,-372.0726 554,-378.3798 554,-378.3798 468.5098,-357.9149 436.4509,-350.2406"/>
<polygon fill="#555555" stroke="#555555" points="620.0236,-348.0658 630.3087,-351.8692 625.0118,-347.7228 630,-347.3798 630,-347.3798 630,-347.3798 625.0118,-347.7228 629.6913,-342.8904 620.0236,-348.0658 620.0236,-348.0658"/>
<polygon fill="none" stroke="#555555" points="436.1703,-350.1735 429.4039,-352.6667 424.5,-347.3798 431.2664,-344.8865 436.1703,-350.1735"/>
</g>
<!-- Sample -->
<g id="node8" class="node">
<title>Sample</title>
<polygon fill="#efebdd" stroke="transparent" points="631,-239.3798 631,-259.3798 776,-259.3798 776,-239.3798 631,-239.3798"/>
<text text-anchor="start" x="679.7742" y="-244.7798" font-family="Arial" font-size="14.00" fill="#000000">Sample</text>
<polygon fill="#ffffff" stroke="transparent" points="631,-219.3798 631,-239.3798 714,-239.3798 714,-219.3798 631,-219.3798"/>
<text text-anchor="start" x="633" y="-225.7798" font-family="Arial" text-decoration="underline" font-size="14.00" fill="#444444">sampleID</text>
<polygon fill="#ffffff" stroke="transparent" points="714,-219.3798 714,-239.3798 776,-239.3798 776,-219.3798 714,-219.3798"/>
<text text-anchor="start" x="715.8289" y="-224.7798" font-family="Arial" font-size="14.00" fill="#444444">character</text>
<polygon fill="#ffffff" stroke="transparent" points="631,-199.3798 631,-219.3798 714,-219.3798 714,-199.3798 631,-199.3798"/>
<text text-anchor="start" x="633" y="-204.7798" font-family="Arial" font-size="14.00" fill="#444444">siteID</text>
<polygon fill="#ffffff" stroke="transparent" points="714,-199.3798 714,-219.3798 776,-219.3798 776,-199.3798 714,-199.3798"/>
<text text-anchor="start" x="715.8289" y="-204.7798" font-family="Arial" font-size="14.00" fill="#444444">character</text>
<polygon fill="#ffffff" stroke="transparent" points="631,-179.3798 631,-199.3798 714,-199.3798 714,-179.3798 631,-179.3798"/>
<text text-anchor="start" x="632.8317" y="-184.7798" font-family="Arial" font-size="14.00" fill="#444444">instrumentID</text>
<polygon fill="#ffffff" stroke="transparent" points="714,-179.3798 714,-199.3798 776,-199.3798 776,-179.3798 714,-179.3798"/>
<text text-anchor="start" x="715.8289" y="-184.7798" font-family="Arial" font-size="14.00" fill="#444444">character</text>
<polygon fill="none" stroke="#555555" points="629.5,-178.3798 629.5,-260.3798 776.5,-260.3798 776.5,-178.3798 629.5,-178.3798"/>
</g>
<!-- Sample&#45;&gt;Instrument -->
<g id="edge2" class="edge">
<title>Sample:instrumentID&#45;&gt;Instrument:InstrumentID</title>
<path fill="none" stroke="#555555" d="M620.937,-191.3703C610.783,-195.997 607.8716,-207.3854 593,-211.3798 416.8059,-258.7039 356.5398,-247.6638 183,-191.3798 165.3803,-185.6652 164.8813,-175.214 147,-170.3798 106.8938,-159.5371 54.9206,-130.9284 44.4037,-158.2589"/>
<polygon fill="#555555" stroke="#555555" points="621.1901,-191.3203 631.8732,-193.7942 626.095,-190.35 631,-189.3798 631,-189.3798 631,-189.3798 626.095,-190.35 630.1268,-184.9653 621.1901,-191.3203 621.1901,-191.3203"/>
<polygon fill="none" stroke="#555555" points="44.362,-158.5251 47.3825,-165.0731 42.5,-170.3798 39.4794,-163.8318 44.362,-158.5251"/>
</g>
<!-- Sample&#45;&gt;Site -->
<g id="edge1" class="edge">
<title>Sample:siteID&#45;&gt;Site:siteID</title>
<path fill="none" stroke="#555555" d="M621.2049,-212.4574C589.3057,-233.6708 585.7259,-357.971 554,-378.3798 554,-378.3798 468.5098,-357.9149 436.4509,-350.2406"/>
<polygon fill="#555555" stroke="#555555" points="621.4598,-212.3774 632.3489,-213.6728 626.2299,-210.8786 631,-209.3798 631,-209.3798 631,-209.3798 626.2299,-210.8786 629.6511,-205.0867 621.4598,-212.3774 621.4598,-212.3774"/>
<polygon fill="none" stroke="#555555" points="436.1703,-350.1735 429.4039,-352.6667 424.5,-347.3798 431.2664,-344.8865 436.1703,-350.1735"/>
</g>
<!-- Site&#45;&gt;Polygon -->
<g id="edge8" class="edge">
<title>Site:polygonID&#45;&gt;Polygon:polygonID</title>
<path fill="none" stroke="#555555" d="M414.4093,-326.8747C335.7876,-319.2059 245.3968,-227.5974 235.4095,-286.157"/>
<polygon fill="#555555" stroke="#555555" points="414.5125,-326.8798 424.275,-331.8741 419.5063,-327.1298 424.5,-327.3798 424.5,-327.3798 424.5,-327.3798 419.5063,-327.1298 424.725,-322.8854 414.5125,-326.8798 414.5125,-326.8798"/>
<polygon fill="none" stroke="#555555" points="235.3905,-286.4128 238.9342,-292.6931 234.5,-298.3798 230.9563,-292.0995 235.3905,-286.4128"/>
</g>
<!-- SiteMeasure -->
<g id="node10" class="node">
<title>SiteMeasure</title>
<polygon fill="#efebdd" stroke="transparent" points="814,-476.3798 814,-496.3798 980,-496.3798 980,-476.3798 814,-476.3798"/>
<text text-anchor="start" x="857.716" y="-481.7798" font-family="Arial" font-size="14.00" fill="#000000">SiteMeasure</text>
<polygon fill="#ffffff" stroke="transparent" points="814,-456.3798 814,-476.3798 918,-476.3798 918,-456.3798 814,-456.3798"/>
<text text-anchor="start" x="815.8261" y="-462.7798" font-family="Arial" text-decoration="underline" font-size="14.00" fill="#444444">uSiteMeasureID</text>
<polygon fill="#ffffff" stroke="transparent" points="918,-456.3798 918,-476.3798 980,-476.3798 980,-456.3798 918,-456.3798"/>
<text text-anchor="start" x="919.8289" y="-461.7798" font-family="Arial" font-size="14.00" fill="#444444">character</text>
<polygon fill="#ffffff" stroke="transparent" points="814,-436.3798 814,-456.3798 918,-456.3798 918,-436.3798 814,-436.3798"/>
<text text-anchor="start" x="816" y="-441.7798" font-family="Arial" font-size="14.00" fill="#444444">siteID</text>
<polygon fill="#ffffff" stroke="transparent" points="918,-436.3798 918,-456.3798 980,-456.3798 980,-436.3798 918,-436.3798"/>
<text text-anchor="start" x="919.8289" y="-441.7798" font-family="Arial" font-size="14.00" fill="#444444">character</text>
<polygon fill="#ffffff" stroke="transparent" points="814,-416.3798 814,-436.3798 918,-436.3798 918,-416.3798 814,-416.3798"/>
<text text-anchor="start" x="816" y="-421.7798" font-family="Arial" font-size="14.00" fill="#444444">instrumentID</text>
<polygon fill="#ffffff" stroke="transparent" points="918,-416.3798 918,-436.3798 980,-436.3798 980,-416.3798 918,-416.3798"/>
<text text-anchor="start" x="919.8289" y="-421.7798" font-family="Arial" font-size="14.00" fill="#444444">character</text>
<polygon fill="#ffffff" stroke="transparent" points="814,-396.3798 814,-416.3798 918,-416.3798 918,-396.3798 814,-396.3798"/>
<text text-anchor="start" x="816" y="-401.7798" font-family="Arial" font-size="14.00" fill="#444444">reporterID</text>
<polygon fill="#ffffff" stroke="transparent" points="918,-396.3798 918,-416.3798 980,-416.3798 980,-396.3798 918,-396.3798"/>
<text text-anchor="start" x="919.8289" y="-401.7798" font-family="Arial" font-size="14.00" fill="#444444">character</text>
<polygon fill="none" stroke="#555555" points="813,-395.3798 813,-497.3798 981,-497.3798 981,-395.3798 813,-395.3798"/>
</g>
<!-- SiteMeasure&#45;&gt;Instrument -->
<g id="edge10" class="edge">
<title>SiteMeasure:instrumentID&#45;&gt;Instrument:instrumentID</title>
<path fill="none" stroke="#555555" d="M803.7116,-426.4331C527.8043,-429.2867 381.1531,-544.9723 183,-348.3798 125.7022,-291.5332 209.4739,-221.4834 147,-170.3798 114.7019,-143.9599 56.0881,-127.5237 44.5153,-158.1396"/>
<polygon fill="#555555" stroke="#555555" points="804.0001,-426.4317 814.0234,-430.8797 809.0001,-426.4057 814,-426.3798 814,-426.3798 814,-426.3798 809.0001,-426.4057 813.9766,-421.8798 804.0001,-426.4317 804.0001,-426.4317"/>
<polygon fill="none" stroke="#555555" points="44.4496,-158.5392 47.4217,-165.1093 42.5,-170.3798 39.5279,-163.8096 44.4496,-158.5392"/>
</g>
<!-- SiteMeasure&#45;&gt;Reporter -->
<g id="edge11" class="edge">
<title>SiteMeasure:reporterID&#45;&gt;Reporter:reporterID</title>
<path fill="none" stroke="#555555" d="M803.7937,-406.5663C764.0582,-407.5526 642.6873,-411.6307 630,-398.3798 624.3425,-392.4709 620.5461,-382.6501 621.2792,-375.6459"/>
<polygon fill="#555555" stroke="#555555" points="804.0017,-406.5626 814.0823,-410.879 809.0008,-406.4712 814,-406.3798 814,-406.3798 814,-406.3798 809.0008,-406.4712 813.9177,-401.8805 804.0017,-406.5626 804.0017,-406.5626"/>
<polygon fill="none" stroke="#555555" points="621.2907,-375.635 622.8936,-368.6043 630,-367.3798 628.3971,-374.4105 621.2907,-375.635"/>
</g>
<!-- SiteMeasure&#45;&gt;Site -->
<g id="edge9" class="edge">
<title>SiteMeasure:siteID&#45;&gt;Site:siteID</title>
<path fill="none" stroke="#555555" d="M803.7886,-446.4539C634.3322,-448.9015 535.3622,-510.2734 424.5,-378.3798 419.3749,-372.2823 415.5707,-362.874 415.9354,-356.0209"/>
<polygon fill="#555555" stroke="#555555" points="804.0003,-446.4525 814.0327,-450.8796 809.0001,-446.4161 814,-446.3798 814,-446.3798 814,-446.3798 809.0001,-446.4161 813.9673,-441.8799 804.0003,-446.4525 804.0003,-446.4525"/>
<polygon fill="none" stroke="#555555" points="416.0525,-355.9027 417.4353,-348.8254 424.5,-347.3798 423.1172,-354.4571 416.0525,-355.9027"/>
</g>
<!-- WWMeasure -->
<g id="node11" class="node">
<title>WWMeasure</title>
<polygon fill="#efebdd" stroke="transparent" points="815,-200.3798 815,-220.3798 980,-220.3798 980,-200.3798 815,-200.3798"/>
<text text-anchor="start" x="857.0596" y="-205.7798" font-family="Arial" font-size="14.00" fill="#000000">WWMeasure</text>
<polygon fill="#ffffff" stroke="transparent" points="815,-180.3798 815,-200.3798 918,-200.3798 918,-180.3798 815,-180.3798"/>
<text text-anchor="start" x="816.7237" y="-186.7798" font-family="Arial" text-decoration="underline" font-size="14.00" fill="#444444">uWwMeasureID</text>
<polygon fill="#ffffff" stroke="transparent" points="918,-180.3798 918,-200.3798 980,-200.3798 980,-180.3798 918,-180.3798"/>
<text text-anchor="start" x="919.8289" y="-185.7798" font-family="Arial" font-size="14.00" fill="#444444">character</text>
<polygon fill="#ffffff" stroke="transparent" points="815,-160.3798 815,-180.3798 918,-180.3798 918,-160.3798 815,-160.3798"/>
<text text-anchor="start" x="817" y="-165.7798" font-family="Arial" font-size="14.00" fill="#444444">sampleID</text>
<polygon fill="#ffffff" stroke="transparent" points="918,-160.3798 918,-180.3798 980,-180.3798 980,-160.3798 918,-160.3798"/>
<text text-anchor="start" x="919.8289" y="-165.7798" font-family="Arial" font-size="14.00" fill="#444444">character</text>
<polygon fill="#ffffff" stroke="transparent" points="815,-140.3798 815,-160.3798 918,-160.3798 918,-140.3798 815,-140.3798"/>
<text text-anchor="start" x="817" y="-145.7798" font-family="Arial" font-size="14.00" fill="#444444">labID</text>
<polygon fill="#ffffff" stroke="transparent" points="918,-140.3798 918,-160.3798 980,-160.3798 980,-140.3798 918,-140.3798"/>
<text text-anchor="start" x="919.8289" y="-145.7798" font-family="Arial" font-size="14.00" fill="#444444">character</text>
<polygon fill="#ffffff" stroke="transparent" points="815,-120.3798 815,-140.3798 918,-140.3798 918,-120.3798 815,-120.3798"/>
<text text-anchor="start" x="817" y="-125.7798" font-family="Arial" font-size="14.00" fill="#444444">assayID</text>
<polygon fill="#ffffff" stroke="transparent" points="918,-120.3798 918,-140.3798 980,-140.3798 980,-120.3798 918,-120.3798"/>
<text text-anchor="start" x="919.8289" y="-125.7798" font-family="Arial" font-size="14.00" fill="#444444">character</text>
<polygon fill="#ffffff" stroke="transparent" points="815,-100.3798 815,-120.3798 918,-120.3798 918,-100.3798 815,-100.3798"/>
<text text-anchor="start" x="817" y="-105.7798" font-family="Arial" font-size="14.00" fill="#444444">instrumentID</text>
<polygon fill="#ffffff" stroke="transparent" points="918,-100.3798 918,-120.3798 980,-120.3798 980,-100.3798 918,-100.3798"/>
<text text-anchor="start" x="919.8289" y="-105.7798" font-family="Arial" font-size="14.00" fill="#444444">character</text>
<polygon fill="#ffffff" stroke="transparent" points="815,-80.3798 815,-100.3798 918,-100.3798 918,-80.3798 815,-80.3798"/>
<text text-anchor="start" x="817" y="-85.7798" font-family="Arial" font-size="14.00" fill="#444444">reporterID</text>
<polygon fill="#ffffff" stroke="transparent" points="918,-80.3798 918,-100.3798 980,-100.3798 980,-80.3798 918,-80.3798"/>
<text text-anchor="start" x="919.8289" y="-85.7798" font-family="Arial" font-size="14.00" fill="#444444">character</text>
<polygon fill="none" stroke="#555555" points="813.5,-79.3798 813.5,-221.3798 980.5,-221.3798 980.5,-79.3798 813.5,-79.3798"/>
</g>
<!-- WWMeasure&#45;&gt;AssayMethod -->
<g id="edge5" class="edge">
<title>WWMeasure:assayID&#45;&gt;AssayMethod:assayID</title>
<path fill="none" stroke="#555555" d="M804.7561,-130.3651C621.6423,-129.8402 571.4201,-115.4558 384,-131.3798 376.2691,-132.0366 368.2837,-132.9247 360.2809,-133.9629"/>
<polygon fill="#555555" stroke="#555555" points="805,-130.3654 814.9935,-134.8798 810,-130.3726 815,-130.3798 815,-130.3798 815,-130.3798 810,-130.3726 815.0065,-125.8798 805,-130.3654 805,-130.3654"/>
<polygon fill="none" stroke="#555555" points="360.0392,-133.9963 354.645,-138.7819 348.1528,-135.6433 353.547,-130.8576 360.0392,-133.9963"/>
</g>
<!-- WWMeasure&#45;&gt;Instrument -->
<g id="edge6" class="edge">
<title>WWMeasure:instrumentID&#45;&gt;Instrument:instrumentID</title>
<path fill="none" stroke="#555555" d="M804.8876,-110.2993C466.4933,-104.9518 52.7378,163.9386 42.6868,-158.1658"/>
<polygon fill="#555555" stroke="#555555" points="805.0003,-110.3001 814.9641,-114.8796 810.0002,-110.3399 815,-110.3798 815,-110.3798 815,-110.3798 810.0002,-110.3399 815.0359,-105.8799 805.0003,-110.3001 805.0003,-110.3001"/>
<polygon fill="none" stroke="#555555" points="42.6836,-158.3812 46.5913,-164.4417 42.5,-170.3798 38.5923,-164.3193 42.6836,-158.3812"/>
</g>
<!-- WWMeasure&#45;&gt;Lab -->
<g id="edge4" class="edge">
<title>WWMeasure:labID&#45;&gt;Lab:labID</title>
<path fill="none" stroke="#555555" d="M804.5902,-150.3016C729.485,-149.1791 701.5537,-136.8162 629,-169.3798 609.1979,-178.2673 613.2286,-194.5112 593,-202.3798 593,-202.3798 441.8385,-179.7966 397.553,-173.1804"/>
<polygon fill="#555555" stroke="#555555" points="805.0003,-150.3046 814.9662,-154.8796 810.0001,-150.3422 815,-150.3798 815,-150.3798 815,-150.3798 810.0001,-150.3422 815.0338,-145.8799 805.0003,-150.3046 805.0003,-150.3046"/>
<polygon fill="none" stroke="#555555" points="397.3683,-173.1529 390.8431,-176.2224 385.5,-171.3798 392.0252,-168.3103 397.3683,-173.1529"/>
</g>
<!-- WWMeasure&#45;&gt;Reporter -->
<g id="edge7" class="edge">
<title>WWMeasure:reporterID&#45;&gt;Reporter:reporterID</title>
<path fill="none" stroke="#555555" d="M804.999,-92.655C754.6723,-118.423 825.8385,-355.1965 777,-398.3798 777,-398.3798 676.6637,-377.2204 641.7811,-369.8642"/>
<polygon fill="#555555" stroke="#555555" points="805.2492,-92.5982 815.9983,-94.7676 810.1246,-91.489 815,-90.3798 815,-90.3798 815,-90.3798 810.1246,-91.489 814.0017,-85.9919 805.2492,-92.5982 805.2492,-92.5982"/>
<polygon fill="none" stroke="#555555" points="641.7418,-369.856 635.0455,-372.5318 630,-367.3798 636.6963,-364.704 641.7418,-369.856"/>
</g>
<!-- WWMeasure&#45;&gt;Sample -->
<g id="edge3" class="edge">
<title>WWMeasure:sampleID&#45;&gt;Sample:sampleID</title>
<path fill="none" stroke="#555555" d="M804.8666,-172.0319C778.5588,-182.3921 809.4084,-238.6642 776.5,-260.3798 776.5,-260.3798 677.6565,-239.3203 642.9069,-231.9166"/>
<polygon fill="#555555" stroke="#555555" points="805.1303,-171.989 815.7242,-174.8211 810.0652,-171.1844 815,-170.3798 815,-170.3798 815,-170.3798 810.0652,-171.1844 814.2758,-165.9384 805.1303,-171.989 805.1303,-171.989"/>
<polygon fill="none" stroke="#555555" points="642.7366,-231.8804 636.0347,-234.5423 631,-229.3798 637.7018,-226.7179 642.7366,-231.8804"/>
</g>
</g>
</svg>

